{"glyphs":{"0":{"ha":690,"x_min":61,"x_max":629,"o":"m 346 -17 q 137 103 213 -17 q 61 446 61 224 q 137 786 61 669 q 346 903 213 903 q 553 786 478 903 q 629 446 629 669 q 553 103 629 224 q 346 -17 478 -17 m 346 75 q 471 163 424 75 q 518 446 518 251 q 471 726 518 640 q 346 811 424 811 q 220 726 268 811 q 172 446 172 640 q 220 163 172 251 q 346 75 268 75 z "},"1":{"ha":690,"x_min":110,"x_max":610,"o":"m 110 0 l 110 94 l 313 94 l 313 747 l 151 747 l 151 821 q 258 848 213 832 q 339 886 303 864 l 426 886 l 426 94 l 610 94 l 610 0 l 110 0 z "},"2":{"ha":690,"x_min":51,"x_max":628,"o":"m 56 0 l 56 69 q 282 301 189 200 q 424 483 375 401 q 472 636 472 565 q 431 761 472 713 q 304 810 389 810 q 201 778 249 810 q 115 703 154 747 l 51 765 q 170 865 107 828 q 318 903 233 903 q 513 831 442 903 q 583 643 583 760 q 535 472 583 557 q 404 294 488 388 q 213 90 321 201 q 288 96 249 93 q 361 99 326 99 l 628 99 l 628 0 l 56 0 z "},"3":{"ha":690,"x_min":36,"x_max":619,"o":"m 328 -17 q 151 22 222 -17 q 36 108 81 60 l 94 183 q 189 110 135 142 q 321 78 243 78 q 453 122 401 78 q 504 240 504 167 q 477 333 504 293 q 388 394 450 372 q 221 417 326 417 l 221 504 q 370 526 315 504 q 449 586 425 549 q 472 669 472 624 q 431 772 472 735 q 319 810 390 810 q 217 785 264 810 q 131 719 171 760 l 69 792 q 183 872 121 840 q 324 903 246 903 q 514 844 439 903 q 589 678 589 785 q 544 546 589 597 q 428 467 500 494 l 428 461 q 564 385 508 443 q 619 236 619 328 q 581 101 619 158 q 476 14 542 44 q 328 -17 410 -17 z "},"4":{"ha":690,"x_min":24,"x_max":651,"o":"m 144 336 l 422 336 l 422 593 q 425 679 422 629 q 429 764 428 729 l 424 764 q 389 701 407 732 q 351 639 371 671 l 144 336 m 422 0 l 422 244 l 24 244 l 24 319 l 403 886 l 531 886 l 531 336 l 651 336 l 651 244 l 531 244 l 531 0 l 422 0 z "},"5":{"ha":690,"x_min":35,"x_max":624,"o":"m 325 -17 q 150 21 219 -17 q 35 104 81 58 l 90 179 q 183 109 131 140 q 314 78 236 78 q 452 133 396 78 q 508 281 508 188 q 457 424 508 372 q 319 475 406 475 q 241 461 274 475 q 168 421 208 447 l 107 460 l 136 886 l 579 886 l 579 788 l 236 788 l 213 525 q 276 551 244 542 q 349 561 308 561 q 487 531 425 561 q 586 440 549 501 q 624 283 624 379 q 581 120 624 188 q 471 18 539 53 q 325 -17 403 -17 z "},"6":{"ha":690,"x_min":67,"x_max":635,"o":"m 363 456 q 269 428 319 456 q 178 339 219 400 q 238 142 189 210 q 372 74 288 74 q 482 127 438 74 q 526 268 526 181 q 485 405 526 354 q 363 456 444 456 m 372 -17 q 217 31 286 -17 q 107 173 147 78 q 67 410 67 268 q 115 696 67 588 q 240 853 163 804 q 404 903 317 903 q 528 876 476 903 q 618 808 581 849 l 554 738 q 489 788 528 769 q 408 807 450 807 q 294 772 346 807 q 210 653 243 736 q 175 431 178 571 q 272 512 217 482 q 382 542 328 542 q 566 473 497 542 q 635 268 635 404 q 599 119 635 183 q 503 19 563 56 q 372 -17 444 -17 z "},"7":{"ha":690,"x_min":61,"x_max":632,"o":"m 238 0 q 274 299 246 167 q 358 548 301 431 q 504 788 414 665 l 61 788 l 61 886 l 632 886 l 632 815 q 500 622 551 714 q 419 436 449 531 q 376 235 390 342 q 356 0 361 129 l 238 0 z "},"8":{"ha":690,"x_min":57,"x_max":633,"o":"m 347 -17 q 199 15 264 -17 q 95 101 133 46 q 57 226 57 157 q 81 330 57 285 q 144 409 106 375 q 224 465 182 443 l 224 471 q 138 556 175 506 q 100 675 100 606 q 133 794 100 743 q 224 874 167 846 q 351 903 281 903 q 534 836 467 903 q 601 667 601 769 q 582 580 601 621 q 535 506 563 539 q 479 453 507 474 l 479 447 q 554 394 519 425 q 611 322 589 364 q 633 219 633 279 q 598 100 633 154 q 498 15 563 46 q 347 -17 433 -17 m 410 483 q 478 568 454 524 q 503 661 503 613 q 463 772 503 726 q 349 818 422 818 q 247 779 288 818 q 206 675 206 740 q 234 588 206 622 q 310 528 263 553 q 410 483 357 504 m 350 68 q 476 112 428 68 q 524 224 524 156 q 490 317 524 281 q 402 379 457 353 q 283 431 347 406 q 195 347 231 396 q 160 238 160 299 q 215 116 160 164 q 350 68 269 68 z "},"9":{"ha":690,"x_min":56,"x_max":622,"o":"m 163 618 q 203 481 163 532 q 326 431 244 431 q 420 458 371 431 q 513 549 469 486 q 451 745 501 678 q 317 813 401 813 q 208 759 253 813 q 163 618 163 706 m 285 -17 q 160 10 214 -17 q 71 76 107 38 l 135 149 q 201 97 163 117 q 281 78 239 78 q 396 114 343 78 q 481 233 449 150 q 515 458 514 317 q 418 375 474 406 q 307 344 363 344 q 124 413 193 344 q 56 618 56 482 q 92 767 56 703 q 187 867 128 831 q 317 903 246 903 q 474 856 404 903 q 583 714 543 808 q 622 476 622 619 q 574 190 622 299 q 450 33 526 82 q 285 -17 374 -17 z "}," ":{"ha":278,"x_min":0,"x_max":0,"o":""}," ":{"ha":278,"x_min":0,"x_max":0,"o":""},"A":{"ha":756,"x_min":4,"x_max":751,"o":"m 282 510 l 239 371 l 513 371 l 469 510 q 422 662 444 586 q 378 817 400 738 l 372 817 q 329 662 351 738 q 282 510 307 586 m 4 0 l 313 911 l 443 911 l 751 0 l 628 0 l 542 278 l 210 278 l 122 0 l 4 0 z "},"B":{"ha":817,"x_min":125,"x_max":761,"o":"m 125 0 l 125 911 l 396 911 q 559 889 489 911 q 669 818 629 867 q 708 689 708 769 q 674 565 708 618 q 575 490 640 511 l 575 485 q 711 416 661 469 q 761 271 761 363 q 717 120 761 181 q 596 30 674 60 q 415 0 518 0 l 125 0 m 240 524 l 375 524 q 543 564 492 524 q 594 674 594 604 q 541 786 594 753 q 381 819 488 819 l 240 819 l 240 524 m 240 92 l 399 92 q 582 135 517 92 q 647 271 647 179 q 583 395 647 356 q 399 435 518 435 l 240 435 l 240 92 z "},"C":{"ha":793,"x_min":72,"x_max":747,"o":"m 471 -17 q 267 40 357 -17 q 124 201 176 96 q 72 456 72 307 q 125 708 72 603 q 269 871 178 814 q 476 928 361 928 q 623 895 558 928 q 726 815 688 863 l 664 744 q 581 805 628 783 q 478 826 535 826 q 328 781 393 826 q 228 654 264 736 q 192 458 192 572 q 227 260 192 344 q 327 131 263 176 q 479 85 392 85 q 594 109 543 85 q 688 181 644 133 l 747 114 q 626 17 692 51 q 471 -17 560 -17 z "},"D":{"ha":854,"x_min":125,"x_max":783,"o":"m 125 0 l 125 911 l 353 911 q 674 794 564 911 q 783 460 783 676 q 674 121 783 242 q 358 0 565 0 l 125 0 m 240 94 l 344 94 q 584 191 504 94 q 664 460 664 288 q 584 724 664 632 q 344 817 504 817 l 240 817 l 240 94 z "},"E":{"ha":732,"x_min":125,"x_max":664,"o":"m 125 0 l 125 911 l 650 911 l 650 814 l 240 814 l 240 528 l 586 528 l 586 429 l 240 429 l 240 99 l 664 99 l 664 0 l 125 0 z "},"F":{"ha":686,"x_min":125,"x_max":650,"o":"m 125 0 l 125 911 l 650 911 l 650 814 l 240 814 l 240 506 l 588 506 l 588 408 l 240 408 l 240 0 l 125 0 z "},"G":{"ha":857,"x_min":72,"x_max":764,"o":"m 483 -17 q 271 40 364 -17 q 125 201 178 96 q 72 456 72 307 q 126 708 72 603 q 275 871 181 814 q 490 928 369 928 q 649 893 585 928 q 753 815 714 858 l 689 743 q 608 803 654 779 q 493 826 563 826 q 333 781 401 826 q 228 654 265 736 q 192 458 192 572 q 270 185 192 286 q 494 85 349 85 q 588 99 543 85 q 658 139 632 114 l 658 376 l 465 376 l 465 472 l 764 472 l 764 89 q 648 13 721 43 q 483 -17 575 -17 z "},"H":{"ha":906,"x_min":125,"x_max":781,"o":"m 125 0 l 125 911 l 240 911 l 240 529 l 664 529 l 664 911 l 781 911 l 781 0 l 664 0 l 664 429 l 240 429 l 240 0 l 125 0 z "},"I":{"ha":365,"x_min":125,"x_max":240,"o":"m 125 0 l 125 911 l 240 911 l 240 0 l 125 0 z "},"J":{"ha":667,"x_min":46,"x_max":546,"o":"m 288 -17 q 46 131 121 -17 l 124 182 q 281 85 181 85 q 392 131 356 85 q 429 282 429 176 l 429 911 l 546 911 l 546 271 q 519 126 546 192 q 436 22 493 61 q 288 -17 379 -17 z "},"K":{"ha":804,"x_min":125,"x_max":799,"o":"m 125 0 l 125 911 l 240 911 l 240 454 l 244 454 l 624 911 l 754 911 l 469 564 l 799 0 l 669 0 l 397 474 l 240 289 l 240 0 l 125 0 z "},"L":{"ha":675,"x_min":125,"x_max":639,"o":"m 125 0 l 125 911 l 240 911 l 240 99 l 639 99 l 639 0 l 125 0 z "},"M":{"ha":1010,"x_min":125,"x_max":885,"o":"m 125 0 l 125 911 l 271 911 l 443 424 q 474 331 458 376 q 504 235 489 286 l 510 235 q 538 331 525 286 q 568 424 551 376 l 740 911 l 885 911 l 885 0 l 776 0 l 776 501 q 779 592 776 542 q 786 691 782 642 q 793 781 790 740 l 788 781 l 717 561 l 546 90 l 461 90 l 290 561 l 219 781 l 214 781 q 222 691 218 740 q 228 592 226 642 q 231 501 231 542 l 231 0 l 125 0 z "},"N":{"ha":899,"x_min":125,"x_max":774,"o":"m 125 0 l 125 911 l 251 911 l 575 344 q 626 249 601 299 q 672 149 650 199 l 678 149 q 667 293 672 219 q 663 438 663 367 l 663 911 l 774 911 l 774 0 l 647 0 l 324 567 q 272 663 297 613 q 225 763 247 713 l 219 763 q 231 622 226 694 q 235 476 235 550 l 235 0 l 125 0 z "},"O":{"ha":922,"x_min":72,"x_max":851,"o":"m 461 -17 q 259 42 347 -17 q 122 207 171 100 q 72 460 72 314 q 122 710 72 606 q 259 872 171 815 q 461 928 347 928 q 664 872 576 928 q 801 710 751 815 q 851 460 851 606 q 801 207 851 314 q 664 42 751 100 q 461 -17 576 -17 m 461 85 q 603 131 543 85 q 697 262 664 178 q 731 460 731 346 q 657 728 731 629 q 461 826 583 826 q 265 728 339 826 q 192 460 192 629 q 225 262 192 346 q 319 131 258 178 q 461 85 381 85 z "},"P":{"ha":786,"x_min":125,"x_max":726,"o":"m 125 0 l 125 911 l 385 911 q 564 886 488 911 q 683 802 640 861 q 726 643 726 743 q 633 431 726 500 q 390 361 540 361 l 240 361 l 240 0 l 125 0 m 240 456 l 376 456 q 553 501 496 456 q 611 643 611 546 q 551 780 611 742 q 371 818 490 818 l 240 818 l 240 456 z "},"Q":{"ha":922,"x_min":72,"x_max":871,"o":"m 461 79 q 603 126 543 79 q 697 258 664 172 q 731 460 731 343 q 657 728 731 629 q 461 826 583 826 q 265 728 339 826 q 192 460 192 629 q 225 258 192 343 q 319 126 258 172 q 461 79 381 79 m 740 -229 q 529 -167 614 -229 q 404 -12 444 -106 q 231 63 306 1 q 114 225 156 124 q 72 460 72 326 q 122 710 72 606 q 259 872 171 815 q 461 928 347 928 q 664 872 576 928 q 801 710 751 815 q 851 460 851 606 q 811 229 851 329 q 699 67 771 129 q 529 -11 626 6 q 620 -101 561 -71 q 753 -132 679 -132 q 807 -128 783 -132 q 849 -119 831 -125 l 871 -207 q 815 -223 850 -217 q 740 -229 781 -229 z "},"R":{"ha":790,"x_min":125,"x_max":756,"o":"m 125 0 l 125 911 l 410 911 q 575 887 503 911 q 688 806 647 863 q 729 656 729 750 q 674 485 729 550 q 524 397 618 421 l 756 0 l 625 0 l 406 385 l 240 385 l 240 0 l 125 0 m 240 479 l 393 479 q 557 523 500 479 q 614 656 614 567 q 557 782 614 746 q 393 818 500 818 l 240 818 l 240 479 z "},"S":{"ha":742,"x_min":58,"x_max":688,"o":"m 378 -17 q 199 19 281 -17 q 58 119 118 56 l 124 194 q 240 114 172 143 q 379 85 307 85 q 519 126 469 85 q 569 233 569 167 q 549 308 569 281 q 495 356 529 336 q 418 394 461 375 l 288 451 q 201 500 244 471 q 131 575 158 529 q 103 686 103 621 q 140 810 103 756 q 241 897 176 865 q 389 928 306 928 q 542 897 472 928 q 658 818 611 867 l 596 743 q 501 803 553 781 q 389 826 450 826 q 266 790 313 826 q 219 693 219 754 q 242 622 219 650 q 300 575 265 593 q 371 542 335 557 l 500 486 q 635 398 582 451 q 688 243 688 344 q 650 112 688 171 q 544 18 613 53 q 378 -17 475 -17 z "},"T":{"ha":744,"x_min":39,"x_max":706,"o":"m 314 0 l 314 814 l 39 814 l 39 911 l 706 911 l 706 814 l 431 814 l 431 0 l 314 0 z "},"U":{"ha":896,"x_min":121,"x_max":775,"o":"m 449 -17 q 281 20 356 -17 q 164 142 207 57 q 121 371 121 226 l 121 911 l 236 911 l 236 368 q 265 199 236 261 q 341 110 293 136 q 449 85 389 85 q 558 110 510 85 q 635 199 607 136 q 664 368 664 261 l 664 911 l 775 911 l 775 371 q 732 142 775 226 q 615 20 689 57 q 449 -17 542 -17 z "},"V":{"ha":715,"x_min":0,"x_max":715,"o":"m 286 0 l 0 911 l 124 911 l 264 419 q 308 269 288 338 q 353 118 329 200 l 358 118 q 401 269 382 200 q 446 419 421 338 l 597 911 l 715 911 l 421 0 l 286 0 z "},"W":{"ha":1092,"x_min":32,"x_max":1060,"o":"m 221 0 l 32 911 l 156 911 l 249 415 q 275 268 263 342 q 299 117 288 194 l 304 117 q 335 269 319 194 q 367 415 350 343 l 490 911 l 607 911 l 726 415 q 760 269 743 343 q 792 117 776 194 l 797 117 q 820 269 808 194 q 846 415 832 343 l 942 911 l 1060 911 l 869 0 l 721 0 l 590 547 q 569 651 579 600 q 549 761 560 701 l 543 761 q 524 651 535 701 q 503 547 514 600 l 369 0 l 221 0 z "},"X":{"ha":713,"x_min":21,"x_max":692,"o":"m 21 0 l 286 471 l 39 911 l 167 911 l 290 678 q 324 617 308 647 q 361 546 340 586 l 367 546 q 401 617 386 586 q 432 678 415 647 l 553 911 l 675 911 l 426 465 l 692 0 l 564 0 l 431 246 q 394 315 413 279 q 353 392 375 350 l 347 392 q 310 315 328 350 q 275 246 292 279 l 143 0 l 21 0 z "},"Y":{"ha":661,"x_min":-1,"x_max":663,"o":"m 272 0 l 272 353 l -1 911 l 122 911 l 240 654 q 284 556 263 604 q 328 456 306 507 l 333 456 q 381 556 357 507 q 425 654 404 604 l 542 911 l 663 911 l 389 353 l 389 0 l 272 0 z "},"Z":{"ha":749,"x_min":63,"x_max":690,"o":"m 63 0 l 63 69 l 542 814 l 106 814 l 106 911 l 686 911 l 686 843 l 206 99 l 690 99 l 690 0 l 63 0 z "},"a":{"ha":700,"x_min":71,"x_max":601,"o":"m 269 -17 q 128 33 185 -17 q 71 175 71 83 q 171 347 71 289 q 488 429 271 406 q 475 510 488 472 q 433 572 463 547 q 347 596 403 596 q 238 574 289 596 q 146 526 186 551 l 101 604 q 217 664 149 636 q 367 692 286 692 q 546 616 490 692 q 601 414 601 540 l 601 0 l 507 0 l 497 81 l 493 81 q 388 12 443 40 q 269 -17 333 -17 m 301 78 q 394 100 350 78 q 488 165 439 122 l 488 347 q 307 313 374 335 q 212 258 240 290 q 183 182 183 226 q 218 102 183 126 q 301 78 253 78 z "},"b":{"ha":768,"x_min":114,"x_max":704,"o":"m 413 -17 q 315 6 365 -17 q 219 69 264 29 l 215 69 l 206 0 l 114 0 l 114 989 l 228 989 l 228 719 l 225 597 q 326 665 271 638 q 436 692 381 692 q 636 599 568 692 q 704 349 704 506 q 663 151 704 233 q 556 26 622 69 q 413 -17 490 -17 m 393 79 q 531 151 476 79 q 586 347 586 222 q 545 527 586 458 q 408 596 504 596 q 321 572 365 596 q 228 504 276 549 l 228 150 q 316 95 272 111 q 393 79 360 79 z "},"c":{"ha":633,"x_min":64,"x_max":599,"o":"m 382 -17 q 219 25 292 -17 q 106 146 147 67 q 64 336 64 225 q 109 529 64 450 q 228 650 154 608 q 389 692 303 692 q 503 669 456 692 q 586 613 551 647 l 529 543 q 470 582 503 567 q 393 597 438 597 q 285 565 333 597 q 210 473 238 532 q 182 336 182 414 q 240 149 182 221 q 392 78 299 78 q 478 96 438 78 q 549 142 518 114 l 599 72 q 502 8 557 32 q 382 -17 447 -17 z "},"d":{"ha":771,"x_min":65,"x_max":657,"o":"m 344 -17 q 142 76 218 -17 q 65 336 65 168 q 106 526 65 446 q 215 649 147 606 q 358 692 282 692 q 460 671 417 692 q 547 614 503 650 l 542 729 l 542 989 l 657 989 l 657 0 l 563 0 l 553 79 l 549 79 q 457 12 510 40 q 344 -17 404 -17 m 369 79 q 542 172 458 79 l 542 525 q 459 580 499 564 q 378 596 419 596 q 280 563 324 596 q 210 473 236 531 q 183 338 183 415 q 232 148 183 217 q 369 79 281 79 z "},"e":{"ha":689,"x_min":63,"x_max":636,"o":"m 369 599 q 288 578 328 599 q 220 514 249 558 q 182 397 192 469 l 533 397 q 490 547 533 496 q 369 599 447 599 m 388 -17 q 223 25 297 -17 q 106 147 149 67 q 63 338 63 226 q 106 526 63 447 q 220 649 150 606 q 368 692 290 692 q 567 606 499 692 q 636 375 636 519 q 635 340 636 357 q 631 307 633 324 l 179 307 q 252 135 188 193 q 401 76 317 76 q 492 90 450 76 q 569 128 535 104 l 611 53 q 512 3 567 22 q 388 -17 457 -17 z "},"f":{"ha":406,"x_min":33,"x_max":443,"o":"m 133 0 l 133 582 l 33 582 l 33 668 l 133 675 l 133 782 q 181 945 133 885 q 331 1006 229 1006 q 392 999 363 1006 q 443 983 421 993 l 418 900 q 342 913 376 913 q 247 782 247 913 l 247 675 l 390 675 l 390 582 l 247 582 l 247 0 l 133 0 z "},"g":{"ha":700,"x_min":63,"x_max":683,"o":"m 342 -311 q 140 -264 218 -311 q 63 -129 63 -217 q 89 -47 63 -86 q 161 24 115 -7 l 161 29 q 119 72 136 44 q 101 139 101 100 q 125 214 101 182 q 175 264 149 246 l 175 269 q 115 344 142 297 q 88 451 88 392 q 122 579 88 525 q 215 663 157 633 q 342 692 274 692 q 394 687 369 692 q 438 675 419 682 l 672 675 l 672 588 l 532 588 l 532 582 q 572 526 556 560 q 589 447 589 493 q 556 324 589 376 q 467 242 522 271 q 342 214 411 214 q 240 238 288 214 q 210 203 222 222 q 197 157 197 185 q 223 104 197 125 q 317 83 249 83 l 447 83 q 624 45 565 83 q 683 -78 683 7 q 642 -193 683 -140 q 524 -278 600 -246 q 342 -311 447 -311 m 342 290 q 442 334 400 290 q 485 451 485 378 q 443 567 485 525 q 342 608 401 608 q 240 567 282 608 q 199 451 199 525 q 241 334 199 378 q 342 290 283 290 m 358 -232 q 514 -190 456 -232 q 572 -94 572 -147 q 537 -29 572 -47 q 436 -11 501 -11 l 319 -11 q 277 -8 300 -11 q 232 0 254 -6 q 179 -56 196 -26 q 163 -114 163 -85 q 215 -200 163 -168 q 358 -232 267 -232 z "},"h":{"ha":756,"x_min":114,"x_max":654,"o":"m 114 0 l 114 989 l 228 989 l 228 719 l 224 581 q 326 659 272 626 q 449 692 379 692 q 605 624 556 692 q 654 428 654 557 l 654 0 l 540 0 l 540 413 q 510 550 540 507 q 413 593 479 593 q 320 567 361 593 q 228 489 279 540 l 228 0 l 114 0 z "},"i":{"ha":342,"x_min":94,"x_max":247,"o":"m 114 0 l 114 675 l 228 675 l 228 0 l 114 0 m 171 814 q 116 834 138 814 q 94 889 94 854 q 116 943 94 922 q 171 964 138 964 q 226 943 204 964 q 247 889 247 922 q 226 834 247 854 q 171 814 204 814 z "},"j":{"ha":343,"x_min":-56,"x_max":247,"o":"m 44 -301 q -12 -296 14 -301 q -56 -282 -37 -290 l -32 -197 q -2 -205 -19 -201 q 32 -208 15 -208 q 99 -173 82 -208 q 115 -76 115 -137 l 115 675 l 229 675 l 229 -76 q 188 -240 229 -179 q 44 -301 146 -301 m 171 814 q 116 834 138 814 q 94 889 94 854 q 116 943 94 922 q 171 964 138 964 q 226 943 204 964 q 247 889 247 922 q 226 834 247 854 q 171 814 204 814 z "},"k":{"ha":688,"x_min":114,"x_max":675,"o":"m 114 0 l 114 989 l 228 989 l 228 321 l 231 321 l 517 675 l 644 675 l 419 403 l 675 0 l 550 0 l 353 325 l 228 178 l 228 0 l 114 0 z "},"l":{"ha":354,"x_min":114,"x_max":300,"o":"m 235 -12 q 142 27 171 -12 q 114 139 114 67 l 114 989 l 228 989 l 228 131 q 238 93 228 104 q 261 82 247 82 q 272 83 267 82 q 285 85 276 83 l 300 -1 q 235 -12 275 -12 z "},"m":{"ha":1151,"x_min":114,"x_max":1046,"o":"m 114 0 l 114 675 l 208 675 l 218 578 l 222 578 q 319 659 267 626 q 432 692 372 692 q 553 658 510 692 q 618 563 597 624 q 725 656 671 619 q 840 692 779 692 q 995 624 944 692 q 1046 428 1046 557 l 1046 0 l 932 0 l 932 413 q 901 550 932 507 q 807 593 871 593 q 638 489 732 593 l 638 0 l 524 0 l 524 413 q 493 550 524 507 q 397 593 463 593 q 228 489 322 593 l 228 0 l 114 0 z "},"n":{"ha":760,"x_min":114,"x_max":654,"o":"m 114 0 l 114 675 l 208 675 l 218 578 l 222 578 q 325 659 271 626 q 449 692 379 692 q 605 624 556 692 q 654 428 654 557 l 654 0 l 540 0 l 540 413 q 510 550 540 507 q 413 593 479 593 q 320 567 361 593 q 228 489 279 540 l 228 0 l 114 0 z "},"o":{"ha":753,"x_min":64,"x_max":689,"o":"m 376 -17 q 223 25 294 -17 q 108 146 151 67 q 64 336 64 225 q 108 529 64 450 q 223 650 151 608 q 376 692 294 692 q 531 650 460 692 q 645 529 601 608 q 689 336 689 450 q 645 146 689 225 q 531 25 601 67 q 376 -17 460 -17 m 376 78 q 517 149 464 78 q 571 336 571 221 q 517 525 571 453 q 376 597 464 597 q 236 525 290 597 q 182 336 182 453 q 236 149 182 221 q 376 78 290 78 z "},"p":{"ha":771,"x_min":114,"x_max":704,"o":"m 114 -285 l 114 675 l 208 675 l 218 597 l 222 597 q 323 664 268 636 q 438 692 378 692 q 636 598 568 692 q 704 347 704 504 q 663 151 704 233 q 556 26 622 69 q 413 -17 490 -17 q 319 4 365 -17 q 225 61 272 25 l 228 -57 l 228 -285 l 114 -285 m 393 79 q 531 151 476 79 q 586 347 586 222 q 545 527 586 458 q 408 596 504 596 q 322 572 365 596 q 228 504 278 549 l 228 150 q 317 95 274 111 q 393 79 360 79 z "},"q":{"ha":771,"x_min":65,"x_max":657,"o":"m 542 -285 l 542 -44 l 547 78 q 455 11 507 39 q 344 -17 403 -17 q 142 76 218 -17 q 65 336 65 168 q 106 526 65 446 q 215 649 147 606 q 358 692 282 692 q 461 672 417 692 q 551 611 506 651 l 554 611 l 565 675 l 657 675 l 657 -285 l 542 -285 m 369 79 q 542 172 458 79 l 542 525 q 459 580 499 564 q 378 596 419 596 q 280 563 324 596 q 210 473 236 531 q 183 338 183 415 q 232 148 183 217 q 369 79 281 79 z "},"r":{"ha":482,"x_min":114,"x_max":486,"o":"m 114 0 l 114 675 l 208 675 l 218 553 l 222 553 q 306 654 256 617 q 414 692 356 692 q 486 678 454 692 l 461 581 q 433 587 446 585 q 399 589 419 589 q 309 554 356 589 q 228 433 263 519 l 228 0 l 114 0 z "},"s":{"ha":582,"x_min":39,"x_max":538,"o":"m 290 -17 q 151 9 217 -17 q 39 81 86 35 l 92 147 q 184 92 136 111 q 294 72 232 72 q 394 103 361 72 q 428 178 428 135 q 406 235 428 213 q 349 274 383 258 q 275 304 314 290 q 179 347 225 322 q 105 408 133 371 q 76 500 76 444 q 138 637 76 582 q 310 692 200 692 q 426 670 372 692 q 519 615 481 649 l 467 550 q 394 589 432 575 q 310 603 356 603 q 216 574 246 603 q 186 506 186 544 q 226 436 186 460 q 329 390 267 413 q 430 347 382 372 q 508 284 478 322 q 538 185 538 246 q 509 85 538 131 q 426 11 481 39 q 290 -17 371 -17 z "},"t":{"ha":469,"x_min":33,"x_max":453,"o":"m 326 -12 q 176 49 218 -12 q 133 213 133 111 l 133 582 l 33 582 l 33 668 l 139 675 l 153 892 l 249 892 l 249 675 l 431 675 l 431 582 l 249 582 l 249 210 q 272 115 249 149 q 353 81 294 81 q 390 84 371 81 q 429 97 410 88 l 453 17 q 394 -5 426 3 q 326 -12 361 -12 z "},"u":{"ha":756,"x_min":104,"x_max":642,"o":"m 311 -17 q 154 51 204 -17 q 104 247 104 118 l 104 675 l 219 675 l 219 263 q 249 125 219 168 q 346 82 279 82 q 440 109 399 82 q 528 196 481 136 l 528 675 l 642 675 l 642 0 l 547 0 l 538 106 l 533 106 q 433 17 486 50 q 311 -17 381 -17 z "},"v":{"ha":649,"x_min":17,"x_max":632,"o":"m 260 0 l 17 675 l 135 675 l 263 292 q 294 192 278 242 q 325 93 310 142 l 331 93 q 362 192 346 142 q 392 292 378 242 l 519 675 l 632 675 l 393 0 l 260 0 z "},"w":{"ha":999,"x_min":33,"x_max":965,"o":"m 221 0 l 33 675 l 153 675 l 251 285 q 272 193 263 239 q 290 93 282 147 l 296 93 q 317 193 307 147 q 339 285 328 239 l 439 675 l 564 675 l 665 285 q 689 193 678 239 q 710 93 700 147 l 715 93 q 736 193 726 147 q 756 285 746 239 l 854 675 l 965 675 l 783 0 l 635 0 l 544 361 q 522 455 532 408 q 501 561 513 501 l 496 561 q 476 454 486 501 q 453 361 465 407 l 363 0 l 221 0 z "},"x":{"ha":619,"x_min":19,"x_max":600,"o":"m 19 0 l 240 353 l 36 675 l 160 675 l 250 526 q 282 471 265 500 q 317 414 299 442 l 322 414 q 353 471 338 442 q 383 526 368 500 l 465 675 l 585 675 l 381 340 l 600 0 l 476 0 l 378 157 q 342 218 360 188 q 304 278 324 249 l 299 278 q 264 219 281 249 q 231 157 247 189 l 139 0 l 19 0 z "},"y":{"ha":649,"x_min":17,"x_max":632,"o":"m 125 -290 q 83 -286 103 -290 q 46 -276 63 -282 l 71 -187 q 119 -196 96 -196 q 214 -155 176 -196 q 272 -51 251 -114 l 288 -1 l 17 675 l 135 675 l 272 301 q 305 208 288 258 q 338 111 322 158 l 343 111 q 372 207 358 157 q 400 301 386 257 l 521 675 l 632 675 l 378 -56 q 322 -175 354 -122 q 241 -259 289 -228 q 125 -290 193 -290 z "},"z":{"ha":590,"x_min":43,"x_max":554,"o":"m 43 0 l 43 61 l 399 582 l 82 582 l 82 675 l 543 675 l 543 614 l 188 93 l 554 93 l 554 0 l 43 0 z "},"À":{"ha":756,"x_min":4,"x_max":751,"o":"m 282 510 l 239 371 l 513 371 l 469 510 q 422 662 444 586 q 378 817 400 738 l 372 817 q 329 662 351 738 q 282 510 307 586 m 4 0 l 313 911 l 443 911 l 751 0 l 628 0 l 542 278 l 210 278 l 122 0 l 4 0 m 381 981 l 154 1156 l 160 1168 l 300 1168 l 483 981 l 381 981 z "},"Á":{"ha":756,"x_min":4,"x_max":751,"o":"m 282 510 l 239 371 l 513 371 l 469 510 q 422 662 444 586 q 378 817 400 738 l 372 817 q 329 662 351 738 q 282 510 307 586 m 4 0 l 313 911 l 443 911 l 751 0 l 628 0 l 542 278 l 210 278 l 122 0 l 4 0 m 269 981 l 453 1168 l 593 1168 l 599 1156 l 372 981 l 269 981 z "},"Â":{"ha":756,"x_min":4,"x_max":751,"o":"m 282 510 l 239 371 l 513 371 l 469 510 q 422 662 444 586 q 378 817 400 738 l 372 817 q 329 662 351 738 q 282 510 307 586 m 4 0 l 313 911 l 443 911 l 751 0 l 628 0 l 542 278 l 210 278 l 122 0 l 4 0 m 132 981 l 322 1168 l 431 1168 l 621 981 l 524 981 l 379 1093 l 374 1093 l 229 981 l 132 981 z "},"Ã":{"ha":756,"x_min":4,"x_max":751,"o":"m 282 510 l 239 371 l 513 371 l 469 510 q 422 662 444 586 q 378 817 400 738 l 372 817 q 329 662 351 738 q 282 510 307 586 m 4 0 l 313 911 l 443 911 l 751 0 l 628 0 l 542 278 l 210 278 l 122 0 l 4 0 m 481 985 q 413 999 442 985 q 363 1034 385 1014 q 321 1069 342 1054 q 275 1083 300 1083 q 231 1060 249 1083 q 208 992 213 1036 l 131 997 q 172 1122 135 1076 q 272 1168 210 1168 q 340 1153 311 1168 q 390 1119 368 1139 q 432 1084 411 1099 q 478 1069 453 1069 q 544 1161 533 1069 l 622 1156 q 581 1030 618 1075 q 481 985 543 985 z "},"Ä":{"ha":756,"x_min":4,"x_max":751,"o":"m 282 510 l 239 371 l 513 371 l 469 510 q 422 662 444 586 q 378 817 400 738 l 372 817 q 329 662 351 738 q 282 510 307 586 m 4 0 l 313 911 l 443 911 l 751 0 l 628 0 l 542 278 l 210 278 l 122 0 l 4 0 m 233 993 q 185 1013 204 993 q 165 1061 165 1032 q 185 1110 165 1092 q 233 1129 204 1129 q 283 1110 264 1129 q 301 1061 301 1092 q 283 1013 301 1032 q 233 993 264 993 m 519 993 q 470 1013 489 993 q 451 1061 451 1032 q 470 1110 451 1092 q 519 1129 489 1129 q 568 1110 549 1129 q 588 1061 588 1092 q 568 1013 588 1032 q 519 993 549 993 z "},"Å":{"ha":756,"x_min":4,"x_max":751,"o":"m 282 510 l 239 371 l 513 371 l 469 510 q 422 662 444 586 q 378 817 400 738 l 372 817 q 329 662 351 738 q 282 510 307 586 m 4 0 l 313 911 l 443 911 l 751 0 l 628 0 l 542 278 l 210 278 l 122 0 l 4 0 m 376 971 q 265 1004 307 971 q 222 1096 222 1038 q 265 1188 222 1154 q 376 1222 307 1222 q 488 1188 446 1222 q 531 1096 531 1154 q 488 1004 531 1038 q 376 971 446 971 m 376 1021 q 433 1040 411 1021 q 456 1096 456 1060 q 433 1153 456 1133 q 376 1172 411 1172 q 319 1153 342 1172 q 297 1096 297 1133 q 319 1040 297 1060 q 376 1021 342 1021 z "},"Ā":{"ha":756,"x_min":4,"x_max":751,"o":"m 282 510 l 239 371 l 513 371 l 469 510 q 422 662 444 586 q 378 817 400 738 l 372 817 q 329 662 351 738 q 282 510 307 586 m 4 0 l 313 911 l 443 911 l 751 0 l 628 0 l 542 278 l 210 278 l 122 0 l 4 0 m 189 1021 l 189 1100 l 564 1100 l 564 1021 l 189 1021 z "},"Ă":{"ha":756,"x_min":4,"x_max":751,"o":"m 282 510 l 239 371 l 513 371 l 469 510 q 422 662 444 586 q 378 817 400 738 l 372 817 q 329 662 351 738 q 282 510 307 586 m 4 0 l 313 911 l 443 911 l 751 0 l 628 0 l 542 278 l 210 278 l 122 0 l 4 0 m 376 981 q 231 1034 279 981 q 174 1160 182 1088 l 243 1171 q 284 1088 251 1122 q 376 1054 317 1054 q 469 1088 436 1054 q 510 1171 501 1122 l 579 1160 q 522 1034 571 1088 q 376 981 474 981 z "},"Ȧ":{"ha":756,"x_min":4,"x_max":751,"o":"m 282 510 l 239 371 l 513 371 l 469 510 q 422 662 444 586 q 378 817 400 738 l 372 817 q 329 662 351 738 q 282 510 307 586 m 4 0 l 313 911 l 443 911 l 751 0 l 628 0 l 542 278 l 210 278 l 122 0 l 4 0 m 376 992 q 320 1013 343 992 q 297 1067 297 1033 q 320 1119 297 1099 q 376 1140 343 1140 q 433 1119 410 1140 q 456 1067 456 1099 q 433 1013 456 1033 q 376 992 410 992 z "},"Ǎ":{"ha":756,"x_min":4,"x_max":751,"o":"m 282 510 l 239 371 l 513 371 l 469 510 q 422 662 444 586 q 378 817 400 738 l 372 817 q 329 662 351 738 q 282 510 307 586 m 4 0 l 313 911 l 443 911 l 751 0 l 628 0 l 542 278 l 210 278 l 122 0 l 4 0 m 322 983 l 132 1168 l 229 1168 l 374 1060 l 379 1060 l 524 1168 l 621 1168 l 431 983 l 322 983 z "},"Ȁ":{"ha":756,"x_min":4,"x_max":751,"o":"m 282 510 l 239 371 l 513 371 l 469 510 q 422 662 444 586 q 378 817 400 738 l 372 817 q 329 662 351 738 q 282 510 307 586 m 4 0 l 313 911 l 443 911 l 751 0 l 628 0 l 542 278 l 210 278 l 122 0 l 4 0 m 228 982 l 42 1156 l 49 1168 l 160 1168 l 308 982 l 228 982 m 488 982 l 301 1156 l 308 1168 l 421 1168 l 568 982 l 488 982 z "},"Ą":{"ha":756,"x_min":4,"x_max":811,"o":"m 282 510 l 239 371 l 513 371 l 469 510 q 422 662 444 586 q 378 817 400 738 l 372 817 q 329 662 351 738 q 282 510 307 586 m 686 -304 q 583 -272 626 -304 q 539 -176 539 -240 q 575 -72 539 -118 q 650 0 611 -25 l 628 0 l 542 278 l 210 278 l 122 0 l 4 0 l 313 911 l 443 911 l 751 0 q 667 -64 701 -22 q 633 -149 633 -106 q 656 -201 633 -185 q 708 -218 678 -218 q 779 -194 747 -218 l 811 -260 q 756 -291 789 -278 q 686 -304 722 -304 z "},"Ạ":{"ha":756,"x_min":4,"x_max":751,"o":"m 282 510 l 239 371 l 513 371 l 469 510 q 422 662 444 586 q 378 817 400 738 l 372 817 q 329 662 351 738 q 282 510 307 586 m 4 0 l 313 911 l 443 911 l 751 0 l 628 0 l 542 278 l 210 278 l 122 0 l 4 0 z "},"Ả":{"ha":756,"x_min":4,"x_max":751,"o":"m 282 510 l 239 371 l 513 371 l 469 510 q 422 662 444 586 q 378 817 400 738 l 372 817 q 329 662 351 738 q 282 510 307 586 m 4 0 l 313 911 l 443 911 l 751 0 l 628 0 l 542 278 l 210 278 l 122 0 l 4 0 m 332 974 l 319 1026 q 375 1051 353 1036 q 397 1092 397 1065 q 282 1156 397 1151 l 294 1224 q 435 1191 385 1221 q 486 1104 486 1161 q 440 1014 486 1043 q 332 974 393 985 z "},"Ấ":{"ha":756,"x_min":4,"x_max":751,"o":"m 282 510 l 239 371 l 513 371 l 469 510 q 422 662 444 586 q 378 817 400 738 l 372 817 q 329 662 351 738 q 282 510 307 586 m 4 0 l 313 911 l 443 911 l 751 0 l 628 0 l 542 278 l 210 278 l 122 0 l 4 0 m 160 981 l 326 1140 l 426 1140 l 593 981 l 500 981 l 379 1071 l 374 1071 l 253 981 l 160 981 m 504 1089 l 614 1243 l 714 1243 l 721 1231 l 576 1089 l 504 1089 z "},"Ầ":{"ha":756,"x_min":4,"x_max":751,"o":"m 282 510 l 239 371 l 513 371 l 469 510 q 422 662 444 586 q 378 817 400 738 l 372 817 q 329 662 351 738 q 282 510 307 586 m 4 0 l 313 911 l 443 911 l 751 0 l 628 0 l 542 278 l 210 278 l 122 0 l 4 0 m 160 981 l 326 1140 l 426 1140 l 593 981 l 500 981 l 379 1071 l 374 1071 l 253 981 l 160 981 m 176 1089 l 32 1231 l 39 1243 l 139 1243 l 249 1089 l 176 1089 z "},"Ẩ":{"ha":756,"x_min":4,"x_max":751,"o":"m 282 510 l 239 371 l 513 371 l 469 510 q 422 662 444 586 q 378 817 400 738 l 372 817 q 329 662 351 738 q 282 510 307 586 m 4 0 l 313 911 l 443 911 l 751 0 l 628 0 l 542 278 l 210 278 l 122 0 l 4 0 m 547 1075 l 535 1121 q 577 1140 560 1128 q 594 1174 594 1151 q 572 1213 594 1201 q 499 1228 550 1225 l 508 1286 q 675 1185 675 1279 q 638 1109 675 1135 q 547 1075 600 1083 m 160 983 l 326 1142 l 426 1142 l 593 983 l 500 983 l 379 1074 l 374 1074 l 253 983 l 160 983 z "},"Ẫ":{"ha":756,"x_min":4,"x_max":751,"o":"m 282 510 l 239 371 l 513 371 l 469 510 q 422 662 444 586 q 378 817 400 738 l 372 817 q 329 662 351 738 q 282 510 307 586 m 4 0 l 313 911 l 443 911 l 751 0 l 628 0 l 542 278 l 210 278 l 122 0 l 4 0 m 160 981 l 326 1135 l 426 1135 l 593 981 l 500 981 l 379 1067 l 374 1067 l 253 981 l 160 981 m 472 1171 q 395 1188 425 1171 q 341 1223 365 1206 q 285 1240 317 1240 q 249 1224 261 1240 q 232 1175 238 1207 l 167 1182 q 198 1272 172 1235 q 281 1310 224 1310 q 359 1292 329 1310 q 413 1258 389 1275 q 468 1240 438 1240 q 503 1257 492 1240 q 521 1304 515 1274 l 586 1299 q 555 1208 581 1244 q 472 1171 529 1171 z "},"Ậ":{"ha":756,"x_min":4,"x_max":751,"o":"m 282 510 l 239 371 l 513 371 l 469 510 q 422 662 444 586 q 378 817 400 738 l 372 817 q 329 662 351 738 q 282 510 307 586 m 4 0 l 313 911 l 443 911 l 751 0 l 628 0 l 542 278 l 210 278 l 122 0 l 4 0 m 132 981 l 322 1168 l 431 1168 l 621 981 l 524 981 l 379 1093 l 374 1093 l 229 981 l 132 981 z "},"Ắ":{"ha":756,"x_min":4,"x_max":751,"o":"m 282 510 l 239 371 l 513 371 l 469 510 q 422 662 444 586 q 378 817 400 738 l 372 817 q 329 662 351 738 q 282 510 307 586 m 4 0 l 313 911 l 443 911 l 751 0 l 628 0 l 542 278 l 210 278 l 122 0 l 4 0 m 376 981 q 231 1033 279 981 q 174 1158 182 1086 l 239 1169 q 281 1083 247 1118 q 376 1047 315 1047 q 472 1083 438 1047 q 514 1169 506 1118 l 579 1158 q 522 1033 571 1086 q 376 981 474 981 m 311 1153 l 421 1308 l 519 1308 l 526 1296 l 383 1153 l 311 1153 z "},"Ằ":{"ha":756,"x_min":4,"x_max":751,"o":"m 282 510 l 239 371 l 513 371 l 469 510 q 422 662 444 586 q 378 817 400 738 l 372 817 q 329 662 351 738 q 282 510 307 586 m 4 0 l 313 911 l 443 911 l 751 0 l 628 0 l 542 278 l 210 278 l 122 0 l 4 0 m 376 981 q 231 1033 279 981 q 174 1158 182 1086 l 239 1169 q 281 1083 247 1118 q 376 1047 315 1047 q 472 1083 438 1047 q 514 1169 506 1118 l 579 1158 q 522 1033 571 1086 q 376 981 474 981 m 369 1153 l 226 1296 l 233 1308 l 332 1308 l 442 1153 l 369 1153 z "},"Ẳ":{"ha":756,"x_min":4,"x_max":751,"o":"m 282 510 l 239 371 l 513 371 l 469 510 q 422 662 444 586 q 378 817 400 738 l 372 817 q 329 662 351 738 q 282 510 307 586 m 4 0 l 313 911 l 443 911 l 751 0 l 628 0 l 542 278 l 210 278 l 122 0 l 4 0 m 376 981 q 231 1033 279 981 q 174 1158 182 1086 l 239 1169 q 281 1083 247 1118 q 376 1047 315 1047 q 472 1083 438 1047 q 514 1169 506 1118 l 579 1158 q 522 1033 571 1086 q 376 981 474 981 m 346 1119 l 331 1168 q 374 1185 357 1175 q 392 1218 392 1196 q 369 1258 392 1246 q 294 1272 346 1269 l 307 1331 q 431 1303 388 1328 q 474 1229 474 1278 q 435 1152 474 1176 q 346 1119 396 1128 z "},"Ẵ":{"ha":756,"x_min":4,"x_max":751,"o":"m 282 510 l 239 371 l 513 371 l 469 510 q 422 662 444 586 q 378 817 400 738 l 372 817 q 329 662 351 738 q 282 510 307 586 m 4 0 l 313 911 l 443 911 l 751 0 l 628 0 l 542 278 l 210 278 l 122 0 l 4 0 m 376 981 q 231 1026 279 981 q 175 1131 183 1072 l 242 1142 q 283 1076 249 1104 q 376 1047 317 1047 q 471 1076 438 1047 q 511 1142 504 1104 l 578 1131 q 522 1026 569 1072 q 376 981 474 981 m 468 1171 q 393 1188 422 1171 q 341 1223 364 1206 q 288 1240 318 1240 q 254 1224 265 1240 q 238 1175 243 1207 l 172 1182 q 202 1274 176 1238 q 285 1310 228 1310 q 360 1292 332 1310 q 412 1258 389 1275 q 465 1240 435 1240 q 499 1257 489 1240 q 515 1304 510 1274 l 581 1299 q 551 1207 576 1243 q 468 1171 525 1171 z "},"Ặ":{"ha":756,"x_min":4,"x_max":751,"o":"m 282 510 l 239 371 l 513 371 l 469 510 q 422 662 444 586 q 378 817 400 738 l 372 817 q 329 662 351 738 q 282 510 307 586 m 4 0 l 313 911 l 443 911 l 751 0 l 628 0 l 542 278 l 210 278 l 122 0 l 4 0 m 376 981 q 231 1034 279 981 q 174 1160 182 1088 l 243 1171 q 284 1088 251 1122 q 376 1054 317 1054 q 469 1088 436 1054 q 510 1171 501 1122 l 579 1160 q 522 1034 571 1088 q 376 981 474 981 z "},"Ǻ":{"ha":756,"x_min":4,"x_max":751,"o":"m 282 510 l 239 371 l 513 371 l 469 510 q 422 662 444 586 q 378 817 400 738 l 372 817 q 329 662 351 738 q 282 510 307 586 m 4 0 l 313 911 l 443 911 l 751 0 l 628 0 l 542 278 l 210 278 l 122 0 l 4 0 m 376 971 q 263 1003 304 971 q 222 1090 222 1036 q 235 1144 222 1122 q 274 1189 247 1167 l 432 1318 l 544 1318 l 551 1306 l 399 1207 q 493 1174 456 1204 q 531 1090 531 1144 q 490 1003 531 1036 q 376 971 449 971 m 376 1021 q 433 1039 411 1021 q 456 1090 456 1057 q 433 1144 456 1126 q 376 1163 411 1163 q 319 1144 342 1163 q 297 1090 297 1126 q 319 1039 297 1057 q 376 1021 342 1021 z "},"Æ":{"ha":1142,"x_min":11,"x_max":1074,"o":"m 403 522 l 318 358 l 557 358 l 557 819 l 551 819 q 403 522 478 671 m 11 0 l 489 911 l 1060 911 l 1060 814 l 674 814 l 674 528 l 996 528 l 996 429 l 674 429 l 674 99 l 1074 99 l 1074 0 l 557 0 l 557 265 l 271 265 l 133 0 l 11 0 z "},"Ǽ":{"ha":1142,"x_min":11,"x_max":1074,"o":"m 403 522 l 318 358 l 557 358 l 557 819 l 551 819 q 403 522 478 671 m 11 0 l 489 911 l 1060 911 l 1060 814 l 674 814 l 674 528 l 996 528 l 996 429 l 674 429 l 674 99 l 1074 99 l 1074 0 l 557 0 l 557 265 l 271 265 l 133 0 l 11 0 m 674 981 l 857 1168 l 997 1168 l 1003 1156 l 776 981 l 674 981 z "},"Ǣ":{"ha":1142,"x_min":11,"x_max":1074,"o":"m 403 522 l 318 358 l 557 358 l 557 819 l 551 819 q 403 522 478 671 m 11 0 l 489 911 l 1060 911 l 1060 814 l 674 814 l 674 528 l 996 528 l 996 429 l 674 429 l 674 99 l 1074 99 l 1074 0 l 557 0 l 557 265 l 271 265 l 133 0 l 11 0 m 593 1021 l 593 1100 l 968 1100 l 968 1021 l 593 1021 z "},"Ⱥ":{"ha":754,"x_min":4,"x_max":751,"o":"m 249 -71 l 196 -57 l 296 278 l 210 278 l 122 0 l 4 0 l 313 911 l 443 911 l 465 847 l 504 981 l 557 967 l 494 758 l 751 0 l 628 0 l 542 278 l 353 278 l 249 -71 m 282 510 l 239 371 l 324 371 l 415 683 q 378 817 397 749 l 372 817 q 329 662 351 738 q 282 510 307 586 m 469 510 q 458 549 464 529 q 444 588 451 569 l 381 371 l 513 371 l 469 510 z "},"Ƀ":{"ha":840,"x_min":31,"x_max":789,"o":"m 153 0 l 153 233 l 31 233 l 31 315 l 153 322 l 153 911 l 422 911 q 650 860 563 911 q 738 692 738 808 q 698 573 738 625 q 578 500 658 521 l 578 494 q 733 423 678 478 q 789 272 789 368 q 744 120 789 181 q 622 30 700 60 q 443 0 544 0 l 153 0 m 268 532 l 403 532 q 571 569 518 532 q 624 683 624 607 q 569 788 624 757 q 408 819 514 819 l 268 819 l 268 532 m 268 92 l 426 92 q 610 136 543 92 q 676 278 676 181 q 611 406 676 367 q 426 446 546 446 l 268 446 l 268 322 l 479 322 l 479 233 l 268 233 l 268 92 z "},"Ɓ":{"ha":1033,"x_min":60,"x_max":978,"o":"m 490 524 l 594 524 q 761 565 710 524 q 813 679 813 607 q 753 794 813 760 q 575 829 693 829 l 492 829 l 490 829 l 490 524 m 375 0 l 375 818 q 215 738 265 797 q 164 599 164 678 q 190 494 164 535 q 271 424 217 453 l 221 344 q 103 439 147 379 q 60 596 60 499 q 110 767 60 693 q 265 885 160 842 q 539 928 371 928 q 829 872 733 928 q 925 693 925 817 q 891 566 925 621 q 792 490 857 511 l 792 485 q 928 416 878 469 q 978 271 978 363 q 934 120 978 181 q 813 30 890 60 q 635 0 736 0 l 375 0 m 490 92 l 618 92 q 800 135 735 92 q 865 271 865 179 q 801 395 865 356 q 618 435 738 435 l 490 435 l 490 92 z "},"Ḃ":{"ha":817,"x_min":125,"x_max":761,"o":"m 125 0 l 125 911 l 396 911 q 559 889 489 911 q 669 818 629 867 q 708 689 708 769 q 674 565 708 618 q 575 490 640 511 l 575 485 q 711 416 661 469 q 761 271 761 363 q 717 120 761 181 q 596 30 674 60 q 415 0 518 0 l 125 0 m 240 524 l 375 524 q 543 564 492 524 q 594 674 594 604 q 541 786 594 753 q 381 819 488 819 l 240 819 l 240 524 m 240 92 l 399 92 q 582 135 517 92 q 647 271 647 179 q 583 395 647 356 q 399 435 518 435 l 240 435 l 240 92 m 399 992 q 342 1013 365 992 q 319 1067 319 1033 q 342 1119 319 1099 q 399 1140 365 1140 q 455 1119 432 1140 q 478 1067 478 1099 q 455 1013 478 1033 q 399 992 432 992 z "},"Ḇ":{"ha":817,"x_min":125,"x_max":761,"o":"m 125 0 l 125 911 l 396 911 q 559 889 489 911 q 669 818 629 867 q 708 689 708 769 q 674 565 708 618 q 575 490 640 511 l 575 485 q 711 416 661 469 q 761 271 761 363 q 717 120 761 181 q 596 30 674 60 q 415 0 518 0 l 125 0 m 240 524 l 375 524 q 543 564 492 524 q 594 674 594 604 q 541 786 594 753 q 381 819 488 819 l 240 819 l 240 524 m 240 92 l 399 92 q 582 135 517 92 q 647 271 647 179 q 583 395 647 356 q 399 435 518 435 l 240 435 l 240 92 z "},"Ç":{"ha":793,"x_min":72,"x_max":747,"o":"m 471 -17 q 267 40 357 -17 q 124 201 176 96 q 72 456 72 307 q 125 708 72 603 q 269 871 178 814 q 476 928 361 928 q 623 895 558 928 q 726 815 688 863 l 664 744 q 581 805 628 783 q 478 826 535 826 q 328 781 393 826 q 228 654 264 736 q 192 458 192 572 q 227 260 192 344 q 327 131 263 176 q 479 85 392 85 q 594 109 543 85 q 688 181 644 133 l 747 114 q 626 17 692 51 q 471 -17 560 -17 m 357 -314 l 346 -258 q 465 -235 433 -251 q 497 -189 497 -219 q 474 -146 497 -161 q 390 -122 450 -131 l 451 4 l 525 4 l 485 -89 q 560 -122 533 -100 q 586 -187 586 -144 q 527 -278 586 -247 q 357 -314 468 -308 z "},"Ć":{"ha":793,"x_min":72,"x_max":747,"o":"m 471 -17 q 267 40 357 -17 q 124 201 176 96 q 72 456 72 307 q 125 708 72 603 q 269 871 178 814 q 476 928 361 928 q 623 895 558 928 q 726 815 688 863 l 664 744 q 581 805 628 783 q 478 826 535 826 q 328 781 393 826 q 228 654 264 736 q 192 458 192 572 q 227 260 192 344 q 327 131 263 176 q 479 85 392 85 q 594 109 543 85 q 688 181 644 133 l 747 114 q 626 17 692 51 q 471 -17 560 -17 m 353 981 l 536 1168 l 676 1168 l 682 1156 l 456 981 l 353 981 z "},"Ĉ":{"ha":793,"x_min":72,"x_max":747,"o":"m 471 -17 q 267 40 357 -17 q 124 201 176 96 q 72 456 72 307 q 125 708 72 603 q 269 871 178 814 q 476 928 361 928 q 623 895 558 928 q 726 815 688 863 l 664 744 q 581 805 628 783 q 478 826 535 826 q 328 781 393 826 q 228 654 264 736 q 192 458 192 572 q 227 260 192 344 q 327 131 263 176 q 479 85 392 85 q 594 109 543 85 q 688 181 644 133 l 747 114 q 626 17 692 51 q 471 -17 560 -17 m 215 981 l 406 1168 l 514 1168 l 704 981 l 607 981 l 463 1093 l 457 1093 l 313 981 l 215 981 z "},"Ċ":{"ha":793,"x_min":72,"x_max":747,"o":"m 471 -17 q 267 40 357 -17 q 124 201 176 96 q 72 456 72 307 q 125 708 72 603 q 269 871 178 814 q 476 928 361 928 q 623 895 558 928 q 726 815 688 863 l 664 744 q 581 805 628 783 q 478 826 535 826 q 328 781 393 826 q 228 654 264 736 q 192 458 192 572 q 227 260 192 344 q 327 131 263 176 q 479 85 392 85 q 594 109 543 85 q 688 181 644 133 l 747 114 q 626 17 692 51 q 471 -17 560 -17 m 460 992 q 403 1013 426 992 q 381 1067 381 1033 q 403 1119 381 1099 q 460 1140 426 1140 q 516 1119 493 1140 q 539 1067 539 1099 q 516 1013 539 1033 q 460 992 493 992 z "},"Č":{"ha":793,"x_min":72,"x_max":747,"o":"m 471 -17 q 267 40 357 -17 q 124 201 176 96 q 72 456 72 307 q 125 708 72 603 q 269 871 178 814 q 476 928 361 928 q 623 895 558 928 q 726 815 688 863 l 664 744 q 581 805 628 783 q 478 826 535 826 q 328 781 393 826 q 228 654 264 736 q 192 458 192 572 q 227 260 192 344 q 327 131 263 176 q 479 85 392 85 q 594 109 543 85 q 688 181 644 133 l 747 114 q 626 17 692 51 q 471 -17 560 -17 m 406 983 l 215 1168 l 313 1168 l 457 1060 l 463 1060 l 607 1168 l 704 1168 l 514 983 l 406 983 z "},"Ȼ":{"ha":793,"x_min":72,"x_max":747,"o":"m 300 -71 l 244 -57 l 274 35 q 127 197 182 89 q 72 456 72 304 q 125 708 72 603 q 269 871 178 814 q 476 928 361 928 q 554 919 517 928 l 574 981 l 629 967 l 608 901 q 674 864 644 886 q 726 815 704 842 l 664 744 q 578 806 626 785 l 358 113 q 479 85 411 85 q 594 109 543 85 q 688 181 644 133 l 747 114 q 626 17 692 51 q 471 -17 560 -17 q 396 -10 432 -17 q 325 10 360 -3 l 300 -71 m 192 458 q 222 272 192 353 q 308 144 253 192 l 524 822 q 478 826 501 826 q 328 781 393 826 q 228 654 264 736 q 192 458 192 572 z "},"Ḋ":{"ha":854,"x_min":125,"x_max":783,"o":"m 125 0 l 125 911 l 353 911 q 674 794 564 911 q 783 460 783 676 q 674 121 783 242 q 358 0 565 0 l 125 0 m 240 94 l 344 94 q 584 191 504 94 q 664 460 664 288 q 584 724 664 632 q 344 817 504 817 l 240 817 l 240 94 m 432 992 q 376 1013 399 992 q 353 1067 353 1033 q 376 1119 353 1099 q 432 1140 399 1140 q 488 1119 465 1140 q 511 1067 511 1099 q 488 1013 511 1033 q 432 992 465 992 z "},"Ď":{"ha":854,"x_min":125,"x_max":783,"o":"m 125 0 l 125 911 l 353 911 q 674 794 564 911 q 783 460 783 676 q 674 121 783 242 q 358 0 565 0 l 125 0 m 240 94 l 344 94 q 584 191 504 94 q 664 460 664 288 q 584 724 664 632 q 344 817 504 817 l 240 817 l 240 94 m 378 983 l 188 1168 l 285 1168 l 429 1060 l 435 1060 l 579 1168 l 676 1168 l 486 983 l 378 983 z "},"Ḍ":{"ha":854,"x_min":125,"x_max":783,"o":"m 125 0 l 125 911 l 353 911 q 674 794 564 911 q 783 460 783 676 q 674 121 783 242 q 358 0 565 0 l 125 0 m 240 94 l 344 94 q 584 191 504 94 q 664 460 664 288 q 584 724 664 632 q 344 817 504 817 l 240 817 l 240 94 z "},"Ḏ":{"ha":854,"x_min":125,"x_max":783,"o":"m 125 0 l 125 911 l 353 911 q 674 794 564 911 q 783 460 783 676 q 674 121 783 242 q 358 0 565 0 l 125 0 m 240 94 l 344 94 q 584 191 504 94 q 664 460 664 288 q 584 724 664 632 q 344 817 504 817 l 240 817 l 240 94 z "},"Ḑ":{"ha":854,"x_min":125,"x_max":783,"o":"m 125 0 l 125 911 l 353 911 q 674 794 564 911 q 783 460 783 676 q 674 121 783 242 q 358 0 565 0 l 125 0 m 240 94 l 344 94 q 584 191 504 94 q 664 460 664 288 q 584 724 664 632 q 344 817 504 817 l 240 817 l 240 94 m 256 -314 l 244 -258 q 364 -235 332 -251 q 396 -189 396 -219 q 372 -146 396 -161 q 289 -122 349 -131 l 350 4 l 424 4 l 383 -89 q 458 -122 432 -100 q 485 -187 485 -144 q 426 -278 485 -247 q 256 -314 367 -308 z "},"Đ":{"ha":882,"x_min":38,"x_max":817,"o":"m 158 0 l 158 435 l 38 435 l 38 518 l 158 525 l 158 911 l 386 911 q 707 794 597 911 q 817 460 817 676 q 708 121 817 242 q 392 0 599 0 l 158 0 m 274 94 l 378 94 q 617 191 538 94 q 697 460 697 288 q 617 724 697 632 q 378 817 538 817 l 274 817 l 274 525 l 481 525 l 481 435 l 274 435 l 274 94 z "},"Ɗ":{"ha":1082,"x_min":60,"x_max":1001,"o":"m 490 94 l 572 94 q 803 193 724 94 q 882 469 882 292 q 800 733 882 640 q 536 826 718 826 l 492 826 l 490 826 l 490 94 m 375 0 l 375 817 q 215 735 265 794 q 164 599 164 676 q 190 494 164 535 q 271 424 217 453 l 221 344 q 103 439 147 379 q 60 596 60 499 q 108 767 60 693 q 262 885 157 842 q 533 928 367 928 q 888 808 774 928 q 1001 469 1001 689 q 891 123 1001 246 q 575 0 781 0 l 375 0 z "},"È":{"ha":732,"x_min":125,"x_max":664,"o":"m 125 0 l 125 911 l 650 911 l 650 814 l 240 814 l 240 528 l 586 528 l 586 429 l 240 429 l 240 99 l 664 99 l 664 0 l 125 0 m 407 981 l 181 1156 l 186 1168 l 326 1168 l 510 981 l 407 981 z "},"É":{"ha":732,"x_min":125,"x_max":664,"o":"m 125 0 l 125 911 l 650 911 l 650 814 l 240 814 l 240 528 l 586 528 l 586 429 l 240 429 l 240 99 l 664 99 l 664 0 l 125 0 m 296 981 l 479 1168 l 619 1168 l 625 1156 l 399 981 l 296 981 z "},"Ê":{"ha":732,"x_min":125,"x_max":664,"o":"m 125 0 l 125 911 l 650 911 l 650 814 l 240 814 l 240 528 l 586 528 l 586 429 l 240 429 l 240 99 l 664 99 l 664 0 l 125 0 m 158 981 l 349 1168 l 457 1168 l 647 981 l 550 981 l 406 1093 l 400 1093 l 256 981 l 158 981 z "},"Ẽ":{"ha":732,"x_min":125,"x_max":664,"o":"m 125 0 l 125 911 l 650 911 l 650 814 l 240 814 l 240 528 l 586 528 l 586 429 l 240 429 l 240 99 l 664 99 l 664 0 l 125 0 m 507 985 q 440 999 468 985 q 390 1034 411 1014 q 347 1069 368 1054 q 301 1083 326 1083 q 257 1060 275 1083 q 235 992 239 1036 l 157 997 q 199 1122 161 1076 q 299 1168 236 1168 q 366 1153 338 1168 q 416 1119 394 1139 q 458 1084 438 1099 q 504 1069 479 1069 q 571 1161 560 1069 l 649 1156 q 607 1030 644 1075 q 507 985 569 985 z "},"Ë":{"ha":732,"x_min":125,"x_max":664,"o":"m 125 0 l 125 911 l 650 911 l 650 814 l 240 814 l 240 528 l 586 528 l 586 429 l 240 429 l 240 99 l 664 99 l 664 0 l 125 0 m 260 993 q 211 1013 231 993 q 192 1061 192 1032 q 211 1110 192 1092 q 260 1129 231 1129 q 309 1110 290 1129 q 328 1061 328 1092 q 309 1013 328 1032 q 260 993 290 993 m 546 993 q 497 1013 515 993 q 478 1061 478 1032 q 497 1110 478 1092 q 546 1129 515 1129 q 594 1110 575 1129 q 614 1061 614 1092 q 594 1013 614 1032 q 546 993 575 993 z "},"Ē":{"ha":732,"x_min":125,"x_max":664,"o":"m 125 0 l 125 911 l 650 911 l 650 814 l 240 814 l 240 528 l 586 528 l 586 429 l 240 429 l 240 99 l 664 99 l 664 0 l 125 0 m 215 1021 l 215 1100 l 590 1100 l 590 1021 l 215 1021 z "},"Ĕ":{"ha":732,"x_min":125,"x_max":664,"o":"m 125 0 l 125 911 l 650 911 l 650 814 l 240 814 l 240 528 l 586 528 l 586 429 l 240 429 l 240 99 l 664 99 l 664 0 l 125 0 m 403 981 q 257 1034 306 981 q 200 1160 208 1088 l 269 1171 q 310 1088 278 1122 q 403 1054 343 1054 q 495 1088 463 1054 q 536 1171 528 1122 l 606 1160 q 549 1034 597 1088 q 403 981 500 981 z "},"Ė":{"ha":732,"x_min":125,"x_max":664,"o":"m 125 0 l 125 911 l 650 911 l 650 814 l 240 814 l 240 528 l 586 528 l 586 429 l 240 429 l 240 99 l 664 99 l 664 0 l 125 0 m 403 992 q 347 1013 369 992 q 324 1067 324 1033 q 347 1119 324 1099 q 403 1140 369 1140 q 459 1119 436 1140 q 482 1067 482 1099 q 459 1013 482 1033 q 403 992 436 992 z "},"Ě":{"ha":732,"x_min":125,"x_max":664,"o":"m 125 0 l 125 911 l 650 911 l 650 814 l 240 814 l 240 528 l 586 528 l 586 429 l 240 429 l 240 99 l 664 99 l 664 0 l 125 0 m 349 983 l 158 1168 l 256 1168 l 400 1060 l 406 1060 l 550 1168 l 647 1168 l 457 983 l 349 983 z "},"Ȅ":{"ha":732,"x_min":68,"x_max":664,"o":"m 125 0 l 125 911 l 650 911 l 650 814 l 240 814 l 240 528 l 586 528 l 586 429 l 240 429 l 240 99 l 664 99 l 664 0 l 125 0 m 254 982 l 68 1156 l 75 1168 l 186 1168 l 335 982 l 254 982 m 514 982 l 328 1156 l 335 1168 l 447 1168 l 594 982 l 514 982 z "},"Ę":{"ha":732,"x_min":125,"x_max":697,"o":"m 572 -304 q 469 -272 513 -304 q 426 -176 426 -240 q 460 -72 426 -118 q 538 0 494 -26 l 125 0 l 125 911 l 650 911 l 650 814 l 240 814 l 240 528 l 586 528 l 586 429 l 240 429 l 240 99 l 664 99 l 664 0 l 656 0 q 597 -22 628 0 q 543 -78 565 -44 q 521 -149 521 -112 q 543 -201 521 -185 q 594 -218 565 -218 q 665 -194 633 -218 l 697 -260 q 642 -291 675 -278 q 572 -304 608 -304 z "},"Ẹ":{"ha":732,"x_min":125,"x_max":664,"o":"m 125 0 l 125 911 l 650 911 l 650 814 l 240 814 l 240 528 l 586 528 l 586 429 l 240 429 l 240 99 l 664 99 l 664 0 l 125 0 z "},"Ẻ":{"ha":732,"x_min":125,"x_max":664,"o":"m 125 0 l 125 911 l 650 911 l 650 814 l 240 814 l 240 528 l 586 528 l 586 429 l 240 429 l 240 99 l 664 99 l 664 0 l 125 0 m 358 974 l 346 1026 q 401 1051 379 1036 q 424 1092 424 1065 q 308 1156 424 1151 l 321 1224 q 462 1191 411 1221 q 513 1104 513 1161 q 466 1014 513 1043 q 358 974 419 985 z "},"Ế":{"ha":732,"x_min":125,"x_max":747,"o":"m 125 0 l 125 911 l 650 911 l 650 814 l 240 814 l 240 528 l 586 528 l 586 429 l 240 429 l 240 99 l 664 99 l 664 0 l 125 0 m 186 981 l 353 1140 l 453 1140 l 619 981 l 526 981 l 406 1071 l 400 1071 l 279 981 l 186 981 m 531 1089 l 640 1243 l 740 1243 l 747 1231 l 603 1089 l 531 1089 z "},"Ề":{"ha":732,"x_min":58,"x_max":664,"o":"m 125 0 l 125 911 l 650 911 l 650 814 l 240 814 l 240 528 l 586 528 l 586 429 l 240 429 l 240 99 l 664 99 l 664 0 l 125 0 m 186 981 l 353 1140 l 453 1140 l 619 981 l 526 981 l 406 1071 l 400 1071 l 279 981 l 186 981 m 203 1089 l 58 1231 l 65 1243 l 165 1243 l 275 1089 l 203 1089 z "},"Ể":{"ha":732,"x_min":125,"x_max":701,"o":"m 125 0 l 125 911 l 650 911 l 650 814 l 240 814 l 240 528 l 586 528 l 586 429 l 240 429 l 240 99 l 664 99 l 664 0 l 125 0 m 574 1075 l 561 1121 q 603 1140 586 1128 q 621 1174 621 1151 q 599 1213 621 1201 q 525 1228 576 1225 l 535 1286 q 701 1185 701 1279 q 664 1109 701 1135 q 574 1075 626 1083 m 186 983 l 353 1142 l 453 1142 l 619 983 l 526 983 l 406 1074 l 400 1074 l 279 983 l 186 983 z "},"Ễ":{"ha":732,"x_min":125,"x_max":664,"o":"m 125 0 l 125 911 l 650 911 l 650 814 l 240 814 l 240 528 l 586 528 l 586 429 l 240 429 l 240 99 l 664 99 l 664 0 l 125 0 m 186 981 l 353 1135 l 453 1135 l 619 981 l 526 981 l 406 1067 l 400 1067 l 279 981 l 186 981 m 499 1171 q 422 1188 451 1171 q 367 1223 392 1206 q 311 1240 343 1240 q 276 1224 288 1240 q 258 1175 264 1207 l 193 1182 q 224 1272 199 1235 q 307 1310 250 1310 q 385 1292 356 1310 q 440 1258 415 1275 q 494 1240 464 1240 q 530 1257 518 1240 q 547 1304 542 1274 l 613 1299 q 581 1208 607 1244 q 499 1171 556 1171 z "},"Ệ":{"ha":732,"x_min":125,"x_max":664,"o":"m 125 0 l 125 911 l 650 911 l 650 814 l 240 814 l 240 528 l 586 528 l 586 429 l 240 429 l 240 99 l 664 99 l 664 0 l 125 0 m 158 981 l 349 1168 l 457 1168 l 647 981 l 550 981 l 406 1093 l 400 1093 l 256 981 l 158 981 z "},"Ḗ":{"ha":732,"x_min":125,"x_max":664,"o":"m 125 0 l 125 911 l 650 911 l 650 814 l 240 814 l 240 528 l 586 528 l 586 429 l 240 429 l 240 99 l 664 99 l 664 0 l 125 0 m 215 1021 l 215 1100 l 590 1100 l 590 1021 l 215 1021 m 318 1160 l 447 1318 l 557 1318 l 564 1306 l 400 1160 l 318 1160 z "},"Ǝ":{"ha":732,"x_min":68,"x_max":607,"o":"m 68 0 l 68 99 l 492 99 l 492 429 l 146 429 l 146 528 l 492 528 l 492 814 l 82 814 l 82 911 l 607 911 l 607 0 l 68 0 z "},"Ɛ":{"ha":754,"x_min":58,"x_max":711,"o":"m 404 -17 q 227 15 306 -17 q 103 108 149 47 q 58 258 58 169 q 114 410 58 353 q 247 483 169 467 l 247 489 q 145 568 183 515 q 107 697 107 621 q 147 824 107 772 q 256 901 188 875 q 407 928 324 928 q 553 897 485 928 q 669 819 622 867 l 614 746 q 523 805 575 783 q 410 826 471 826 q 274 790 328 826 q 221 681 221 753 q 273 564 221 604 q 439 524 325 524 l 521 524 l 521 435 l 418 435 q 237 394 301 435 q 172 264 172 353 q 205 167 172 207 q 292 106 238 126 q 413 85 346 85 q 542 106 486 85 q 651 179 597 128 l 711 110 q 578 13 649 43 q 404 -17 507 -17 z "},"Ḟ":{"ha":686,"x_min":125,"x_max":650,"o":"m 125 0 l 125 911 l 650 911 l 650 814 l 240 814 l 240 506 l 588 506 l 588 408 l 240 408 l 240 0 l 125 0 m 397 992 q 341 1013 364 992 q 318 1067 318 1033 q 341 1119 318 1099 q 397 1140 364 1140 q 453 1119 431 1140 q 476 1067 476 1099 q 453 1013 476 1033 q 397 992 431 992 z "},"Ǵ":{"ha":857,"x_min":72,"x_max":764,"o":"m 483 -17 q 271 40 364 -17 q 125 201 178 96 q 72 456 72 307 q 126 708 72 603 q 275 871 181 814 q 490 928 369 928 q 649 893 585 928 q 753 815 714 858 l 689 743 q 608 803 654 779 q 493 826 563 826 q 333 781 401 826 q 228 654 265 736 q 192 458 192 572 q 270 185 192 286 q 494 85 349 85 q 588 99 543 85 q 658 139 632 114 l 658 376 l 465 376 l 465 472 l 764 472 l 764 89 q 648 13 721 43 q 483 -17 575 -17 m 381 981 l 564 1168 l 704 1168 l 710 1156 l 483 981 l 381 981 z "},"Ĝ":{"ha":857,"x_min":72,"x_max":764,"o":"m 483 -17 q 271 40 364 -17 q 125 201 178 96 q 72 456 72 307 q 126 708 72 603 q 275 871 181 814 q 490 928 369 928 q 649 893 585 928 q 753 815 714 858 l 689 743 q 608 803 654 779 q 493 826 563 826 q 333 781 401 826 q 228 654 265 736 q 192 458 192 572 q 270 185 192 286 q 494 85 349 85 q 588 99 543 85 q 658 139 632 114 l 658 376 l 465 376 l 465 472 l 764 472 l 764 89 q 648 13 721 43 q 483 -17 575 -17 m 243 981 l 433 1168 l 542 1168 l 732 981 l 635 981 l 490 1093 l 485 1093 l 340 981 l 243 981 z "},"Ḡ":{"ha":857,"x_min":72,"x_max":764,"o":"m 483 -17 q 271 40 364 -17 q 125 201 178 96 q 72 456 72 307 q 126 708 72 603 q 275 871 181 814 q 490 928 369 928 q 649 893 585 928 q 753 815 714 858 l 689 743 q 608 803 654 779 q 493 826 563 826 q 333 781 401 826 q 228 654 265 736 q 192 458 192 572 q 270 185 192 286 q 494 85 349 85 q 588 99 543 85 q 658 139 632 114 l 658 376 l 465 376 l 465 472 l 764 472 l 764 89 q 648 13 721 43 q 483 -17 575 -17 m 300 1021 l 300 1100 l 675 1100 l 675 1021 l 300 1021 z "},"Ğ":{"ha":857,"x_min":72,"x_max":764,"o":"m 483 -17 q 271 40 364 -17 q 125 201 178 96 q 72 456 72 307 q 126 708 72 603 q 275 871 181 814 q 490 928 369 928 q 649 893 585 928 q 753 815 714 858 l 689 743 q 608 803 654 779 q 493 826 563 826 q 333 781 401 826 q 228 654 265 736 q 192 458 192 572 q 270 185 192 286 q 494 85 349 85 q 588 99 543 85 q 658 139 632 114 l 658 376 l 465 376 l 465 472 l 764 472 l 764 89 q 648 13 721 43 q 483 -17 575 -17 m 488 981 q 342 1034 390 981 q 285 1160 293 1088 l 354 1171 q 395 1088 363 1122 q 488 1054 428 1054 q 580 1088 547 1054 q 621 1171 613 1122 l 690 1160 q 633 1034 682 1088 q 488 981 585 981 z "},"Ġ":{"ha":857,"x_min":72,"x_max":764,"o":"m 483 -17 q 271 40 364 -17 q 125 201 178 96 q 72 456 72 307 q 126 708 72 603 q 275 871 181 814 q 490 928 369 928 q 649 893 585 928 q 753 815 714 858 l 689 743 q 608 803 654 779 q 493 826 563 826 q 333 781 401 826 q 228 654 265 736 q 192 458 192 572 q 270 185 192 286 q 494 85 349 85 q 588 99 543 85 q 658 139 632 114 l 658 376 l 465 376 l 465 472 l 764 472 l 764 89 q 648 13 721 43 q 483 -17 575 -17 m 488 992 q 431 1013 454 992 q 408 1067 408 1033 q 431 1119 408 1099 q 488 1140 454 1140 q 544 1119 521 1140 q 567 1067 567 1099 q 544 1013 567 1033 q 488 992 521 992 z "},"Ǧ":{"ha":857,"x_min":72,"x_max":764,"o":"m 483 -17 q 271 40 364 -17 q 125 201 178 96 q 72 456 72 307 q 126 708 72 603 q 275 871 181 814 q 490 928 369 928 q 649 893 585 928 q 753 815 714 858 l 689 743 q 608 803 654 779 q 493 826 563 826 q 333 781 401 826 q 228 654 265 736 q 192 458 192 572 q 270 185 192 286 q 494 85 349 85 q 588 99 543 85 q 658 139 632 114 l 658 376 l 465 376 l 465 472 l 764 472 l 764 89 q 648 13 721 43 q 483 -17 575 -17 m 433 983 l 243 1168 l 340 1168 l 485 1060 l 490 1060 l 635 1168 l 732 1168 l 542 983 l 433 983 z "},"Ģ":{"ha":857,"x_min":72,"x_max":764,"o":"m 483 -17 q 271 40 364 -17 q 125 201 178 96 q 72 456 72 307 q 126 708 72 603 q 275 871 181 814 q 490 928 369 928 q 649 893 585 928 q 753 815 714 858 l 689 743 q 608 803 654 779 q 493 826 563 826 q 333 781 401 826 q 228 654 265 736 q 192 458 192 572 q 270 185 192 286 q 494 85 349 85 q 588 99 543 85 q 658 139 632 114 l 658 376 l 465 376 l 465 472 l 764 472 l 764 89 q 648 13 721 43 q 483 -17 575 -17 m 367 -314 l 356 -258 q 475 -235 443 -251 q 507 -192 507 -219 q 482 -151 507 -164 q 408 -133 457 -137 l 433 -81 q 560 -115 524 -90 q 596 -187 596 -140 q 537 -278 596 -247 q 367 -314 478 -308 z "},"Ǥ":{"ha":917,"x_min":72,"x_max":882,"o":"m 483 -17 q 271 40 364 -17 q 125 201 178 96 q 72 456 72 307 q 126 708 72 603 q 275 871 181 814 q 490 928 369 928 q 649 893 585 928 q 753 815 714 858 l 689 743 q 608 803 654 779 q 493 826 563 826 q 333 781 401 826 q 228 654 265 736 q 192 458 192 572 q 270 186 192 286 q 494 86 349 86 q 588 99 543 86 q 658 139 632 113 l 658 267 l 465 267 l 465 350 l 658 357 l 658 472 l 765 472 l 765 357 l 882 357 l 882 267 l 765 267 l 765 89 q 648 13 721 43 q 483 -17 575 -17 z "},"Ɠ":{"ha":857,"x_min":72,"x_max":839,"o":"m 483 -17 q 271 40 364 -17 q 125 201 178 96 q 72 456 72 307 q 126 708 72 603 q 275 871 181 814 q 490 928 369 928 q 621 904 558 928 q 603 947 607 929 q 599 982 599 965 q 641 1076 599 1039 q 747 1114 683 1114 q 799 1108 776 1114 q 839 1092 821 1103 l 815 1011 q 765 1024 793 1024 q 713 1003 732 1024 q 694 950 694 982 q 710 897 694 918 q 753 839 726 875 l 689 763 q 608 808 654 789 q 493 826 563 826 q 333 781 401 826 q 228 654 265 736 q 192 458 192 572 q 270 185 192 286 q 494 85 349 85 q 588 99 543 85 q 658 139 632 114 l 658 376 l 465 376 l 465 472 l 764 472 l 764 89 q 648 13 721 43 q 483 -17 575 -17 z "},"Ĥ":{"ha":906,"x_min":125,"x_max":781,"o":"m 125 0 l 125 911 l 240 911 l 240 529 l 664 529 l 664 911 l 781 911 l 781 0 l 664 0 l 664 429 l 240 429 l 240 0 l 125 0 m 207 981 l 397 1168 l 506 1168 l 696 981 l 599 981 l 454 1093 l 449 1093 l 304 981 l 207 981 z "},"Ḧ":{"ha":906,"x_min":125,"x_max":781,"o":"m 125 0 l 125 911 l 240 911 l 240 529 l 664 529 l 664 911 l 781 911 l 781 0 l 664 0 l 664 429 l 240 429 l 240 0 l 125 0 m 308 993 q 260 1013 279 993 q 240 1061 240 1032 q 260 1110 240 1092 q 308 1129 279 1129 q 358 1110 339 1129 q 376 1061 376 1092 q 358 1013 376 1032 q 308 993 339 993 m 594 993 q 545 1013 564 993 q 526 1061 526 1032 q 545 1110 526 1092 q 594 1129 564 1129 q 643 1110 624 1129 q 663 1061 663 1092 q 643 1013 663 1032 q 594 993 624 993 z "},"Ḣ":{"ha":906,"x_min":125,"x_max":781,"o":"m 125 0 l 125 911 l 240 911 l 240 529 l 664 529 l 664 911 l 781 911 l 781 0 l 664 0 l 664 429 l 240 429 l 240 0 l 125 0 m 451 992 q 395 1013 418 992 q 372 1067 372 1033 q 395 1119 372 1099 q 451 1140 418 1140 q 508 1119 485 1140 q 531 1067 531 1099 q 508 1013 531 1033 q 451 992 485 992 z "},"Ȟ":{"ha":906,"x_min":125,"x_max":781,"o":"m 125 0 l 125 911 l 240 911 l 240 529 l 664 529 l 664 911 l 781 911 l 781 0 l 664 0 l 664 429 l 240 429 l 240 0 l 125 0 m 397 983 l 207 1168 l 304 1168 l 449 1060 l 454 1060 l 599 1168 l 696 1168 l 506 983 l 397 983 z "},"Ḥ":{"ha":906,"x_min":125,"x_max":781,"o":"m 125 0 l 125 911 l 240 911 l 240 529 l 664 529 l 664 911 l 781 911 l 781 0 l 664 0 l 664 429 l 240 429 l 240 0 l 125 0 z "},"Ḩ":{"ha":906,"x_min":51,"x_max":781,"o":"m 125 0 l 125 911 l 240 911 l 240 529 l 664 529 l 664 911 l 781 911 l 781 0 l 664 0 l 664 429 l 240 429 l 240 0 l 125 0 m 63 -314 l 51 -258 q 171 -235 139 -251 q 203 -189 203 -219 q 179 -146 203 -161 q 96 -122 156 -131 l 157 4 l 231 4 l 190 -89 q 265 -122 239 -100 q 292 -187 292 -144 q 233 -278 292 -247 q 63 -314 174 -308 z "},"Ḫ":{"ha":906,"x_min":125,"x_max":781,"o":"m 125 0 l 125 911 l 240 911 l 240 529 l 664 529 l 664 911 l 781 911 l 781 0 l 664 0 l 664 429 l 240 429 l 240 0 l 125 0 z "},"Ħ":{"ha":961,"x_min":31,"x_max":926,"o":"m 153 0 l 153 672 l 31 672 l 31 754 l 153 763 l 153 911 l 268 911 l 268 763 l 692 763 l 692 911 l 808 911 l 808 763 l 926 763 l 926 672 l 808 672 l 808 0 l 692 0 l 692 429 l 268 429 l 268 0 l 153 0 m 268 529 l 692 529 l 692 672 l 268 672 l 268 529 z "},"Ì":{"ha":365,"x_min":-39,"x_max":290,"o":"m 125 0 l 125 911 l 240 911 l 240 0 l 125 0 m 188 981 l -39 1156 l -33 1168 l 107 1168 l 290 981 l 188 981 z "},"Í":{"ha":365,"x_min":76,"x_max":406,"o":"m 125 0 l 125 911 l 240 911 l 240 0 l 125 0 m 76 981 l 260 1168 l 400 1168 l 406 1156 l 179 981 l 76 981 z "},"Î":{"ha":365,"x_min":-61,"x_max":428,"o":"m 125 0 l 125 911 l 240 911 l 240 0 l 125 0 m -61 981 l 129 1168 l 238 1168 l 428 981 l 331 981 l 186 1093 l 181 1093 l 36 981 l -61 981 z "},"Ĩ":{"ha":365,"x_min":-62,"x_max":429,"o":"m 125 0 l 125 911 l 240 911 l 240 0 l 125 0 m 288 985 q 220 999 249 985 q 170 1034 192 1014 q 128 1069 149 1054 q 82 1083 107 1083 q 38 1060 56 1083 q 15 992 19 1036 l -62 997 q -21 1122 -58 1076 q 79 1168 17 1168 q 147 1153 118 1168 q 197 1119 175 1139 q 239 1084 218 1099 q 285 1069 260 1069 q 351 1161 340 1069 l 429 1156 q 388 1030 425 1075 q 288 985 350 985 z "},"Ï":{"ha":365,"x_min":-28,"x_max":394,"o":"m 125 0 l 125 911 l 240 911 l 240 0 l 125 0 m 40 993 q -8 1013 11 993 q -28 1061 -28 1032 q -8 1110 -28 1092 q 40 1129 11 1129 q 90 1110 71 1129 q 108 1061 108 1092 q 90 1013 108 1032 q 40 993 71 993 m 326 993 q 277 1013 296 993 q 258 1061 258 1032 q 277 1110 258 1092 q 326 1129 296 1129 q 375 1110 356 1129 q 394 1061 394 1092 q 375 1013 394 1032 q 326 993 356 993 z "},"Ī":{"ha":365,"x_min":-4,"x_max":371,"o":"m 125 0 l 125 911 l 240 911 l 240 0 l 125 0 m -4 1021 l -4 1100 l 371 1100 l 371 1021 l -4 1021 z "},"Ĭ":{"ha":365,"x_min":-19,"x_max":386,"o":"m 125 0 l 125 911 l 240 911 l 240 0 l 125 0 m 183 981 q 38 1034 86 981 q -19 1160 -11 1088 l 50 1171 q 91 1088 58 1122 q 183 1054 124 1054 q 276 1088 243 1054 q 317 1171 308 1122 l 386 1160 q 329 1034 378 1088 q 183 981 281 981 z "},"İ":{"ha":365,"x_min":104,"x_max":263,"o":"m 125 0 l 125 911 l 240 911 l 240 0 l 125 0 m 183 992 q 127 1013 150 992 q 104 1067 104 1033 q 127 1119 104 1099 q 183 1140 150 1140 q 240 1119 217 1140 q 263 1067 263 1099 q 240 1013 263 1033 q 183 992 217 992 z "},"Ǐ":{"ha":365,"x_min":-61,"x_max":428,"o":"m 125 0 l 125 911 l 240 911 l 240 0 l 125 0 m 129 983 l -61 1168 l 36 1168 l 181 1060 l 186 1060 l 331 1168 l 428 1168 l 238 983 l 129 983 z "},"Ȉ":{"ha":365,"x_min":-151,"x_max":375,"o":"m 125 0 l 125 911 l 240 911 l 240 0 l 125 0 m 35 982 l -151 1156 l -144 1168 l -33 1168 l 115 982 l 35 982 m 294 982 l 108 1156 l 115 1168 l 228 1168 l 375 982 l 294 982 z "},"Į":{"ha":365,"x_min":46,"x_max":318,"o":"m 193 -304 q 90 -272 133 -304 q 46 -176 46 -240 q 78 -76 46 -121 q 149 0 111 -31 l 125 0 l 125 911 l 240 911 l 240 0 q 169 -70 197 -32 q 142 -149 142 -108 q 163 -201 142 -185 q 215 -218 185 -218 q 286 -194 254 -218 l 318 -260 q 263 -291 296 -278 q 193 -304 229 -304 z "},"Ỉ":{"ha":365,"x_min":89,"x_max":293,"o":"m 125 0 l 125 911 l 240 911 l 240 0 l 125 0 m 139 974 l 126 1026 q 182 1051 160 1036 q 204 1092 204 1065 q 89 1156 204 1151 l 101 1224 q 242 1191 192 1221 q 293 1104 293 1161 q 247 1014 293 1043 q 139 974 200 985 z "},"Ị":{"ha":365,"x_min":107,"x_max":260,"o":"m 125 0 l 125 911 l 240 911 l 240 0 l 125 0 z "},"Ɨ":{"ha":421,"x_min":31,"x_max":388,"o":"m 153 0 l 153 435 l 31 435 l 31 518 l 153 525 l 153 911 l 268 911 l 268 525 l 388 525 l 388 435 l 268 435 l 268 0 l 153 0 z "},"Ĳ":{"ha":731,"x_min":125,"x_max":606,"o":"m 125 0 l 125 911 l 240 911 l 240 0 l 125 0 m 419 -229 q 363 -224 389 -229 q 319 -212 338 -218 l 342 -121 q 372 -129 356 -125 q 406 -133 388 -133 q 474 -97 457 -133 q 490 0 490 -61 l 490 911 l 606 911 l 606 -4 q 563 -168 606 -107 q 419 -229 519 -229 z "},"Ĵ":{"ha":667,"x_min":46,"x_max":728,"o":"m 288 -17 q 46 131 121 -17 l 124 182 q 281 85 181 85 q 392 131 356 85 q 429 282 429 176 l 429 911 l 546 911 l 546 271 q 519 126 546 192 q 436 22 493 61 q 288 -17 379 -17 m 239 981 l 429 1168 l 538 1168 l 728 981 l 631 981 l 486 1093 l 481 1093 l 336 981 l 239 981 z "},"Ɉ":{"ha":693,"x_min":46,"x_max":661,"o":"m 288 -17 q 46 131 121 -17 l 124 182 q 281 85 181 85 q 392 131 356 85 q 429 282 429 176 l 429 456 l 239 456 l 239 539 l 371 546 l 429 546 l 429 911 l 546 911 l 546 546 l 661 546 l 661 456 l 546 456 l 546 271 q 519 126 546 192 q 436 22 493 61 q 288 -17 379 -17 z "},"Ķ":{"ha":804,"x_min":125,"x_max":799,"o":"m 125 0 l 125 911 l 240 911 l 240 454 l 244 454 l 624 911 l 754 911 l 469 564 l 799 0 l 669 0 l 397 474 l 240 289 l 240 0 l 125 0 m 335 -314 l 324 -258 q 443 -235 411 -251 q 475 -192 475 -219 q 450 -151 475 -164 q 376 -133 425 -137 l 401 -81 q 528 -115 492 -90 q 564 -187 564 -140 q 505 -278 564 -247 q 335 -314 446 -308 z "},"Ḳ":{"ha":804,"x_min":125,"x_max":799,"o":"m 125 0 l 125 911 l 240 911 l 240 454 l 244 454 l 624 911 l 754 911 l 469 564 l 799 0 l 669 0 l 397 474 l 240 289 l 240 0 l 125 0 z "},"Ḵ":{"ha":804,"x_min":125,"x_max":799,"o":"m 125 0 l 125 911 l 240 911 l 240 454 l 244 454 l 624 911 l 754 911 l 469 564 l 799 0 l 669 0 l 397 474 l 240 289 l 240 0 l 125 0 z "},"Ĺ":{"ha":675,"x_min":78,"x_max":639,"o":"m 125 0 l 125 911 l 240 911 l 240 99 l 639 99 l 639 0 l 125 0 m 78 981 l 261 1168 l 401 1168 l 407 1156 l 181 981 l 78 981 z "},"Ľ":{"ha":675,"x_min":125,"x_max":639,"o":"m 125 0 l 125 911 l 240 911 l 240 99 l 639 99 l 639 0 l 125 0 m 464 714 l 458 1008 l 540 1008 l 539 929 l 519 714 l 464 714 z "},"Ļ":{"ha":675,"x_min":125,"x_max":639,"o":"m 125 0 l 125 911 l 240 911 l 240 99 l 639 99 l 639 0 l 125 0 m 281 -314 l 269 -258 q 389 -235 357 -251 q 421 -192 421 -219 q 396 -151 421 -164 q 322 -133 371 -137 l 347 -81 q 474 -115 438 -90 q 510 -187 510 -140 q 451 -278 510 -247 q 281 -314 392 -308 z "},"Ḷ":{"ha":675,"x_min":125,"x_max":639,"o":"m 125 0 l 125 911 l 240 911 l 240 99 l 639 99 l 639 0 l 125 0 z "},"Ḹ":{"ha":675,"x_min":-3,"x_max":639,"o":"m 125 0 l 125 911 l 240 911 l 240 99 l 639 99 l 639 0 l 125 0 m -3 1021 l -3 1100 l 372 1100 l 372 1021 l -3 1021 z "},"Ḻ":{"ha":675,"x_min":125,"x_max":639,"o":"m 125 0 l 125 911 l 240 911 l 240 99 l 639 99 l 639 0 l 125 0 z "},"Ł":{"ha":694,"x_min":-10,"x_max":663,"o":"m 149 0 l 149 340 l 35 289 l -10 376 l 149 444 l 149 911 l 264 911 l 264 496 l 521 610 l 564 522 l 264 393 l 264 99 l 663 99 l 663 0 l 149 0 z "},"Ƚ":{"ha":699,"x_min":31,"x_max":667,"o":"m 153 0 l 153 449 l 31 449 l 31 532 l 153 538 l 153 911 l 268 911 l 268 538 l 522 538 l 522 449 l 268 449 l 268 99 l 667 99 l 667 0 l 153 0 z "},"Ⱡ":{"ha":699,"x_min":31,"x_max":667,"o":"m 153 0 l 153 374 l 31 374 l 31 439 l 153 446 l 153 540 l 31 540 l 31 606 l 153 613 l 153 911 l 268 911 l 268 613 l 522 613 l 522 540 l 268 540 l 268 446 l 522 446 l 522 374 l 268 374 l 268 99 l 667 99 l 667 0 l 153 0 z "},"Ɫ":{"ha":772,"x_min":18,"x_max":736,"o":"m 222 0 l 222 500 q 192 508 207 506 q 160 511 176 511 q 113 482 129 511 q 94 404 97 453 l 18 417 q 53 543 22 492 q 151 594 83 594 q 188 592 171 594 q 222 585 206 589 l 222 911 l 338 911 l 338 535 q 413 495 376 513 q 492 478 450 478 q 538 508 522 478 q 556 585 553 539 l 632 572 q 598 447 628 499 q 500 394 568 394 q 413 409 453 394 q 338 442 374 424 l 338 99 l 736 99 l 736 0 l 222 0 z "},"Ɬ":{"ha":743,"x_min":-3,"x_max":707,"o":"m 164 464 l 193 464 l 193 472 q 174 537 193 513 q 124 561 156 561 q 89 548 100 561 q 78 517 78 535 q 99 479 78 494 q 164 464 119 464 m 193 0 l 193 374 l 178 374 q 41 413 85 374 q -3 513 -3 453 q 30 594 -3 563 q 113 626 63 626 q 158 619 138 626 q 193 597 178 611 l 193 911 l 308 911 l 308 464 l 532 464 l 532 374 l 308 374 l 308 99 l 707 99 l 707 0 l 193 0 z "},"Ŀ":{"ha":675,"x_min":125,"x_max":639,"o":"m 125 0 l 125 911 l 240 911 l 240 99 l 639 99 l 639 0 l 125 0 m 524 365 q 465 390 489 365 q 440 451 440 414 q 465 516 440 492 q 524 540 489 540 q 581 516 557 540 q 606 451 606 492 q 581 390 606 414 q 524 365 557 365 z "},"Ḿ":{"ha":1010,"x_min":125,"x_max":885,"o":"m 125 0 l 125 911 l 271 911 l 443 424 q 474 331 458 376 q 504 235 489 286 l 510 235 q 538 331 525 286 q 568 424 551 376 l 740 911 l 885 911 l 885 0 l 776 0 l 776 501 q 779 592 776 542 q 786 691 782 642 q 793 781 790 740 l 788 781 l 717 561 l 546 90 l 461 90 l 290 561 l 219 781 l 214 781 q 222 691 218 740 q 228 592 226 642 q 231 501 231 542 l 231 0 l 125 0 m 400 981 l 583 1168 l 724 1168 l 729 1156 l 503 981 l 400 981 z "},"Ṁ":{"ha":1010,"x_min":125,"x_max":885,"o":"m 125 0 l 125 911 l 271 911 l 443 424 q 474 331 458 376 q 504 235 489 286 l 510 235 q 538 331 525 286 q 568 424 551 376 l 740 911 l 885 911 l 885 0 l 776 0 l 776 501 q 779 592 776 542 q 786 691 782 642 q 793 781 790 740 l 788 781 l 717 561 l 546 90 l 461 90 l 290 561 l 219 781 l 214 781 q 222 691 218 740 q 228 592 226 642 q 231 501 231 542 l 231 0 l 125 0 m 507 992 q 451 1013 474 992 q 428 1067 428 1033 q 451 1119 428 1099 q 507 1140 474 1140 q 563 1119 540 1140 q 586 1067 586 1099 q 563 1013 586 1033 q 507 992 540 992 z "},"Ṃ":{"ha":1010,"x_min":125,"x_max":885,"o":"m 125 0 l 125 911 l 271 911 l 443 424 q 474 331 458 376 q 504 235 489 286 l 510 235 q 538 331 525 286 q 568 424 551 376 l 740 911 l 885 911 l 885 0 l 776 0 l 776 501 q 779 592 776 542 q 786 691 782 642 q 793 781 790 740 l 788 781 l 717 561 l 546 90 l 461 90 l 290 561 l 219 781 l 214 781 q 222 691 218 740 q 228 592 226 642 q 231 501 231 542 l 231 0 l 125 0 z "},"Ǹ":{"ha":899,"x_min":125,"x_max":774,"o":"m 125 0 l 125 911 l 251 911 l 575 344 q 626 249 601 299 q 672 149 650 199 l 678 149 q 667 293 672 219 q 663 438 663 367 l 663 911 l 774 911 l 774 0 l 647 0 l 324 567 q 272 663 297 613 q 225 763 247 713 l 219 763 q 231 622 226 694 q 235 476 235 550 l 235 0 l 125 0 m 468 981 l 242 1156 l 247 1168 l 388 1168 l 571 981 l 468 981 z "},"Ń":{"ha":899,"x_min":125,"x_max":774,"o":"m 125 0 l 125 911 l 251 911 l 575 344 q 626 249 601 299 q 672 149 650 199 l 678 149 q 667 293 672 219 q 663 438 663 367 l 663 911 l 774 911 l 774 0 l 647 0 l 324 567 q 272 663 297 613 q 225 763 247 713 l 219 763 q 231 622 226 694 q 235 476 235 550 l 235 0 l 125 0 m 357 981 l 540 1168 l 681 1168 l 686 1156 l 460 981 l 357 981 z "},"Ň":{"ha":899,"x_min":125,"x_max":774,"o":"m 125 0 l 125 911 l 251 911 l 575 344 q 626 249 601 299 q 672 149 650 199 l 678 149 q 667 293 672 219 q 663 438 663 367 l 663 911 l 774 911 l 774 0 l 647 0 l 324 567 q 272 663 297 613 q 225 763 247 713 l 219 763 q 231 622 226 694 q 235 476 235 550 l 235 0 l 125 0 m 410 983 l 219 1168 l 317 1168 l 461 1060 l 467 1060 l 611 1168 l 708 1168 l 518 983 l 410 983 z "},"Ñ":{"ha":899,"x_min":125,"x_max":774,"o":"m 125 0 l 125 911 l 251 911 l 575 344 q 626 249 601 299 q 672 149 650 199 l 678 149 q 667 293 672 219 q 663 438 663 367 l 663 911 l 774 911 l 774 0 l 647 0 l 324 567 q 272 663 297 613 q 225 763 247 713 l 219 763 q 231 622 226 694 q 235 476 235 550 l 235 0 l 125 0 m 568 985 q 501 999 529 985 q 451 1034 472 1014 q 408 1069 429 1054 q 363 1083 388 1083 q 318 1060 336 1083 q 296 992 300 1036 l 218 997 q 260 1122 222 1076 q 360 1168 297 1168 q 427 1153 399 1168 q 477 1119 456 1139 q 519 1084 499 1099 q 565 1069 540 1069 q 632 1161 621 1069 l 710 1156 q 668 1030 706 1075 q 568 985 631 985 z "},"Ṅ":{"ha":899,"x_min":125,"x_max":774,"o":"m 125 0 l 125 911 l 251 911 l 575 344 q 626 249 601 299 q 672 149 650 199 l 678 149 q 667 293 672 219 q 663 438 663 367 l 663 911 l 774 911 l 774 0 l 647 0 l 324 567 q 272 663 297 613 q 225 763 247 713 l 219 763 q 231 622 226 694 q 235 476 235 550 l 235 0 l 125 0 m 464 992 q 408 1013 431 992 q 385 1067 385 1033 q 408 1119 385 1099 q 464 1140 431 1140 q 520 1119 497 1140 q 543 1067 543 1099 q 520 1013 543 1033 q 464 992 497 992 z "},"Ņ":{"ha":899,"x_min":125,"x_max":774,"o":"m 125 0 l 125 911 l 251 911 l 575 344 q 626 249 601 299 q 672 149 650 199 l 678 149 q 667 293 672 219 q 663 438 663 367 l 663 911 l 774 911 l 774 0 l 647 0 l 324 567 q 272 663 297 613 q 225 763 247 713 l 219 763 q 231 622 226 694 q 235 476 235 550 l 235 0 l 125 0 m 339 -314 l 328 -258 q 447 -235 415 -251 q 479 -192 479 -219 q 454 -151 479 -164 q 381 -133 429 -137 l 406 -81 q 532 -115 496 -90 q 568 -187 568 -140 q 509 -278 568 -247 q 339 -314 450 -308 z "},"Ṇ":{"ha":899,"x_min":125,"x_max":774,"o":"m 125 0 l 125 911 l 251 911 l 575 344 q 626 249 601 299 q 672 149 650 199 l 678 149 q 667 293 672 219 q 663 438 663 367 l 663 911 l 774 911 l 774 0 l 647 0 l 324 567 q 272 663 297 613 q 225 763 247 713 l 219 763 q 231 622 226 694 q 235 476 235 550 l 235 0 l 125 0 z "},"Ṉ":{"ha":899,"x_min":125,"x_max":774,"o":"m 125 0 l 125 911 l 251 911 l 575 344 q 626 249 601 299 q 672 149 650 199 l 678 149 q 667 293 672 219 q 663 438 663 367 l 663 911 l 774 911 l 774 0 l 647 0 l 324 567 q 272 663 297 613 q 225 763 247 713 l 219 763 q 231 622 226 694 q 235 476 235 550 l 235 0 l 125 0 z "},"Ŋ":{"ha":882,"x_min":125,"x_max":810,"o":"m 564 -17 q 506 -11 538 -17 q 456 4 475 -6 l 483 107 q 553 93 511 93 q 622 126 590 93 q 672 240 653 158 q 690 465 690 321 q 662 681 690 603 q 583 793 633 760 q 465 826 533 826 q 388 809 429 826 q 307 761 346 792 q 240 690 268 731 l 240 0 l 125 0 l 125 911 l 238 911 l 238 799 q 354 891 286 854 q 494 928 422 928 q 656 883 585 928 q 769 738 728 839 q 810 465 810 636 q 779 185 810 290 q 694 31 749 79 q 564 -17 639 -17 z "},"Ƞ":{"ha":911,"x_min":125,"x_max":790,"o":"m 675 -212 l 675 510 q 651 699 675 631 q 580 797 626 768 q 465 826 533 826 q 388 809 429 826 q 307 761 346 792 q 240 690 268 731 l 240 0 l 125 0 l 125 911 l 238 911 l 238 799 q 354 891 286 854 q 494 928 422 928 q 713 834 635 928 q 790 519 790 740 l 790 -212 l 675 -212 z "},"Ò":{"ha":922,"x_min":72,"x_max":851,"o":"m 461 -17 q 259 42 347 -17 q 122 207 171 100 q 72 460 72 314 q 122 710 72 606 q 259 872 171 815 q 461 928 347 928 q 664 872 576 928 q 801 710 751 815 q 851 460 851 606 q 801 207 851 314 q 664 42 751 100 q 461 -17 576 -17 m 461 85 q 603 131 543 85 q 697 262 664 178 q 731 460 731 346 q 657 728 731 629 q 461 826 583 826 q 265 728 339 826 q 192 460 192 629 q 225 262 192 346 q 319 131 258 178 q 461 85 381 85 m 465 981 l 239 1156 l 244 1168 l 385 1168 l 568 981 l 465 981 z "},"Ó":{"ha":922,"x_min":72,"x_max":851,"o":"m 461 -17 q 259 42 347 -17 q 122 207 171 100 q 72 460 72 314 q 122 710 72 606 q 259 872 171 815 q 461 928 347 928 q 664 872 576 928 q 801 710 751 815 q 851 460 851 606 q 801 207 851 314 q 664 42 751 100 q 461 -17 576 -17 m 461 85 q 603 131 543 85 q 697 262 664 178 q 731 460 731 346 q 657 728 731 629 q 461 826 583 826 q 265 728 339 826 q 192 460 192 629 q 225 262 192 346 q 319 131 258 178 q 461 85 381 85 m 354 981 l 538 1168 l 678 1168 l 683 1156 l 457 981 l 354 981 z "},"Ô":{"ha":922,"x_min":72,"x_max":851,"o":"m 461 -17 q 259 42 347 -17 q 122 207 171 100 q 72 460 72 314 q 122 710 72 606 q 259 872 171 815 q 461 928 347 928 q 664 872 576 928 q 801 710 751 815 q 851 460 851 606 q 801 207 851 314 q 664 42 751 100 q 461 -17 576 -17 m 461 85 q 603 131 543 85 q 697 262 664 178 q 731 460 731 346 q 657 728 731 629 q 461 826 583 826 q 265 728 339 826 q 192 460 192 629 q 225 262 192 346 q 319 131 258 178 q 461 85 381 85 m 217 981 l 407 1168 l 515 1168 l 706 981 l 608 981 l 464 1093 l 458 1093 l 314 981 l 217 981 z "},"Õ":{"ha":922,"x_min":72,"x_max":851,"o":"m 461 -17 q 259 42 347 -17 q 122 207 171 100 q 72 460 72 314 q 122 710 72 606 q 259 872 171 815 q 461 928 347 928 q 664 872 576 928 q 801 710 751 815 q 851 460 851 606 q 801 207 851 314 q 664 42 751 100 q 461 -17 576 -17 m 461 85 q 603 131 543 85 q 697 262 664 178 q 731 460 731 346 q 657 728 731 629 q 461 826 583 826 q 265 728 339 826 q 192 460 192 629 q 225 262 192 346 q 319 131 258 178 q 461 85 381 85 m 565 985 q 498 999 526 985 q 448 1034 469 1014 q 406 1069 426 1054 q 360 1083 385 1083 q 315 1060 333 1083 q 293 992 297 1036 l 215 997 q 257 1122 219 1076 q 357 1168 294 1168 q 424 1153 396 1168 q 474 1119 453 1139 q 517 1084 496 1099 q 563 1069 538 1069 q 629 1161 618 1069 l 707 1156 q 665 1030 703 1075 q 565 985 628 985 z "},"Ö":{"ha":922,"x_min":72,"x_max":851,"o":"m 461 -17 q 259 42 347 -17 q 122 207 171 100 q 72 460 72 314 q 122 710 72 606 q 259 872 171 815 q 461 928 347 928 q 664 872 576 928 q 801 710 751 815 q 851 460 851 606 q 801 207 851 314 q 664 42 751 100 q 461 -17 576 -17 m 461 85 q 603 131 543 85 q 697 262 664 178 q 731 460 731 346 q 657 728 731 629 q 461 826 583 826 q 265 728 339 826 q 192 460 192 629 q 225 262 192 346 q 319 131 258 178 q 461 85 381 85 m 318 993 q 269 1013 289 993 q 250 1061 250 1032 q 269 1110 250 1092 q 318 1129 289 1129 q 367 1110 349 1129 q 386 1061 386 1092 q 367 1013 386 1032 q 318 993 349 993 m 604 993 q 555 1013 574 993 q 536 1061 536 1032 q 555 1110 536 1092 q 604 1129 574 1129 q 653 1110 633 1129 q 672 1061 672 1092 q 653 1013 672 1032 q 604 993 633 993 z "},"Ō":{"ha":922,"x_min":72,"x_max":851,"o":"m 461 -17 q 259 42 347 -17 q 122 207 171 100 q 72 460 72 314 q 122 710 72 606 q 259 872 171 815 q 461 928 347 928 q 664 872 576 928 q 801 710 751 815 q 851 460 851 606 q 801 207 851 314 q 664 42 751 100 q 461 -17 576 -17 m 461 85 q 603 131 543 85 q 697 262 664 178 q 731 460 731 346 q 657 728 731 629 q 461 826 583 826 q 265 728 339 826 q 192 460 192 629 q 225 262 192 346 q 319 131 258 178 q 461 85 381 85 m 274 1021 l 274 1100 l 649 1100 l 649 1021 l 274 1021 z "},"Ŏ":{"ha":922,"x_min":72,"x_max":851,"o":"m 461 -17 q 259 42 347 -17 q 122 207 171 100 q 72 460 72 314 q 122 710 72 606 q 259 872 171 815 q 461 928 347 928 q 664 872 576 928 q 801 710 751 815 q 851 460 851 606 q 801 207 851 314 q 664 42 751 100 q 461 -17 576 -17 m 461 85 q 603 131 543 85 q 697 262 664 178 q 731 460 731 346 q 657 728 731 629 q 461 826 583 826 q 265 728 339 826 q 192 460 192 629 q 225 262 192 346 q 319 131 258 178 q 461 85 381 85 m 461 981 q 315 1034 364 981 q 258 1160 267 1088 l 328 1171 q 369 1088 336 1122 q 461 1054 401 1054 q 553 1088 521 1054 q 594 1171 586 1122 l 664 1160 q 607 1034 656 1088 q 461 981 558 981 z "},"Ő":{"ha":922,"x_min":72,"x_max":851,"o":"m 461 -17 q 259 42 347 -17 q 122 207 171 100 q 72 460 72 314 q 122 710 72 606 q 259 872 171 815 q 461 928 347 928 q 664 872 576 928 q 801 710 751 815 q 851 460 851 606 q 801 207 851 314 q 664 42 751 100 q 461 -17 576 -17 m 461 85 q 603 131 543 85 q 697 262 664 178 q 731 460 731 346 q 657 728 731 629 q 461 826 583 826 q 265 728 339 826 q 192 460 192 629 q 225 262 192 346 q 319 131 258 178 q 461 85 381 85 m 269 981 l 417 1168 l 529 1168 l 536 1156 l 350 981 l 269 981 m 529 981 l 678 1168 l 789 1168 l 796 1156 l 610 981 l 529 981 z "},"Ǒ":{"ha":922,"x_min":72,"x_max":851,"o":"m 461 -17 q 259 42 347 -17 q 122 207 171 100 q 72 460 72 314 q 122 710 72 606 q 259 872 171 815 q 461 928 347 928 q 664 872 576 928 q 801 710 751 815 q 851 460 851 606 q 801 207 851 314 q 664 42 751 100 q 461 -17 576 -17 m 461 85 q 603 131 543 85 q 697 262 664 178 q 731 460 731 346 q 657 728 731 629 q 461 826 583 826 q 265 728 339 826 q 192 460 192 629 q 225 262 192 346 q 319 131 258 178 q 461 85 381 85 m 407 983 l 217 1168 l 314 1168 l 458 1060 l 464 1060 l 608 1168 l 706 1168 l 515 983 l 407 983 z "},"Ȍ":{"ha":922,"x_min":72,"x_max":851,"o":"m 461 -17 q 259 42 347 -17 q 122 207 171 100 q 72 460 72 314 q 122 710 72 606 q 259 872 171 815 q 461 928 347 928 q 664 872 576 928 q 801 710 751 815 q 851 460 851 606 q 801 207 851 314 q 664 42 751 100 q 461 -17 576 -17 m 461 85 q 603 131 543 85 q 697 262 664 178 q 731 460 731 346 q 657 728 731 629 q 461 826 583 826 q 265 728 339 826 q 192 460 192 629 q 225 262 192 346 q 319 131 258 178 q 461 85 381 85 m 313 982 l 126 1156 l 133 1168 l 244 1168 l 393 982 l 313 982 m 572 982 l 386 1156 l 393 1168 l 506 1168 l 653 982 l 572 982 z "},"Ǫ":{"ha":922,"x_min":72,"x_max":851,"o":"m 481 -304 q 378 -272 421 -304 q 335 -176 335 -240 q 358 -93 335 -137 q 428 -15 381 -49 q 242 53 322 -7 q 117 217 163 113 q 72 460 72 321 q 122 710 72 606 q 259 872 171 815 q 461 928 347 928 q 664 872 576 928 q 801 710 751 815 q 851 460 851 606 q 814 234 851 328 q 713 82 776 140 q 572 -1 650 24 q 460 -72 492 -28 q 429 -149 429 -117 q 451 -201 429 -185 q 503 -218 474 -218 q 574 -194 542 -218 l 606 -260 q 550 -291 583 -278 q 481 -304 517 -304 m 461 83 q 603 130 543 83 q 697 261 664 176 q 731 460 731 346 q 657 728 731 629 q 461 826 583 826 q 265 728 339 826 q 192 460 192 629 q 225 261 192 346 q 319 130 258 176 q 461 83 381 83 z "},"Ọ":{"ha":922,"x_min":72,"x_max":851,"o":"m 461 -17 q 259 42 347 -17 q 122 207 171 100 q 72 460 72 314 q 122 710 72 606 q 259 872 171 815 q 461 928 347 928 q 664 872 576 928 q 801 710 751 815 q 851 460 851 606 q 801 207 851 314 q 664 42 751 100 q 461 -17 576 -17 m 461 85 q 603 131 543 85 q 697 262 664 178 q 731 460 731 346 q 657 728 731 629 q 461 826 583 826 q 265 728 339 826 q 192 460 192 629 q 225 262 192 346 q 319 131 258 178 q 461 85 381 85 z "},"Ỏ":{"ha":922,"x_min":72,"x_max":851,"o":"m 461 -17 q 259 42 347 -17 q 122 207 171 100 q 72 460 72 314 q 122 710 72 606 q 259 872 171 815 q 461 928 347 928 q 664 872 576 928 q 801 710 751 815 q 851 460 851 606 q 801 207 851 314 q 664 42 751 100 q 461 -17 576 -17 m 461 85 q 603 131 543 85 q 697 262 664 178 q 731 460 731 346 q 657 728 731 629 q 461 826 583 826 q 265 728 339 826 q 192 460 192 629 q 225 262 192 346 q 319 131 258 178 q 461 85 381 85 m 417 974 l 404 1026 q 460 1051 438 1036 q 482 1092 482 1065 q 367 1156 482 1151 l 379 1224 q 520 1191 469 1221 q 571 1104 571 1161 q 524 1014 571 1043 q 417 974 478 985 z "},"Ố":{"ha":922,"x_min":72,"x_max":851,"o":"m 461 -17 q 259 42 347 -17 q 122 207 171 100 q 72 460 72 314 q 122 710 72 606 q 259 872 171 815 q 461 928 347 928 q 664 872 576 928 q 801 710 751 815 q 851 460 851 606 q 801 207 851 314 q 664 42 751 100 q 461 -17 576 -17 m 461 85 q 603 131 543 85 q 697 262 664 178 q 731 460 731 346 q 657 728 731 629 q 461 826 583 826 q 265 728 339 826 q 192 460 192 629 q 225 262 192 346 q 319 131 258 178 q 461 85 381 85 m 244 981 l 411 1140 l 511 1140 l 678 981 l 585 981 l 464 1071 l 458 1071 l 338 981 l 244 981 m 589 1089 l 699 1243 l 799 1243 l 806 1231 l 661 1089 l 589 1089 z "},"Ồ":{"ha":922,"x_min":72,"x_max":851,"o":"m 461 -17 q 259 42 347 -17 q 122 207 171 100 q 72 460 72 314 q 122 710 72 606 q 259 872 171 815 q 461 928 347 928 q 664 872 576 928 q 801 710 751 815 q 851 460 851 606 q 801 207 851 314 q 664 42 751 100 q 461 -17 576 -17 m 461 85 q 603 131 543 85 q 697 262 664 178 q 731 460 731 346 q 657 728 731 629 q 461 826 583 826 q 265 728 339 826 q 192 460 192 629 q 225 262 192 346 q 319 131 258 178 q 461 85 381 85 m 244 981 l 411 1140 l 511 1140 l 678 981 l 585 981 l 464 1071 l 458 1071 l 338 981 l 244 981 m 261 1089 l 117 1231 l 124 1243 l 224 1243 l 333 1089 l 261 1089 z "},"Ổ":{"ha":922,"x_min":72,"x_max":851,"o":"m 461 -17 q 259 42 347 -17 q 122 207 171 100 q 72 460 72 314 q 122 710 72 606 q 259 872 171 815 q 461 928 347 928 q 664 872 576 928 q 801 710 751 815 q 851 460 851 606 q 801 207 851 314 q 664 42 751 100 q 461 -17 576 -17 m 461 85 q 603 131 543 85 q 697 262 664 178 q 731 460 731 346 q 657 728 731 629 q 461 826 583 826 q 265 728 339 826 q 192 460 192 629 q 225 262 192 346 q 319 131 258 178 q 461 85 381 85 m 632 1075 l 619 1121 q 662 1140 644 1128 q 679 1174 679 1151 q 657 1213 679 1201 q 583 1228 635 1225 l 593 1286 q 760 1185 760 1279 q 722 1109 760 1135 q 632 1075 685 1083 m 244 983 l 411 1142 l 511 1142 l 678 983 l 585 983 l 464 1074 l 458 1074 l 338 983 l 244 983 z "},"Ỗ":{"ha":922,"x_min":72,"x_max":851,"o":"m 461 -17 q 259 42 347 -17 q 122 207 171 100 q 72 460 72 314 q 122 710 72 606 q 259 872 171 815 q 461 928 347 928 q 664 872 576 928 q 801 710 751 815 q 851 460 851 606 q 801 207 851 314 q 664 42 751 100 q 461 -17 576 -17 m 461 85 q 603 131 543 85 q 697 262 664 178 q 731 460 731 346 q 657 728 731 629 q 461 826 583 826 q 265 728 339 826 q 192 460 192 629 q 225 262 192 346 q 319 131 258 178 q 461 85 381 85 m 244 981 l 411 1135 l 511 1135 l 678 981 l 585 981 l 464 1067 l 458 1067 l 338 981 l 244 981 m 557 1171 q 480 1188 510 1171 q 426 1223 450 1206 q 369 1240 401 1240 q 334 1224 346 1240 q 317 1175 322 1207 l 251 1182 q 283 1272 257 1235 q 365 1310 308 1310 q 444 1292 414 1310 q 498 1258 474 1275 q 553 1240 522 1240 q 588 1257 576 1240 q 606 1304 600 1274 l 671 1299 q 640 1208 665 1244 q 557 1171 614 1171 z "},"Ộ":{"ha":922,"x_min":72,"x_max":851,"o":"m 461 -17 q 259 42 347 -17 q 122 207 171 100 q 72 460 72 314 q 122 710 72 606 q 259 872 171 815 q 461 928 347 928 q 664 872 576 928 q 801 710 751 815 q 851 460 851 606 q 801 207 851 314 q 664 42 751 100 q 461 -17 576 -17 m 461 85 q 603 131 543 85 q 697 262 664 178 q 731 460 731 346 q 657 728 731 629 q 461 826 583 826 q 265 728 339 826 q 192 460 192 629 q 225 262 192 346 q 319 131 258 178 q 461 85 381 85 m 217 981 l 407 1168 l 515 1168 l 706 981 l 608 981 l 464 1093 l 458 1093 l 314 981 l 217 981 z "},"Ṓ":{"ha":922,"x_min":72,"x_max":851,"o":"m 461 -17 q 259 42 347 -17 q 122 207 171 100 q 72 460 72 314 q 122 710 72 606 q 259 872 171 815 q 461 928 347 928 q 664 872 576 928 q 801 710 751 815 q 851 460 851 606 q 801 207 851 314 q 664 42 751 100 q 461 -17 576 -17 m 461 85 q 603 131 543 85 q 697 262 664 178 q 731 460 731 346 q 657 728 731 629 q 461 826 583 826 q 265 728 339 826 q 192 460 192 629 q 225 262 192 346 q 319 131 258 178 q 461 85 381 85 m 274 1021 l 274 1100 l 649 1100 l 649 1021 l 274 1021 m 376 1160 l 506 1318 l 615 1318 l 622 1306 l 458 1160 l 376 1160 z "},"Ø":{"ha":922,"x_min":67,"x_max":864,"o":"m 136 -44 l 67 11 l 164 139 q 99 281 122 200 q 76 460 76 361 q 126 710 76 606 q 263 872 175 815 q 465 928 351 928 q 706 844 606 928 l 792 957 l 864 900 l 768 775 q 833 636 810 715 q 856 460 856 557 q 806 207 856 314 q 668 42 756 100 q 465 -17 581 -17 q 225 71 324 -17 l 136 -44 m 196 460 q 240 238 196 329 l 638 756 q 465 826 569 826 q 269 728 343 826 q 196 460 196 629 m 465 85 q 608 131 547 85 q 701 262 668 178 q 735 460 735 346 q 724 579 735 525 q 692 676 713 633 l 293 158 q 465 85 363 85 z "},"Ǿ":{"ha":922,"x_min":67,"x_max":864,"o":"m 136 -44 l 67 11 l 164 139 q 99 281 122 200 q 76 460 76 361 q 126 710 76 606 q 263 872 175 815 q 465 928 351 928 q 706 844 606 928 l 792 957 l 864 900 l 768 775 q 833 636 810 715 q 856 460 856 557 q 806 207 856 314 q 668 42 756 100 q 465 -17 581 -17 q 225 71 324 -17 l 136 -44 m 196 460 q 240 238 196 329 l 638 756 q 465 826 569 826 q 269 728 343 826 q 196 460 196 629 m 465 85 q 608 131 547 85 q 701 262 668 178 q 735 460 735 346 q 724 579 735 525 q 692 676 713 633 l 293 158 q 465 85 363 85 m 351 981 l 535 1168 l 675 1168 l 681 1156 l 454 981 l 351 981 z "},"Œ":{"ha":1176,"x_min":72,"x_max":1108,"o":"m 513 0 q 189 121 306 0 q 72 460 72 242 q 190 794 72 676 q 518 911 307 911 l 1094 911 l 1094 814 l 708 814 l 708 528 l 1031 528 l 1031 429 l 708 429 l 708 99 l 1108 99 l 1108 0 l 513 0 m 526 94 l 593 94 l 593 817 l 526 817 q 277 725 363 817 q 192 460 192 633 q 277 190 192 286 q 526 94 363 94 z "},"Ʌ":{"ha":715,"x_min":0,"x_max":715,"o":"m 0 0 l 290 911 l 424 911 l 715 0 l 593 0 l 446 493 q 403 644 422 574 q 357 794 383 714 l 351 794 q 307 644 326 714 q 264 493 288 574 l 118 0 l 0 0 z "},"Ɔ":{"ha":793,"x_min":44,"x_max":721,"o":"m 338 -17 q 173 17 244 -17 q 44 115 101 51 l 108 183 q 335 85 197 85 q 530 180 458 85 q 601 464 601 275 q 528 733 601 639 q 336 826 456 826 q 129 743 210 826 l 69 815 q 185 896 115 864 q 342 928 254 928 q 536 874 450 928 q 672 715 622 819 q 721 456 721 610 q 672 196 721 301 q 535 37 622 90 q 338 -17 449 -17 z "},"Ꝏ":{"ha":1471,"x_min":72,"x_max":1399,"o":"m 426 -17 q 242 42 322 -17 q 117 207 163 100 q 72 460 72 314 q 117 710 72 606 q 242 872 163 815 q 426 928 322 928 q 606 872 524 928 q 735 686 688 817 q 865 872 783 817 q 1043 928 947 928 q 1227 872 1147 928 q 1353 710 1307 815 q 1399 460 1399 606 q 1353 207 1399 314 q 1227 42 1307 100 q 1043 -17 1147 -17 q 865 40 947 -17 q 736 226 783 96 q 606 40 689 96 q 426 -17 524 -17 m 438 85 q 565 131 511 85 q 649 262 619 178 q 679 460 679 346 q 613 728 679 629 q 438 826 547 826 q 258 728 325 826 q 192 460 192 629 q 222 262 192 346 q 308 131 253 178 q 438 85 363 85 m 1033 85 q 1164 131 1108 85 q 1249 262 1219 178 q 1279 460 1279 346 q 1213 728 1279 629 q 1033 826 1146 826 q 858 728 924 826 q 792 460 792 629 q 822 262 792 346 q 906 131 851 178 q 1033 85 961 85 z "},"Ȣ":{"ha":922,"x_min":72,"x_max":851,"o":"m 461 -17 q 260 18 349 -17 q 122 119 172 53 q 72 279 72 185 q 133 447 72 382 q 289 540 194 513 q 169 642 204 575 q 133 807 133 710 l 133 911 l 250 911 l 250 819 q 278 677 250 729 q 353 603 306 625 q 461 581 401 581 q 571 603 522 581 q 649 677 619 625 q 678 819 678 729 l 678 911 l 789 911 l 789 807 q 753 642 789 710 q 633 540 718 575 q 790 447 728 513 q 851 279 851 382 q 801 119 851 185 q 663 18 751 53 q 461 -17 575 -17 m 461 85 q 654 135 578 85 q 731 286 731 186 q 654 435 731 385 q 461 485 578 485 q 268 435 344 485 q 192 286 192 385 q 268 135 192 186 q 461 85 344 85 z "},"Ơ":{"ha":922,"x_min":76,"x_max":861,"o":"m 465 -17 q 263 42 351 -17 q 126 207 175 100 q 76 460 76 314 q 126 710 76 606 q 263 872 175 815 q 465 928 351 928 q 646 885 564 928 q 758 999 758 907 q 753 1041 758 1019 q 739 1079 747 1063 l 829 1118 q 852 1067 843 1096 q 861 1007 861 1039 q 822 897 861 938 q 713 838 782 856 q 817 682 779 778 q 856 460 856 586 q 806 207 856 314 q 668 42 756 100 q 465 -17 581 -17 m 465 85 q 608 131 547 85 q 701 262 668 178 q 735 460 735 346 q 661 728 735 629 q 465 826 588 826 q 269 728 343 826 q 196 460 196 629 q 229 262 196 346 q 324 131 263 178 q 465 85 385 85 z "},"Ớ":{"ha":922,"x_min":76,"x_max":861,"o":"m 465 -17 q 263 42 351 -17 q 126 207 175 100 q 76 460 76 314 q 126 710 76 606 q 263 872 175 815 q 465 928 351 928 q 646 885 564 928 q 758 999 758 907 q 753 1041 758 1019 q 739 1079 747 1063 l 829 1118 q 852 1067 843 1096 q 861 1007 861 1039 q 822 897 861 938 q 713 838 782 856 q 817 682 779 778 q 856 460 856 586 q 806 207 856 314 q 668 42 756 100 q 465 -17 581 -17 m 465 85 q 608 131 547 85 q 701 262 668 178 q 735 460 735 346 q 661 728 735 629 q 465 826 588 826 q 269 728 343 826 q 196 460 196 629 q 229 262 196 346 q 324 131 263 178 q 465 85 385 85 m 358 981 l 542 1168 l 682 1168 l 688 1156 l 461 981 l 358 981 z "},"Ờ":{"ha":922,"x_min":76,"x_max":861,"o":"m 465 -17 q 263 42 351 -17 q 126 207 175 100 q 76 460 76 314 q 126 710 76 606 q 263 872 175 815 q 465 928 351 928 q 646 885 564 928 q 758 999 758 907 q 753 1041 758 1019 q 739 1079 747 1063 l 829 1118 q 852 1067 843 1096 q 861 1007 861 1039 q 822 897 861 938 q 713 838 782 856 q 817 682 779 778 q 856 460 856 586 q 806 207 856 314 q 668 42 756 100 q 465 -17 581 -17 m 465 85 q 608 131 547 85 q 701 262 668 178 q 735 460 735 346 q 661 728 735 629 q 465 826 588 826 q 269 728 343 826 q 196 460 196 629 q 229 262 196 346 q 324 131 263 178 q 465 85 385 85 m 469 981 l 243 1156 l 249 1168 l 389 1168 l 572 981 l 469 981 z "},"Ở":{"ha":922,"x_min":76,"x_max":861,"o":"m 465 -17 q 263 42 351 -17 q 126 207 175 100 q 76 460 76 314 q 126 710 76 606 q 263 872 175 815 q 465 928 351 928 q 646 885 564 928 q 758 999 758 907 q 753 1041 758 1019 q 739 1079 747 1063 l 829 1118 q 852 1067 843 1096 q 861 1007 861 1039 q 822 897 861 938 q 713 838 782 856 q 817 682 779 778 q 856 460 856 586 q 806 207 856 314 q 668 42 756 100 q 465 -17 581 -17 m 465 85 q 608 131 547 85 q 701 262 668 178 q 735 460 735 346 q 661 728 735 629 q 465 826 588 826 q 269 728 343 826 q 196 460 196 629 q 229 262 196 346 q 324 131 263 178 q 465 85 385 85 m 421 974 l 408 1026 q 464 1051 442 1036 q 486 1092 486 1065 q 371 1156 486 1151 l 383 1224 q 524 1191 474 1221 q 575 1104 575 1161 q 528 1014 575 1043 q 421 974 482 985 z "},"Ỡ":{"ha":922,"x_min":76,"x_max":861,"o":"m 465 -17 q 263 42 351 -17 q 126 207 175 100 q 76 460 76 314 q 126 710 76 606 q 263 872 175 815 q 465 928 351 928 q 646 885 564 928 q 758 999 758 907 q 753 1041 758 1019 q 739 1079 747 1063 l 829 1118 q 852 1067 843 1096 q 861 1007 861 1039 q 822 897 861 938 q 713 838 782 856 q 817 682 779 778 q 856 460 856 586 q 806 207 856 314 q 668 42 756 100 q 465 -17 581 -17 m 465 85 q 608 131 547 85 q 701 262 668 178 q 735 460 735 346 q 661 728 735 629 q 465 826 588 826 q 269 728 343 826 q 196 460 196 629 q 229 262 196 346 q 324 131 263 178 q 465 85 385 85 m 558 985 q 491 999 519 985 q 441 1034 463 1014 q 399 1069 419 1054 q 353 1083 378 1083 q 308 1060 326 1083 q 286 992 290 1036 l 208 997 q 250 1122 213 1076 q 350 1168 288 1168 q 417 1153 389 1168 q 467 1119 446 1139 q 510 1084 489 1099 q 556 1069 531 1069 q 622 1161 611 1069 l 700 1156 q 658 1030 696 1075 q 558 985 621 985 z "},"Ợ":{"ha":922,"x_min":76,"x_max":861,"o":"m 465 -17 q 263 42 351 -17 q 126 207 175 100 q 76 460 76 314 q 126 710 76 606 q 263 872 175 815 q 465 928 351 928 q 646 885 564 928 q 758 999 758 907 q 753 1041 758 1019 q 739 1079 747 1063 l 829 1118 q 852 1067 843 1096 q 861 1007 861 1039 q 822 897 861 938 q 713 838 782 856 q 817 682 779 778 q 856 460 856 586 q 806 207 856 314 q 668 42 756 100 q 465 -17 581 -17 m 465 85 q 608 131 547 85 q 701 262 668 178 q 735 460 735 346 q 661 728 735 629 q 465 826 588 826 q 269 728 343 826 q 196 460 196 629 q 229 262 196 346 q 324 131 263 178 q 465 85 385 85 z "},"Ṗ":{"ha":786,"x_min":125,"x_max":726,"o":"m 125 0 l 125 911 l 385 911 q 564 886 488 911 q 683 802 640 861 q 726 643 726 743 q 633 431 726 500 q 390 361 540 361 l 240 361 l 240 0 l 125 0 m 240 456 l 376 456 q 553 501 496 456 q 611 643 611 546 q 551 780 611 742 q 371 818 490 818 l 240 818 l 240 456 m 418 992 q 362 1013 385 992 q 339 1067 339 1033 q 362 1119 339 1099 q 418 1140 385 1140 q 474 1119 451 1140 q 497 1067 497 1099 q 474 1013 497 1033 q 418 992 451 992 z "},"Ŕ":{"ha":790,"x_min":125,"x_max":756,"o":"m 125 0 l 125 911 l 410 911 q 575 887 503 911 q 688 806 647 863 q 729 656 729 750 q 674 485 729 550 q 524 397 618 421 l 756 0 l 625 0 l 406 385 l 240 385 l 240 0 l 125 0 m 240 479 l 393 479 q 557 523 500 479 q 614 656 614 567 q 557 782 614 746 q 393 818 500 818 l 240 818 l 240 479 m 303 981 l 486 1168 l 626 1168 l 632 1156 l 406 981 l 303 981 z "},"Ř":{"ha":790,"x_min":125,"x_max":756,"o":"m 125 0 l 125 911 l 410 911 q 575 887 503 911 q 688 806 647 863 q 729 656 729 750 q 674 485 729 550 q 524 397 618 421 l 756 0 l 625 0 l 406 385 l 240 385 l 240 0 l 125 0 m 240 479 l 393 479 q 557 523 500 479 q 614 656 614 567 q 557 782 614 746 q 393 818 500 818 l 240 818 l 240 479 m 356 983 l 165 1168 l 263 1168 l 407 1060 l 413 1060 l 557 1168 l 654 1168 l 464 983 l 356 983 z "},"Ṙ":{"ha":790,"x_min":125,"x_max":756,"o":"m 125 0 l 125 911 l 410 911 q 575 887 503 911 q 688 806 647 863 q 729 656 729 750 q 674 485 729 550 q 524 397 618 421 l 756 0 l 625 0 l 406 385 l 240 385 l 240 0 l 125 0 m 240 479 l 393 479 q 557 523 500 479 q 614 656 614 567 q 557 782 614 746 q 393 818 500 818 l 240 818 l 240 479 m 410 992 q 353 1013 376 992 q 331 1067 331 1033 q 353 1119 331 1099 q 410 1140 376 1140 q 466 1119 443 1140 q 489 1067 489 1099 q 466 1013 489 1033 q 410 992 443 992 z "},"Ŗ":{"ha":790,"x_min":125,"x_max":756,"o":"m 125 0 l 125 911 l 410 911 q 575 887 503 911 q 688 806 647 863 q 729 656 729 750 q 674 485 729 550 q 524 397 618 421 l 756 0 l 625 0 l 406 385 l 240 385 l 240 0 l 125 0 m 240 479 l 393 479 q 557 523 500 479 q 614 656 614 567 q 557 782 614 746 q 393 818 500 818 l 240 818 l 240 479 m 310 -314 l 299 -258 q 418 -235 386 -251 q 450 -192 450 -219 q 425 -151 450 -164 q 351 -133 400 -137 l 376 -81 q 503 -115 467 -90 q 539 -187 539 -140 q 480 -278 539 -247 q 310 -314 421 -308 z "},"Ṛ":{"ha":790,"x_min":125,"x_max":756,"o":"m 125 0 l 125 911 l 410 911 q 575 887 503 911 q 688 806 647 863 q 729 656 729 750 q 674 485 729 550 q 524 397 618 421 l 756 0 l 625 0 l 406 385 l 240 385 l 240 0 l 125 0 m 240 479 l 393 479 q 557 523 500 479 q 614 656 614 567 q 557 782 614 746 q 393 818 500 818 l 240 818 l 240 479 z "},"Ṝ":{"ha":790,"x_min":125,"x_max":756,"o":"m 125 0 l 125 911 l 410 911 q 575 887 503 911 q 688 806 647 863 q 729 656 729 750 q 674 485 729 550 q 524 397 618 421 l 756 0 l 625 0 l 406 385 l 240 385 l 240 0 l 125 0 m 240 479 l 393 479 q 557 523 500 479 q 614 656 614 567 q 557 782 614 746 q 393 818 500 818 l 240 818 l 240 479 m 222 1021 l 222 1100 l 597 1100 l 597 1021 l 222 1021 z "},"Ṟ":{"ha":790,"x_min":125,"x_max":756,"o":"m 125 0 l 125 911 l 410 911 q 575 887 503 911 q 688 806 647 863 q 729 656 729 750 q 674 485 729 550 q 524 397 618 421 l 756 0 l 625 0 l 406 385 l 240 385 l 240 0 l 125 0 m 240 479 l 393 479 q 557 523 500 479 q 614 656 614 567 q 557 782 614 746 q 393 818 500 818 l 240 818 l 240 479 z "},"Ś":{"ha":742,"x_min":58,"x_max":688,"o":"m 378 -17 q 199 19 281 -17 q 58 119 118 56 l 124 194 q 240 114 172 143 q 379 85 307 85 q 519 126 469 85 q 569 233 569 167 q 549 308 569 281 q 495 356 529 336 q 418 394 461 375 l 288 451 q 201 500 244 471 q 131 575 158 529 q 103 686 103 621 q 140 810 103 756 q 241 897 176 865 q 389 928 306 928 q 542 897 472 928 q 658 818 611 867 l 596 743 q 501 803 553 781 q 389 826 450 826 q 266 790 313 826 q 219 693 219 754 q 242 622 219 650 q 300 575 265 593 q 371 542 335 557 l 500 486 q 635 398 582 451 q 688 243 688 344 q 650 112 688 171 q 544 18 613 53 q 378 -17 475 -17 m 282 981 l 465 1168 l 606 1168 l 611 1156 l 385 981 l 282 981 z "},"Ŝ":{"ha":742,"x_min":58,"x_max":688,"o":"m 378 -17 q 199 19 281 -17 q 58 119 118 56 l 124 194 q 240 114 172 143 q 379 85 307 85 q 519 126 469 85 q 569 233 569 167 q 549 308 569 281 q 495 356 529 336 q 418 394 461 375 l 288 451 q 201 500 244 471 q 131 575 158 529 q 103 686 103 621 q 140 810 103 756 q 241 897 176 865 q 389 928 306 928 q 542 897 472 928 q 658 818 611 867 l 596 743 q 501 803 553 781 q 389 826 450 826 q 266 790 313 826 q 219 693 219 754 q 242 622 219 650 q 300 575 265 593 q 371 542 335 557 l 500 486 q 635 398 582 451 q 688 243 688 344 q 650 112 688 171 q 544 18 613 53 q 378 -17 475 -17 m 144 981 l 335 1168 l 443 1168 l 633 981 l 536 981 l 392 1093 l 386 1093 l 242 981 l 144 981 z "},"Ṡ":{"ha":742,"x_min":58,"x_max":688,"o":"m 378 -17 q 199 19 281 -17 q 58 119 118 56 l 124 194 q 240 114 172 143 q 379 85 307 85 q 519 126 469 85 q 569 233 569 167 q 549 308 569 281 q 495 356 529 336 q 418 394 461 375 l 288 451 q 201 500 244 471 q 131 575 158 529 q 103 686 103 621 q 140 810 103 756 q 241 897 176 865 q 389 928 306 928 q 542 897 472 928 q 658 818 611 867 l 596 743 q 501 803 553 781 q 389 826 450 826 q 266 790 313 826 q 219 693 219 754 q 242 622 219 650 q 300 575 265 593 q 371 542 335 557 l 500 486 q 635 398 582 451 q 688 243 688 344 q 650 112 688 171 q 544 18 613 53 q 378 -17 475 -17 m 389 992 q 333 1013 356 992 q 310 1067 310 1033 q 333 1119 310 1099 q 389 1140 356 1140 q 445 1119 422 1140 q 468 1067 468 1099 q 445 1013 468 1033 q 389 992 422 992 z "},"Š":{"ha":742,"x_min":58,"x_max":688,"o":"m 378 -17 q 199 19 281 -17 q 58 119 118 56 l 124 194 q 240 114 172 143 q 379 85 307 85 q 519 126 469 85 q 569 233 569 167 q 549 308 569 281 q 495 356 529 336 q 418 394 461 375 l 288 451 q 201 500 244 471 q 131 575 158 529 q 103 686 103 621 q 140 810 103 756 q 241 897 176 865 q 389 928 306 928 q 542 897 472 928 q 658 818 611 867 l 596 743 q 501 803 553 781 q 389 826 450 826 q 266 790 313 826 q 219 693 219 754 q 242 622 219 650 q 300 575 265 593 q 371 542 335 557 l 500 486 q 635 398 582 451 q 688 243 688 344 q 650 112 688 171 q 544 18 613 53 q 378 -17 475 -17 m 335 983 l 144 1168 l 242 1168 l 386 1060 l 392 1060 l 536 1168 l 633 1168 l 443 983 l 335 983 z "},"Ş":{"ha":742,"x_min":58,"x_max":688,"o":"m 378 -17 q 199 19 281 -17 q 58 119 118 56 l 124 194 q 240 114 172 143 q 379 85 307 85 q 519 126 469 85 q 569 233 569 167 q 549 308 569 281 q 495 356 529 336 q 418 394 461 375 l 288 451 q 201 500 244 471 q 131 575 158 529 q 103 686 103 621 q 140 810 103 756 q 241 897 176 865 q 389 928 306 928 q 542 897 472 928 q 658 818 611 867 l 596 743 q 501 803 553 781 q 389 826 450 826 q 266 790 313 826 q 219 693 219 754 q 242 622 219 650 q 300 575 265 593 q 371 542 335 557 l 500 486 q 635 398 582 451 q 688 243 688 344 q 650 112 688 171 q 544 18 613 53 q 378 -17 475 -17 m 258 -314 l 247 -258 q 367 -235 335 -251 q 399 -189 399 -219 q 375 -146 399 -161 q 292 -122 351 -131 l 353 4 l 426 4 l 386 -89 q 461 -122 435 -100 q 488 -187 488 -144 q 428 -278 488 -247 q 258 -314 369 -308 z "},"Ș":{"ha":742,"x_min":58,"x_max":688,"o":"m 378 -17 q 199 19 281 -17 q 58 119 118 56 l 124 194 q 240 114 172 143 q 379 85 307 85 q 519 126 469 85 q 569 233 569 167 q 549 308 569 281 q 495 356 529 336 q 418 394 461 375 l 288 451 q 201 500 244 471 q 131 575 158 529 q 103 686 103 621 q 140 810 103 756 q 241 897 176 865 q 389 928 306 928 q 542 897 472 928 q 658 818 611 867 l 596 743 q 501 803 553 781 q 389 826 450 826 q 266 790 313 826 q 219 693 219 754 q 242 622 219 650 q 300 575 265 593 q 371 542 335 557 l 500 486 q 635 398 582 451 q 688 243 688 344 q 650 112 688 171 q 544 18 613 53 q 378 -17 475 -17 m 258 -314 l 247 -258 q 367 -235 335 -251 q 399 -192 399 -219 q 374 -151 399 -164 q 300 -133 349 -137 l 325 -81 q 451 -115 415 -90 q 488 -187 488 -140 q 428 -278 488 -247 q 258 -314 369 -308 z "},"Ṣ":{"ha":742,"x_min":58,"x_max":688,"o":"m 378 -17 q 199 19 281 -17 q 58 119 118 56 l 124 194 q 240 114 172 143 q 379 85 307 85 q 519 126 469 85 q 569 233 569 167 q 549 308 569 281 q 495 356 529 336 q 418 394 461 375 l 288 451 q 201 500 244 471 q 131 575 158 529 q 103 686 103 621 q 140 810 103 756 q 241 897 176 865 q 389 928 306 928 q 542 897 472 928 q 658 818 611 867 l 596 743 q 501 803 553 781 q 389 826 450 826 q 266 790 313 826 q 219 693 219 754 q 242 622 219 650 q 300 575 265 593 q 371 542 335 557 l 500 486 q 635 398 582 451 q 688 243 688 344 q 650 112 688 171 q 544 18 613 53 q 378 -17 475 -17 z "},"Ṧ":{"ha":742,"x_min":58,"x_max":688,"o":"m 378 -17 q 199 19 281 -17 q 58 119 118 56 l 124 194 q 240 114 172 143 q 379 85 307 85 q 519 126 469 85 q 569 233 569 167 q 549 308 569 281 q 495 356 529 336 q 418 394 461 375 l 288 451 q 201 500 244 471 q 131 575 158 529 q 103 686 103 621 q 140 810 103 756 q 241 897 176 865 q 389 928 306 928 q 542 897 472 928 q 658 818 611 867 l 596 743 q 501 803 553 781 q 389 826 450 826 q 266 790 313 826 q 219 693 219 754 q 242 622 219 650 q 300 575 265 593 q 371 542 335 557 l 500 486 q 635 398 582 451 q 688 243 688 344 q 650 112 688 171 q 544 18 613 53 q 378 -17 475 -17 m 339 983 l 156 1142 l 251 1142 l 386 1056 l 392 1056 l 526 1142 l 622 1142 l 439 983 l 339 983 m 389 1156 q 338 1175 358 1156 q 317 1226 317 1194 q 338 1276 317 1257 q 389 1296 358 1296 q 440 1276 419 1296 q 461 1226 461 1257 q 440 1175 461 1194 q 389 1156 419 1156 z "},"ẞ":{"ha":926,"x_min":126,"x_max":867,"o":"m 603 -17 q 458 13 522 -17 q 351 93 394 42 l 418 161 q 497 100 456 119 q 590 81 538 81 q 706 125 665 81 q 747 238 747 169 q 724 318 747 281 q 644 384 701 356 q 479 431 586 413 l 472 506 l 663 718 q 594 799 640 765 q 478 832 549 832 q 306 765 368 832 q 243 558 243 699 l 243 0 l 126 0 l 126 579 q 222 835 126 742 q 482 928 318 928 q 673 869 597 928 q 783 714 749 811 l 592 503 q 801 405 736 474 q 867 238 867 336 q 834 108 867 165 q 742 17 801 50 q 603 -17 683 -17 z "},"Ť":{"ha":744,"x_min":39,"x_max":706,"o":"m 314 0 l 314 814 l 39 814 l 39 911 l 706 911 l 706 814 l 431 814 l 431 0 l 314 0 m 317 983 l 126 1168 l 224 1168 l 368 1060 l 374 1060 l 518 1168 l 615 1168 l 425 983 l 317 983 z "},"Ṫ":{"ha":744,"x_min":39,"x_max":706,"o":"m 314 0 l 314 814 l 39 814 l 39 911 l 706 911 l 706 814 l 431 814 l 431 0 l 314 0 m 371 992 q 315 1013 338 992 q 292 1067 292 1033 q 315 1119 292 1099 q 371 1140 338 1140 q 427 1119 404 1140 q 450 1067 450 1099 q 427 1013 450 1033 q 371 992 404 992 z "},"Ţ":{"ha":744,"x_min":39,"x_max":706,"o":"m 314 0 l 314 814 l 39 814 l 39 911 l 706 911 l 706 814 l 431 814 l 431 0 l 314 0 m 243 -314 l 232 -258 q 351 -235 319 -251 q 383 -189 383 -219 q 360 -146 383 -161 q 276 -122 336 -131 l 338 4 l 411 4 l 371 -89 q 446 -122 419 -100 q 472 -187 472 -144 q 413 -278 472 -247 q 243 -314 354 -308 z "},"Ț":{"ha":744,"x_min":39,"x_max":706,"o":"m 314 0 l 314 814 l 39 814 l 39 911 l 706 911 l 706 814 l 431 814 l 431 0 l 314 0 m 250 -314 l 239 -258 q 358 -235 326 -251 q 390 -192 390 -219 q 365 -151 390 -164 q 292 -133 340 -137 l 317 -81 q 443 -115 407 -90 q 479 -187 479 -140 q 420 -278 479 -247 q 250 -314 361 -308 z "},"Ṭ":{"ha":744,"x_min":39,"x_max":706,"o":"m 314 0 l 314 814 l 39 814 l 39 911 l 706 911 l 706 814 l 431 814 l 431 0 l 314 0 z "},"Ṯ":{"ha":744,"x_min":39,"x_max":706,"o":"m 314 0 l 314 814 l 39 814 l 39 911 l 706 911 l 706 814 l 431 814 l 431 0 l 314 0 z "},"Ŧ":{"ha":744,"x_min":39,"x_max":706,"o":"m 314 0 l 314 421 l 143 421 l 143 506 l 265 511 l 314 511 l 314 814 l 39 814 l 39 911 l 706 911 l 706 814 l 431 814 l 431 511 l 601 511 l 601 421 l 431 421 l 431 0 l 314 0 z "},"Ⱦ":{"ha":744,"x_min":39,"x_max":764,"o":"m 89 -43 l 42 -14 l 314 385 l 314 814 l 39 814 l 39 911 l 674 911 l 717 975 l 764 946 l 706 860 l 706 814 l 674 814 l 431 457 l 431 0 l 314 0 l 314 286 l 89 -43 m 431 814 l 431 556 l 607 814 l 431 814 z "},"Ù":{"ha":896,"x_min":121,"x_max":775,"o":"m 449 -17 q 281 20 356 -17 q 164 142 207 57 q 121 371 121 226 l 121 911 l 236 911 l 236 368 q 265 199 236 261 q 341 110 293 136 q 449 85 389 85 q 558 110 510 85 q 635 199 607 136 q 664 368 664 261 l 664 911 l 775 911 l 775 371 q 732 142 775 226 q 615 20 689 57 q 449 -17 542 -17 m 451 981 l 225 1156 l 231 1168 l 371 1168 l 554 981 l 451 981 z "},"Ú":{"ha":896,"x_min":121,"x_max":775,"o":"m 449 -17 q 281 20 356 -17 q 164 142 207 57 q 121 371 121 226 l 121 911 l 236 911 l 236 368 q 265 199 236 261 q 341 110 293 136 q 449 85 389 85 q 558 110 510 85 q 635 199 607 136 q 664 368 664 261 l 664 911 l 775 911 l 775 371 q 732 142 775 226 q 615 20 689 57 q 449 -17 542 -17 m 340 981 l 524 1168 l 664 1168 l 669 1156 l 443 981 l 340 981 z "},"Û":{"ha":896,"x_min":121,"x_max":775,"o":"m 449 -17 q 281 20 356 -17 q 164 142 207 57 q 121 371 121 226 l 121 911 l 236 911 l 236 368 q 265 199 236 261 q 341 110 293 136 q 449 85 389 85 q 558 110 510 85 q 635 199 607 136 q 664 368 664 261 l 664 911 l 775 911 l 775 371 q 732 142 775 226 q 615 20 689 57 q 449 -17 542 -17 m 203 981 l 393 1168 l 501 1168 l 692 981 l 594 981 l 450 1093 l 444 1093 l 300 981 l 203 981 z "},"Ũ":{"ha":896,"x_min":121,"x_max":775,"o":"m 449 -17 q 281 20 356 -17 q 164 142 207 57 q 121 371 121 226 l 121 911 l 236 911 l 236 368 q 265 199 236 261 q 341 110 293 136 q 449 85 389 85 q 558 110 510 85 q 635 199 607 136 q 664 368 664 261 l 664 911 l 775 911 l 775 371 q 732 142 775 226 q 615 20 689 57 q 449 -17 542 -17 m 551 985 q 484 999 513 985 q 434 1034 456 1014 q 392 1069 413 1054 q 346 1083 371 1083 q 301 1060 319 1083 q 279 992 283 1036 l 201 997 q 243 1122 206 1076 q 343 1168 281 1168 q 410 1153 382 1168 q 460 1119 439 1139 q 503 1084 482 1099 q 549 1069 524 1069 q 615 1161 604 1069 l 693 1156 q 651 1030 689 1075 q 551 985 614 985 z "},"Ü":{"ha":896,"x_min":121,"x_max":775,"o":"m 449 -17 q 281 20 356 -17 q 164 142 207 57 q 121 371 121 226 l 121 911 l 236 911 l 236 368 q 265 199 236 261 q 341 110 293 136 q 449 85 389 85 q 558 110 510 85 q 635 199 607 136 q 664 368 664 261 l 664 911 l 775 911 l 775 371 q 732 142 775 226 q 615 20 689 57 q 449 -17 542 -17 m 304 993 q 256 1013 275 993 q 236 1061 236 1032 q 256 1110 236 1092 q 304 1129 275 1129 q 353 1110 335 1129 q 372 1061 372 1092 q 353 1013 372 1032 q 304 993 335 993 m 590 993 q 541 1013 560 993 q 522 1061 522 1032 q 541 1110 522 1092 q 590 1129 560 1129 q 639 1110 619 1129 q 658 1061 658 1092 q 639 1013 658 1032 q 590 993 619 993 z "},"Ū":{"ha":896,"x_min":121,"x_max":775,"o":"m 449 -17 q 281 20 356 -17 q 164 142 207 57 q 121 371 121 226 l 121 911 l 236 911 l 236 368 q 265 199 236 261 q 341 110 293 136 q 449 85 389 85 q 558 110 510 85 q 635 199 607 136 q 664 368 664 261 l 664 911 l 775 911 l 775 371 q 732 142 775 226 q 615 20 689 57 q 449 -17 542 -17 m 260 1021 l 260 1100 l 635 1100 l 635 1021 l 260 1021 z "},"Ŭ":{"ha":896,"x_min":121,"x_max":775,"o":"m 449 -17 q 281 20 356 -17 q 164 142 207 57 q 121 371 121 226 l 121 911 l 236 911 l 236 368 q 265 199 236 261 q 341 110 293 136 q 449 85 389 85 q 558 110 510 85 q 635 199 607 136 q 664 368 664 261 l 664 911 l 775 911 l 775 371 q 732 142 775 226 q 615 20 689 57 q 449 -17 542 -17 m 447 981 q 301 1034 350 981 q 244 1160 253 1088 l 314 1171 q 355 1088 322 1122 q 447 1054 388 1054 q 540 1088 507 1054 q 581 1171 572 1122 l 650 1160 q 593 1034 642 1088 q 447 981 544 981 z "},"Ů":{"ha":896,"x_min":121,"x_max":775,"o":"m 449 -17 q 281 20 356 -17 q 164 142 207 57 q 121 371 121 226 l 121 911 l 236 911 l 236 368 q 265 199 236 261 q 341 110 293 136 q 449 85 389 85 q 558 110 510 85 q 635 199 607 136 q 664 368 664 261 l 664 911 l 775 911 l 775 371 q 732 142 775 226 q 615 20 689 57 q 449 -17 542 -17 m 447 971 q 335 1004 378 971 q 293 1096 293 1038 q 335 1188 293 1154 q 447 1222 378 1222 q 559 1188 517 1222 q 601 1096 601 1154 q 559 1004 601 1038 q 447 971 517 971 m 447 1021 q 504 1040 482 1021 q 526 1096 526 1060 q 504 1153 526 1133 q 447 1172 482 1172 q 390 1153 413 1172 q 368 1096 368 1133 q 390 1040 368 1060 q 447 1021 413 1021 z "},"Ű":{"ha":896,"x_min":121,"x_max":782,"o":"m 449 -17 q 281 20 356 -17 q 164 142 207 57 q 121 371 121 226 l 121 911 l 236 911 l 236 368 q 265 199 236 261 q 341 110 293 136 q 449 85 389 85 q 558 110 510 85 q 635 199 607 136 q 664 368 664 261 l 664 911 l 775 911 l 775 371 q 732 142 775 226 q 615 20 689 57 q 449 -17 542 -17 m 256 981 l 403 1168 l 515 1168 l 522 1156 l 336 981 l 256 981 m 515 981 l 664 1168 l 775 1168 l 782 1156 l 596 981 l 515 981 z "},"Ǔ":{"ha":896,"x_min":121,"x_max":775,"o":"m 449 -17 q 281 20 356 -17 q 164 142 207 57 q 121 371 121 226 l 121 911 l 236 911 l 236 368 q 265 199 236 261 q 341 110 293 136 q 449 85 389 85 q 558 110 510 85 q 635 199 607 136 q 664 368 664 261 l 664 911 l 775 911 l 775 371 q 732 142 775 226 q 615 20 689 57 q 449 -17 542 -17 m 393 983 l 203 1168 l 300 1168 l 444 1060 l 450 1060 l 594 1168 l 692 1168 l 501 983 l 393 983 z "},"Ų":{"ha":896,"x_min":121,"x_max":775,"o":"m 467 -304 q 364 -272 407 -304 q 321 -176 321 -240 q 346 -86 321 -128 q 404 -15 371 -44 q 258 34 322 -7 q 158 158 194 75 q 121 376 121 242 l 121 911 l 236 911 l 236 374 q 265 200 236 264 q 341 110 293 136 q 449 83 389 83 q 558 110 510 83 q 635 200 607 136 q 664 374 664 264 l 664 911 l 775 911 l 775 376 q 710 107 775 197 q 525 -12 646 17 q 447 -65 478 -24 q 415 -149 415 -107 q 438 -201 415 -185 q 489 -218 460 -218 q 560 -194 528 -218 l 592 -260 q 536 -291 569 -278 q 467 -304 503 -304 z "},"Ǖ":{"ha":896,"x_min":121,"x_max":775,"o":"m 449 -17 q 281 20 356 -17 q 164 142 207 57 q 121 371 121 226 l 121 911 l 236 911 l 236 368 q 265 199 236 261 q 341 110 293 136 q 449 85 389 85 q 558 110 510 85 q 635 199 607 136 q 664 368 664 261 l 664 911 l 775 911 l 775 371 q 732 142 775 226 q 615 20 689 57 q 449 -17 542 -17 m 304 993 q 258 1012 276 993 q 239 1060 239 1031 q 258 1107 239 1089 q 304 1125 276 1125 q 352 1107 333 1125 q 371 1060 371 1089 q 352 1012 371 1031 q 304 993 333 993 m 590 993 q 542 1012 561 993 q 524 1060 524 1031 q 542 1107 524 1089 q 590 1125 561 1125 q 637 1107 618 1125 q 656 1060 656 1089 q 637 1012 656 1031 q 590 993 618 993 m 261 1196 l 261 1264 l 633 1264 l 633 1196 l 261 1196 z "},"Ǘ":{"ha":896,"x_min":121,"x_max":775,"o":"m 449 -17 q 281 20 356 -17 q 164 142 207 57 q 121 371 121 226 l 121 911 l 236 911 l 236 368 q 265 199 236 261 q 341 110 293 136 q 449 85 389 85 q 558 110 510 85 q 635 199 607 136 q 664 368 664 261 l 664 911 l 775 911 l 775 371 q 732 142 775 226 q 615 20 689 57 q 449 -17 542 -17 m 304 993 q 258 1012 276 993 q 239 1060 239 1031 q 258 1107 239 1089 q 304 1125 276 1125 q 352 1107 333 1125 q 371 1060 371 1089 q 352 1012 371 1031 q 304 993 333 993 m 590 993 q 542 1012 561 993 q 524 1060 524 1031 q 542 1107 524 1089 q 590 1125 561 1125 q 637 1107 618 1125 q 656 1060 656 1089 q 637 1012 656 1031 q 590 993 618 993 m 371 1160 l 492 1318 l 601 1318 l 608 1306 l 454 1160 l 371 1160 z "},"Ǚ":{"ha":896,"x_min":121,"x_max":775,"o":"m 449 -17 q 281 20 356 -17 q 164 142 207 57 q 121 371 121 226 l 121 911 l 236 911 l 236 368 q 265 199 236 261 q 341 110 293 136 q 449 85 389 85 q 558 110 510 85 q 635 199 607 136 q 664 368 664 261 l 664 911 l 775 911 l 775 371 q 732 142 775 226 q 615 20 689 57 q 449 -17 542 -17 m 304 993 q 258 1012 276 993 q 239 1060 239 1031 q 258 1107 239 1089 q 304 1125 276 1125 q 352 1107 333 1125 q 371 1060 371 1089 q 352 1012 371 1031 q 304 993 333 993 m 590 993 q 542 1012 561 993 q 524 1060 524 1031 q 542 1107 524 1089 q 590 1125 561 1125 q 637 1107 618 1125 q 656 1060 656 1089 q 637 1012 656 1031 q 590 993 618 993 m 397 1167 l 231 1314 l 321 1314 l 444 1235 l 450 1235 l 574 1314 l 664 1314 l 497 1167 l 397 1167 z "},"Ǜ":{"ha":896,"x_min":121,"x_max":775,"o":"m 449 -17 q 281 20 356 -17 q 164 142 207 57 q 121 371 121 226 l 121 911 l 236 911 l 236 368 q 265 199 236 261 q 341 110 293 136 q 449 85 389 85 q 558 110 510 85 q 635 199 607 136 q 664 368 664 261 l 664 911 l 775 911 l 775 371 q 732 142 775 226 q 615 20 689 57 q 449 -17 542 -17 m 304 993 q 258 1012 276 993 q 239 1060 239 1031 q 258 1107 239 1089 q 304 1125 276 1125 q 352 1107 333 1125 q 371 1060 371 1089 q 352 1012 371 1031 q 304 993 333 993 m 590 993 q 542 1012 561 993 q 524 1060 524 1031 q 542 1107 524 1089 q 590 1125 561 1125 q 637 1107 618 1125 q 656 1060 656 1089 q 637 1012 656 1031 q 590 993 618 993 m 440 1160 l 286 1306 l 293 1318 l 403 1318 l 524 1160 l 440 1160 z "},"Ṳ":{"ha":896,"x_min":121,"x_max":775,"o":"m 449 -17 q 281 20 356 -17 q 164 142 207 57 q 121 371 121 226 l 121 911 l 236 911 l 236 368 q 265 199 236 261 q 341 110 293 136 q 449 85 389 85 q 558 110 510 85 q 635 199 607 136 q 664 368 664 261 l 664 911 l 775 911 l 775 371 q 732 142 775 226 q 615 20 689 57 q 449 -17 542 -17 z "},"Ụ":{"ha":896,"x_min":121,"x_max":775,"o":"m 449 -17 q 281 20 356 -17 q 164 142 207 57 q 121 371 121 226 l 121 911 l 236 911 l 236 368 q 265 199 236 261 q 341 110 293 136 q 449 85 389 85 q 558 110 510 85 q 635 199 607 136 q 664 368 664 261 l 664 911 l 775 911 l 775 371 q 732 142 775 226 q 615 20 689 57 q 449 -17 542 -17 z "},"Ʉ":{"ha":951,"x_min":26,"x_max":922,"o":"m 476 -17 q 309 20 383 -17 q 192 142 235 57 q 149 371 149 226 l 149 456 l 26 456 l 26 539 l 149 546 l 149 911 l 264 911 l 264 546 l 692 546 l 692 911 l 803 911 l 803 546 l 922 546 l 922 456 l 803 456 l 803 371 q 760 142 803 226 q 643 20 717 57 q 476 -17 569 -17 m 264 368 q 292 199 264 261 q 369 110 321 136 q 476 85 417 85 q 586 110 538 85 q 663 199 635 136 q 692 368 692 261 l 692 456 l 264 456 l 264 368 z "},"Ủ":{"ha":896,"x_min":121,"x_max":775,"o":"m 449 -17 q 281 20 356 -17 q 164 142 207 57 q 121 371 121 226 l 121 911 l 236 911 l 236 368 q 265 199 236 261 q 341 110 293 136 q 449 85 389 85 q 558 110 510 85 q 635 199 607 136 q 664 368 664 261 l 664 911 l 775 911 l 775 371 q 732 142 775 226 q 615 20 689 57 q 449 -17 542 -17 m 403 974 l 390 1026 q 446 1051 424 1036 q 468 1092 468 1065 q 353 1156 468 1151 l 365 1224 q 506 1191 456 1221 q 557 1104 557 1161 q 510 1014 557 1043 q 403 974 464 985 z "},"Ư":{"ha":915,"x_min":121,"x_max":936,"o":"m 775 861 l 775 371 q 732 142 775 226 q 615 20 689 57 q 449 -17 542 -17 q 281 20 356 -17 q 164 142 207 57 q 121 371 121 226 l 121 911 l 236 911 l 236 368 q 265 199 236 261 q 341 110 293 136 q 449 85 389 85 q 558 110 510 85 q 635 199 607 136 q 664 368 664 261 l 664 911 l 710 911 q 801 943 767 918 q 835 1026 835 968 q 814 1107 835 1069 l 904 1146 q 928 1095 919 1124 q 936 1035 936 1067 q 890 915 936 954 q 775 861 843 876 z "},"Ứ":{"ha":915,"x_min":121,"x_max":936,"o":"m 775 861 l 775 371 q 732 142 775 226 q 615 20 689 57 q 449 -17 542 -17 q 281 20 356 -17 q 164 142 207 57 q 121 371 121 226 l 121 911 l 236 911 l 236 368 q 265 199 236 261 q 341 110 293 136 q 449 85 389 85 q 558 110 510 85 q 635 199 607 136 q 664 368 664 261 l 664 911 l 710 911 q 801 943 767 918 q 835 1026 835 968 q 814 1107 835 1069 l 904 1146 q 928 1095 919 1124 q 936 1035 936 1067 q 890 915 936 954 q 775 861 843 876 m 342 981 l 525 1168 l 665 1168 l 671 1156 l 444 981 l 342 981 z "},"Ừ":{"ha":915,"x_min":121,"x_max":936,"o":"m 775 861 l 775 371 q 732 142 775 226 q 615 20 689 57 q 449 -17 542 -17 q 281 20 356 -17 q 164 142 207 57 q 121 371 121 226 l 121 911 l 236 911 l 236 368 q 265 199 236 261 q 341 110 293 136 q 449 85 389 85 q 558 110 510 85 q 635 199 607 136 q 664 368 664 261 l 664 911 l 710 911 q 801 943 767 918 q 835 1026 835 968 q 814 1107 835 1069 l 904 1146 q 928 1095 919 1124 q 936 1035 936 1067 q 890 915 936 954 q 775 861 843 876 m 453 981 l 226 1156 l 232 1168 l 372 1168 l 556 981 l 453 981 z "},"Ử":{"ha":915,"x_min":121,"x_max":936,"o":"m 775 861 l 775 371 q 732 142 775 226 q 615 20 689 57 q 449 -17 542 -17 q 281 20 356 -17 q 164 142 207 57 q 121 371 121 226 l 121 911 l 236 911 l 236 368 q 265 199 236 261 q 341 110 293 136 q 449 85 389 85 q 558 110 510 85 q 635 199 607 136 q 664 368 664 261 l 664 911 l 710 911 q 801 943 767 918 q 835 1026 835 968 q 814 1107 835 1069 l 904 1146 q 928 1095 919 1124 q 936 1035 936 1067 q 890 915 936 954 q 775 861 843 876 m 404 974 l 392 1026 q 447 1051 425 1036 q 469 1092 469 1065 q 354 1156 469 1151 l 367 1224 q 508 1191 457 1221 q 558 1104 558 1161 q 512 1014 558 1043 q 404 974 465 985 z "},"Ữ":{"ha":915,"x_min":121,"x_max":936,"o":"m 775 861 l 775 371 q 732 142 775 226 q 615 20 689 57 q 449 -17 542 -17 q 281 20 356 -17 q 164 142 207 57 q 121 371 121 226 l 121 911 l 236 911 l 236 368 q 265 199 236 261 q 341 110 293 136 q 449 85 389 85 q 558 110 510 85 q 635 199 607 136 q 664 368 664 261 l 664 911 l 710 911 q 801 943 767 918 q 835 1026 835 968 q 814 1107 835 1069 l 904 1146 q 928 1095 919 1124 q 936 1035 936 1067 q 890 915 936 954 q 775 861 843 876 m 553 985 q 485 999 514 985 q 435 1034 457 1014 q 393 1069 414 1054 q 347 1083 372 1083 q 303 1060 321 1083 q 281 992 285 1036 l 203 997 q 244 1122 207 1076 q 344 1168 282 1168 q 412 1153 383 1168 q 462 1119 440 1139 q 504 1084 483 1099 q 550 1069 525 1069 q 617 1161 606 1069 l 694 1156 q 653 1030 690 1075 q 553 985 615 985 z "},"Ự":{"ha":915,"x_min":121,"x_max":936,"o":"m 775 861 l 775 371 q 732 142 775 226 q 615 20 689 57 q 449 -17 542 -17 q 281 20 356 -17 q 164 142 207 57 q 121 371 121 226 l 121 911 l 236 911 l 236 368 q 265 199 236 261 q 341 110 293 136 q 449 85 389 85 q 558 110 510 85 q 635 199 607 136 q 664 368 664 261 l 664 911 l 710 911 q 801 943 767 918 q 835 1026 835 968 q 814 1107 835 1069 l 904 1146 q 928 1095 919 1124 q 936 1035 936 1067 q 890 915 936 954 q 775 861 843 876 z "},"Ṿ":{"ha":715,"x_min":0,"x_max":715,"o":"m 286 0 l 0 911 l 124 911 l 264 419 q 308 269 288 338 q 353 118 329 200 l 358 118 q 401 269 382 200 q 446 419 421 338 l 597 911 l 715 911 l 421 0 l 286 0 z "},"Ẁ":{"ha":1092,"x_min":32,"x_max":1060,"o":"m 221 0 l 32 911 l 156 911 l 249 415 q 275 268 263 342 q 299 117 288 194 l 304 117 q 335 269 319 194 q 367 415 350 343 l 490 911 l 607 911 l 726 415 q 760 269 743 343 q 792 117 776 194 l 797 117 q 820 269 808 194 q 846 415 832 343 l 942 911 l 1060 911 l 869 0 l 721 0 l 590 547 q 569 651 579 600 q 549 761 560 701 l 543 761 q 524 651 535 701 q 503 547 514 600 l 369 0 l 221 0 m 550 981 l 324 1156 l 329 1168 l 469 1168 l 653 981 l 550 981 z "},"Ẃ":{"ha":1092,"x_min":32,"x_max":1060,"o":"m 221 0 l 32 911 l 156 911 l 249 415 q 275 268 263 342 q 299 117 288 194 l 304 117 q 335 269 319 194 q 367 415 350 343 l 490 911 l 607 911 l 726 415 q 760 269 743 343 q 792 117 776 194 l 797 117 q 820 269 808 194 q 846 415 832 343 l 942 911 l 1060 911 l 869 0 l 721 0 l 590 547 q 569 651 579 600 q 549 761 560 701 l 543 761 q 524 651 535 701 q 503 547 514 600 l 369 0 l 221 0 m 439 981 l 622 1168 l 763 1168 l 768 1156 l 542 981 l 439 981 z "},"Ŵ":{"ha":1092,"x_min":32,"x_max":1060,"o":"m 221 0 l 32 911 l 156 911 l 249 415 q 275 268 263 342 q 299 117 288 194 l 304 117 q 335 269 319 194 q 367 415 350 343 l 490 911 l 607 911 l 726 415 q 760 269 743 343 q 792 117 776 194 l 797 117 q 820 269 808 194 q 846 415 832 343 l 942 911 l 1060 911 l 869 0 l 721 0 l 590 547 q 569 651 579 600 q 549 761 560 701 l 543 761 q 524 651 535 701 q 503 547 514 600 l 369 0 l 221 0 m 301 981 l 492 1168 l 600 1168 l 790 981 l 693 981 l 549 1093 l 543 1093 l 399 981 l 301 981 z "},"Ẅ":{"ha":1092,"x_min":32,"x_max":1060,"o":"m 221 0 l 32 911 l 156 911 l 249 415 q 275 268 263 342 q 299 117 288 194 l 304 117 q 335 269 319 194 q 367 415 350 343 l 490 911 l 607 911 l 726 415 q 760 269 743 343 q 792 117 776 194 l 797 117 q 820 269 808 194 q 846 415 832 343 l 942 911 l 1060 911 l 869 0 l 721 0 l 590 547 q 569 651 579 600 q 549 761 560 701 l 543 761 q 524 651 535 701 q 503 547 514 600 l 369 0 l 221 0 m 403 993 q 354 1013 374 993 q 335 1061 335 1032 q 354 1110 335 1092 q 403 1129 374 1129 q 452 1110 433 1129 q 471 1061 471 1092 q 452 1013 471 1032 q 403 993 433 993 m 689 993 q 640 1013 658 993 q 621 1061 621 1032 q 640 1110 621 1092 q 689 1129 658 1129 q 738 1110 718 1129 q 757 1061 757 1092 q 738 1013 757 1032 q 689 993 718 993 z "},"Ỳ":{"ha":661,"x_min":-1,"x_max":663,"o":"m 272 0 l 272 353 l -1 911 l 122 911 l 240 654 q 284 556 263 604 q 328 456 306 507 l 333 456 q 381 556 357 507 q 425 654 404 604 l 542 911 l 663 911 l 389 353 l 389 0 l 272 0 m 335 981 l 108 1156 l 114 1168 l 254 1168 l 438 981 l 335 981 z "},"Ý":{"ha":661,"x_min":-1,"x_max":663,"o":"m 272 0 l 272 353 l -1 911 l 122 911 l 240 654 q 284 556 263 604 q 328 456 306 507 l 333 456 q 381 556 357 507 q 425 654 404 604 l 542 911 l 663 911 l 389 353 l 389 0 l 272 0 m 224 981 l 407 1168 l 547 1168 l 553 1156 l 326 981 l 224 981 z "},"Ŷ":{"ha":661,"x_min":-1,"x_max":663,"o":"m 272 0 l 272 353 l -1 911 l 122 911 l 240 654 q 284 556 263 604 q 328 456 306 507 l 333 456 q 381 556 357 507 q 425 654 404 604 l 542 911 l 663 911 l 389 353 l 389 0 l 272 0 m 86 981 l 276 1168 l 385 1168 l 575 981 l 478 981 l 333 1093 l 328 1093 l 183 981 l 86 981 z "},"Ỹ":{"ha":661,"x_min":-1,"x_max":663,"o":"m 272 0 l 272 353 l -1 911 l 122 911 l 240 654 q 284 556 263 604 q 328 456 306 507 l 333 456 q 381 556 357 507 q 425 654 404 604 l 542 911 l 663 911 l 389 353 l 389 0 l 272 0 m 435 985 q 367 999 396 985 q 317 1034 339 1014 q 275 1069 296 1054 q 229 1083 254 1083 q 185 1060 203 1083 q 163 992 167 1036 l 85 997 q 126 1122 89 1076 q 226 1168 164 1168 q 294 1153 265 1168 q 344 1119 322 1139 q 386 1084 365 1099 q 432 1069 407 1069 q 499 1161 488 1069 l 576 1156 q 535 1030 572 1075 q 435 985 497 985 z "},"Ÿ":{"ha":661,"x_min":-1,"x_max":663,"o":"m 272 0 l 272 353 l -1 911 l 122 911 l 240 654 q 284 556 263 604 q 328 456 306 507 l 333 456 q 381 556 357 507 q 425 654 404 604 l 542 911 l 663 911 l 389 353 l 389 0 l 272 0 m 188 993 q 139 1013 158 993 q 119 1061 119 1032 q 139 1110 119 1092 q 188 1129 158 1129 q 237 1110 218 1129 q 256 1061 256 1092 q 237 1013 256 1032 q 188 993 218 993 m 474 993 q 424 1013 443 993 q 406 1061 406 1032 q 424 1110 406 1092 q 474 1129 443 1129 q 522 1110 503 1129 q 542 1061 542 1092 q 522 1013 542 1032 q 474 993 503 993 z "},"Ẏ":{"ha":661,"x_min":-1,"x_max":663,"o":"m 272 0 l 272 353 l -1 911 l 122 911 l 240 654 q 284 556 263 604 q 328 456 306 507 l 333 456 q 381 556 357 507 q 425 654 404 604 l 542 911 l 663 911 l 389 353 l 389 0 l 272 0 m 331 992 q 274 1013 297 992 q 251 1067 251 1033 q 274 1119 251 1099 q 331 1140 297 1140 q 387 1119 364 1140 q 410 1067 410 1099 q 387 1013 410 1033 q 331 992 364 992 z "},"Ỵ":{"ha":661,"x_min":-1,"x_max":663,"o":"m 272 0 l 272 353 l -1 911 l 122 911 l 240 654 q 284 556 263 604 q 328 456 306 507 l 333 456 q 381 556 357 507 q 425 654 404 604 l 542 911 l 663 911 l 389 353 l 389 0 l 272 0 z "},"Ỷ":{"ha":661,"x_min":-1,"x_max":663,"o":"m 272 0 l 272 353 l -1 911 l 122 911 l 240 654 q 284 556 263 604 q 328 456 306 507 l 333 456 q 381 556 357 507 q 425 654 404 604 l 542 911 l 663 911 l 389 353 l 389 0 l 272 0 m 286 974 l 274 1026 q 329 1051 307 1036 q 351 1092 351 1065 q 236 1156 351 1151 l 249 1224 q 390 1191 339 1221 q 440 1104 440 1161 q 394 1014 440 1043 q 286 974 347 985 z "},"Ź":{"ha":749,"x_min":63,"x_max":690,"o":"m 63 0 l 63 69 l 542 814 l 106 814 l 106 911 l 686 911 l 686 843 l 206 99 l 690 99 l 690 0 l 63 0 m 282 981 l 465 1168 l 606 1168 l 611 1156 l 385 981 l 282 981 z "},"Ẑ":{"ha":749,"x_min":63,"x_max":690,"o":"m 63 0 l 63 69 l 542 814 l 106 814 l 106 911 l 686 911 l 686 843 l 206 99 l 690 99 l 690 0 l 63 0 m 144 981 l 335 1168 l 443 1168 l 633 981 l 536 981 l 392 1093 l 386 1093 l 242 981 l 144 981 z "},"Ż":{"ha":749,"x_min":63,"x_max":690,"o":"m 63 0 l 63 69 l 542 814 l 106 814 l 106 911 l 686 911 l 686 843 l 206 99 l 690 99 l 690 0 l 63 0 m 389 992 q 333 1013 356 992 q 310 1067 310 1033 q 333 1119 310 1099 q 389 1140 356 1140 q 445 1119 422 1140 q 468 1067 468 1099 q 445 1013 468 1033 q 389 992 422 992 z "},"Ž":{"ha":749,"x_min":63,"x_max":690,"o":"m 63 0 l 63 69 l 542 814 l 106 814 l 106 911 l 686 911 l 686 843 l 206 99 l 690 99 l 690 0 l 63 0 m 335 983 l 144 1168 l 242 1168 l 386 1060 l 392 1060 l 536 1168 l 633 1168 l 443 983 l 335 983 z "},"Ẓ":{"ha":749,"x_min":63,"x_max":690,"o":"m 63 0 l 63 69 l 542 814 l 106 814 l 106 911 l 686 911 l 686 843 l 206 99 l 690 99 l 690 0 l 63 0 z "},"Ẕ":{"ha":749,"x_min":63,"x_max":690,"o":"m 63 0 l 63 69 l 542 814 l 106 814 l 106 911 l 686 911 l 686 843 l 206 99 l 690 99 l 690 0 l 63 0 z "},"Ð":{"ha":888,"x_min":38,"x_max":817,"o":"m 158 0 l 158 435 l 38 435 l 38 518 l 158 525 l 158 911 l 386 911 q 707 794 597 911 q 817 460 817 676 q 708 121 817 242 q 392 0 599 0 l 158 0 m 274 94 l 378 94 q 617 191 538 94 q 697 460 697 288 q 617 724 697 632 q 378 817 538 817 l 274 817 l 274 525 l 481 525 l 481 435 l 274 435 l 274 94 z "},"Þ":{"ha":810,"x_min":125,"x_max":740,"o":"m 125 0 l 125 911 l 240 911 l 240 758 l 404 758 q 581 733 506 758 q 698 649 656 707 q 740 490 740 590 q 647 277 740 346 q 404 208 554 208 l 240 208 l 240 0 l 125 0 m 240 303 l 390 303 q 567 348 510 303 q 625 490 625 393 q 567 626 625 589 q 390 664 508 664 l 240 664 l 240 303 z "},"Ƿ":{"ha":786,"x_min":125,"x_max":726,"o":"m 125 -212 l 125 911 l 238 911 l 238 799 q 349 890 286 851 q 485 928 413 928 q 659 860 592 928 q 726 636 726 793 q 681 421 726 529 q 528 206 635 313 q 240 -3 422 99 l 240 -212 l 125 -212 m 240 103 q 465 283 385 194 q 578 459 546 372 q 611 628 611 546 q 567 783 611 739 q 456 826 524 826 q 342 787 403 826 q 240 690 282 747 l 240 103 z "},"Ȝ":{"ha":690,"x_min":35,"x_max":633,"o":"m 150 -229 l 106 -144 q 348 -14 258 -78 q 477 111 438 50 q 517 229 517 172 q 476 335 517 297 q 367 372 435 372 q 291 364 328 372 q 206 328 254 356 l 164 399 q 351 519 288 469 q 438 610 415 568 q 461 697 461 653 q 426 792 461 758 q 332 826 390 826 q 211 796 264 826 q 93 704 158 765 l 35 771 q 183 889 111 850 q 353 928 254 928 q 517 873 456 928 q 578 726 578 818 q 531 580 578 643 q 390 454 485 517 q 566 404 499 460 q 633 243 633 349 q 518 -12 633 100 q 150 -229 403 -125 z "},"Ʒ":{"ha":764,"x_min":53,"x_max":708,"o":"m 390 -17 q 203 13 285 -17 q 53 118 122 43 l 117 190 q 240 108 175 131 q 379 85 304 85 q 532 131 469 85 q 594 267 594 178 q 538 395 594 350 q 396 440 482 440 q 332 436 356 440 q 281 421 308 432 l 235 490 l 540 814 l 110 814 l 110 911 l 690 911 l 690 839 l 394 518 q 562 496 492 525 q 670 408 632 467 q 708 271 708 350 q 665 115 708 179 q 549 17 621 50 q 390 -17 476 -17 z "},"Ǯ":{"ha":764,"x_min":53,"x_max":708,"o":"m 390 -17 q 203 13 285 -17 q 53 118 122 43 l 117 190 q 240 108 175 131 q 379 85 304 85 q 532 131 469 85 q 594 267 594 178 q 538 395 594 350 q 396 440 482 440 q 332 436 356 440 q 281 421 308 432 l 235 490 l 540 814 l 110 814 l 110 911 l 690 911 l 690 839 l 394 518 q 562 496 492 525 q 670 408 632 467 q 708 271 708 350 q 665 115 708 179 q 549 17 621 50 q 390 -17 476 -17 m 343 983 l 153 1168 l 250 1168 l 394 1060 l 400 1060 l 544 1168 l 642 1168 l 451 983 l 343 983 z "},"Ə":{"ha":900,"x_min":81,"x_max":828,"o":"m 454 -17 q 182 101 283 -17 q 81 442 81 218 q 81 465 81 453 q 83 486 82 476 l 714 486 q 638 743 708 654 q 447 832 568 832 q 306 805 367 832 q 196 733 244 778 l 135 803 q 269 892 192 857 q 451 928 347 928 q 726 807 625 928 q 828 458 828 686 q 726 103 828 224 q 454 -17 624 -17 m 454 79 q 633 159 565 79 q 713 399 701 239 l 197 399 q 272 161 200 243 q 454 79 343 79 z "},"Ꝺ":{"ha":922,"x_min":39,"x_max":851,"o":"m 464 -17 q 265 37 351 -17 q 128 188 178 90 q 79 419 79 286 q 136 664 79 563 q 274 811 193 765 l 274 817 l 39 817 l 39 911 l 399 911 q 733 795 614 911 q 851 450 851 679 q 802 202 851 307 q 665 40 753 97 q 464 -17 578 -17 m 467 85 q 606 131 547 85 q 698 263 665 178 q 731 460 731 347 q 654 720 731 628 q 454 813 578 813 q 322 761 379 813 q 232 624 264 710 q 200 435 200 539 q 273 178 200 272 q 467 85 346 85 z "},"Ꝼ":{"ha":786,"x_min":125,"x_max":731,"o":"m 125 -212 l 125 911 l 238 911 l 238 800 q 348 891 285 854 q 482 928 411 928 q 664 854 597 928 q 731 607 731 781 l 731 524 l 614 510 l 614 593 q 572 776 614 725 q 451 826 529 826 q 340 788 400 826 q 240 693 281 750 l 240 99 l 628 99 l 628 0 l 240 0 l 240 -212 l 125 -212 z "},"Ᵹ":{"ha":838,"x_min":43,"x_max":806,"o":"m 425 -229 q 246 -204 325 -229 q 121 -126 167 -179 q 75 13 75 -72 q 137 169 75 103 q 300 282 199 236 l 300 288 q 172 397 225 332 q 119 567 119 461 q 168 718 119 656 q 290 811 217 781 l 290 817 l 43 817 l 43 911 l 779 911 l 779 814 l 543 814 q 371 781 439 814 q 269 697 303 749 q 236 585 236 644 q 302 428 236 490 q 515 313 368 367 q 681 243 617 276 q 775 164 744 210 q 806 43 806 118 q 762 -95 806 -33 q 633 -193 718 -157 q 425 -229 549 -229 m 435 -133 q 625 -83 563 -133 q 688 35 688 -33 q 663 112 688 82 q 594 163 638 142 q 493 202 550 183 q 372 246 436 221 q 229 146 276 199 q 182 26 182 93 q 251 -93 182 -53 q 435 -133 321 -133 z "},"Ꝿ":{"ha":838,"x_min":32,"x_max":794,"o":"m 413 928 q 592 903 514 928 q 717 824 671 878 q 763 686 763 771 q 701 530 763 597 q 538 417 639 463 l 538 411 q 665 303 613 368 q 718 132 718 239 q 669 -19 718 43 q 547 -112 621 -82 l 547 -118 l 794 -118 l 794 -212 l 58 -212 l 58 -115 l 294 -115 q 467 -83 399 -115 q 568 2 535 -50 q 601 114 601 54 q 535 270 601 208 q 322 386 469 332 q 157 457 221 424 q 63 536 93 490 q 32 656 32 582 q 76 794 32 733 q 205 892 119 856 q 413 928 290 928 m 403 832 q 213 782 276 832 q 150 664 150 732 q 175 587 150 617 q 244 536 200 557 q 344 497 288 515 q 465 453 401 478 q 608 553 561 500 q 656 672 656 606 q 587 792 656 751 q 403 832 518 832 z "},"Ꞁ":{"ha":675,"x_min":36,"x_max":550,"o":"m 550 911 l 550 0 l 435 0 l 435 813 l 36 813 l 36 911 l 550 911 z "},"Ꞃ":{"ha":790,"x_min":125,"x_max":758,"o":"m 240 690 l 240 263 q 452 411 374 340 q 565 549 531 482 q 599 679 599 615 q 561 789 599 751 q 458 826 524 826 q 347 795 406 826 q 240 690 289 764 m 125 -212 l 125 911 l 238 911 l 238 799 q 351 897 290 865 q 485 928 413 928 q 653 869 590 928 q 715 699 715 810 q 622 453 715 567 q 335 219 529 339 q 447 115 371 149 q 632 81 524 81 q 691 84 665 81 q 736 93 717 88 l 758 6 q 700 -10 736 -3 q 621 -17 664 -17 q 386 33 483 -17 q 240 186 289 82 l 240 -212 l 125 -212 z "},"Ꝛ":{"ha":656,"x_min":60,"x_max":621,"o":"m 472 -17 q 208 48 313 -17 q 64 249 104 113 q 303 402 217 329 q 426 544 390 475 q 463 679 463 613 q 424 789 463 751 q 315 826 385 826 q 210 804 257 826 q 119 738 164 782 l 60 800 q 183 894 118 861 q 333 928 249 928 q 510 869 443 928 q 578 699 578 810 q 486 448 578 565 q 192 215 394 331 q 479 81 264 81 q 547 85 518 81 q 599 94 576 89 l 621 8 q 559 -9 599 -1 q 472 -17 519 -17 z "},"Ꞅ":{"ha":786,"x_min":125,"x_max":731,"o":"m 125 -212 l 125 911 l 238 911 l 238 800 q 348 891 285 854 q 482 928 411 928 q 664 854 597 928 q 731 607 731 781 l 731 524 l 614 510 l 614 593 q 572 776 614 725 q 451 826 529 826 q 340 788 400 826 q 240 693 281 750 l 240 -212 l 125 -212 z "},"Ꞇ":{"ha":744,"x_min":39,"x_max":706,"o":"m 425 -17 q 242 28 321 -17 q 117 159 163 74 q 72 363 72 244 q 113 563 72 472 q 215 717 154 653 q 336 811 276 782 l 336 817 l 39 817 l 39 911 l 706 911 l 706 814 l 567 814 q 411 774 481 814 q 292 667 342 733 q 217 525 243 601 q 192 375 192 449 q 258 162 192 239 q 435 85 324 85 q 633 172 553 85 l 694 106 q 576 14 642 44 q 425 -17 511 -17 z "},"Ɣ":{"ha":715,"x_min":0,"x_max":715,"o":"m 356 -311 q 230 -267 271 -311 q 189 -154 189 -224 q 210 -55 189 -107 q 271 69 232 -3 l 0 911 l 124 911 l 264 435 q 308 285 289 354 q 353 132 326 217 l 358 132 q 402 285 383 217 q 446 435 421 354 l 597 911 l 715 911 l 438 71 q 499 -55 478 -3 q 521 -154 521 -107 q 480 -267 521 -224 q 356 -311 439 -311 m 356 -232 q 403 -210 388 -232 q 418 -158 418 -189 q 402 -78 418 -121 q 357 14 386 -36 l 351 14 q 308 -78 325 -36 q 292 -158 292 -121 q 308 -210 292 -189 q 356 -232 324 -232 z "},"Ɩ":{"ha":365,"x_min":125,"x_max":326,"o":"m 254 -12 q 156 28 186 -12 q 125 144 125 68 l 125 911 l 240 911 l 240 142 q 253 99 240 110 q 281 88 265 88 q 310 92 293 88 l 326 1 q 254 -12 299 -12 z "},"Ʊ":{"ha":942,"x_min":63,"x_max":879,"o":"m 879 911 l 879 817 l 697 817 l 697 811 q 774 717 738 772 q 835 588 811 661 q 860 424 860 515 q 812 197 860 296 q 676 40 764 97 q 471 -17 589 -17 q 265 40 353 -17 q 129 197 178 97 q 81 424 81 296 q 105 588 81 515 q 167 717 129 661 q 244 811 206 772 l 244 817 l 63 817 l 63 911 l 386 911 l 386 826 q 254 670 308 765 q 200 431 200 575 q 233 253 200 332 q 326 130 265 175 q 471 85 386 85 q 616 130 556 85 q 708 253 676 175 q 740 431 740 332 q 687 670 740 575 q 556 826 633 765 l 556 911 l 879 911 z "},"Ꭓ":{"ha":703,"x_min":15,"x_max":688,"o":"m 15 -256 l 282 349 l 33 911 l 161 911 l 286 613 q 319 534 303 574 q 357 443 335 494 l 363 443 q 395 534 381 494 q 426 613 410 574 l 547 911 l 669 911 l 422 340 l 688 -256 l 560 -256 l 425 61 q 388 151 407 106 q 347 249 369 196 l 342 249 q 305 151 322 196 q 269 61 288 106 l 138 -256 l 15 -256 z "},"Ɂ":{"ha":669,"x_min":0,"x_max":626,"o":"m 244 0 l 244 381 q 448 501 389 433 q 507 653 507 568 q 452 780 507 733 q 303 826 397 826 q 169 796 232 826 q 64 725 107 765 l 0 800 q 130 890 51 851 q 310 928 208 928 q 469 897 397 928 q 583 807 540 867 q 626 660 626 747 q 554 460 626 542 q 360 325 482 378 l 360 0 l 244 0 z "},"Ꜣ":{"ha":401,"x_min":71,"x_max":338,"o":"m 108 -17 l 93 50 q 201 91 160 60 q 242 169 242 122 q 236 202 242 189 q 222 224 231 215 q 157 186 204 186 q 96 209 121 186 q 71 269 71 232 q 100 338 71 313 q 181 364 129 364 q 293 318 249 364 q 338 194 338 272 q 278 47 338 101 q 108 -17 218 -8 m 108 546 l 93 613 q 201 654 160 624 q 242 732 242 685 q 236 765 242 751 q 222 786 231 778 q 196 760 214 769 q 157 750 178 750 q 96 773 121 750 q 71 832 71 796 q 100 901 71 875 q 181 926 129 926 q 293 881 249 926 q 338 758 338 836 q 278 610 338 665 q 108 546 218 554 z "},"Ꜥ":{"ha":401,"x_min":64,"x_max":331,"o":"m 293 536 q 124 602 183 544 q 64 750 64 660 q 109 881 64 835 q 218 926 154 926 q 301 901 272 926 q 331 832 331 875 q 306 773 331 796 q 244 750 281 750 q 179 788 199 750 q 161 736 161 769 q 201 648 161 683 q 308 603 242 613 l 293 536 z "},"à":{"ha":700,"x_min":71,"x_max":601,"o":"m 269 -17 q 128 33 185 -17 q 71 175 71 83 q 171 347 71 289 q 488 429 271 406 q 475 510 488 472 q 433 572 463 547 q 347 596 403 596 q 238 574 289 596 q 146 526 186 551 l 101 604 q 217 664 149 636 q 367 692 286 692 q 546 616 490 692 q 601 414 601 540 l 601 0 l 507 0 l 497 81 l 493 81 q 388 12 443 40 q 269 -17 333 -17 m 301 78 q 394 100 350 78 q 488 165 439 122 l 488 347 q 307 313 374 335 q 212 258 240 290 q 183 182 183 226 q 218 102 183 126 q 301 78 253 78 m 386 792 l 167 1008 l 174 1021 l 299 1021 l 478 792 l 386 792 z "},"á":{"ha":700,"x_min":71,"x_max":601,"o":"m 269 -17 q 128 33 185 -17 q 71 175 71 83 q 171 347 71 289 q 488 429 271 406 q 475 510 488 472 q 433 572 463 547 q 347 596 403 596 q 238 574 289 596 q 146 526 186 551 l 101 604 q 217 664 149 636 q 367 692 286 692 q 546 616 490 692 q 601 414 601 540 l 601 0 l 507 0 l 497 81 l 493 81 q 388 12 443 40 q 269 -17 333 -17 m 301 78 q 394 100 350 78 q 488 165 439 122 l 488 347 q 307 313 374 335 q 212 258 240 290 q 183 182 183 226 q 218 102 183 126 q 301 78 253 78 m 264 792 l 443 1021 l 568 1021 l 575 1008 l 356 792 l 264 792 z "},"â":{"ha":700,"x_min":71,"x_max":610,"o":"m 269 -17 q 128 33 185 -17 q 71 175 71 83 q 171 347 71 289 q 488 429 271 406 q 475 510 488 472 q 433 572 463 547 q 347 596 403 596 q 238 574 289 596 q 146 526 186 551 l 101 604 q 217 664 149 636 q 367 692 286 692 q 546 616 490 692 q 601 414 601 540 l 601 0 l 507 0 l 497 81 l 493 81 q 388 12 443 40 q 269 -17 333 -17 m 301 78 q 394 100 350 78 q 488 165 439 122 l 488 347 q 307 313 374 335 q 212 258 240 290 q 183 182 183 226 q 218 102 183 126 q 301 78 253 78 m 132 792 l 321 1021 l 421 1021 l 610 792 l 517 792 l 374 935 l 368 935 l 225 792 l 132 792 z "},"ã":{"ha":700,"x_min":71,"x_max":611,"o":"m 269 -17 q 128 33 185 -17 q 71 175 71 83 q 171 347 71 289 q 488 429 271 406 q 475 510 488 472 q 433 572 463 547 q 347 596 403 596 q 238 574 289 596 q 146 526 186 551 l 101 604 q 217 664 149 636 q 367 692 286 692 q 546 616 490 692 q 601 414 601 540 l 601 0 l 507 0 l 497 81 l 493 81 q 388 12 443 40 q 269 -17 333 -17 m 301 78 q 394 100 350 78 q 488 165 439 122 l 488 347 q 307 313 374 335 q 212 258 240 290 q 183 182 183 226 q 218 102 183 126 q 301 78 253 78 m 471 801 q 407 819 433 801 q 359 860 381 836 q 317 901 338 883 q 272 918 296 918 q 226 888 242 918 q 207 808 210 857 l 131 813 q 166 948 133 894 q 271 1001 199 1001 q 335 984 308 1001 q 383 943 361 967 q 426 902 406 919 q 471 885 446 885 q 517 916 501 885 q 535 994 532 947 l 611 989 q 576 855 608 908 q 471 801 543 801 z "},"ä":{"ha":700,"x_min":71,"x_max":601,"o":"m 269 -17 q 128 33 185 -17 q 71 175 71 83 q 171 347 71 289 q 488 429 271 406 q 475 510 488 472 q 433 572 463 547 q 347 596 403 596 q 238 574 289 596 q 146 526 186 551 l 101 604 q 217 664 149 636 q 367 692 286 692 q 546 616 490 692 q 601 414 601 540 l 601 0 l 507 0 l 497 81 l 493 81 q 388 12 443 40 q 269 -17 333 -17 m 301 78 q 394 100 350 78 q 488 165 439 122 l 488 347 q 307 313 374 335 q 212 258 240 290 q 183 182 183 226 q 218 102 183 126 q 301 78 253 78 m 238 815 q 188 835 207 815 q 168 885 168 856 q 188 934 168 914 q 238 954 207 954 q 286 934 267 954 q 306 885 306 914 q 286 835 306 856 q 238 815 267 815 m 504 815 q 456 835 475 815 q 436 885 436 856 q 456 934 436 914 q 504 954 475 954 q 554 934 535 954 q 574 885 574 914 q 554 835 574 856 q 504 815 535 815 z "},"å":{"ha":700,"x_min":71,"x_max":601,"o":"m 269 -17 q 128 33 185 -17 q 71 175 71 83 q 171 347 71 289 q 488 429 271 406 q 475 510 488 472 q 433 572 463 547 q 347 596 403 596 q 238 574 289 596 q 146 526 186 551 l 101 604 q 217 664 149 636 q 367 692 286 692 q 546 616 490 692 q 601 414 601 540 l 601 0 l 507 0 l 497 81 l 493 81 q 388 12 443 40 q 269 -17 333 -17 m 301 78 q 394 100 350 78 q 488 165 439 122 l 488 347 q 307 313 374 335 q 212 258 240 290 q 183 182 183 226 q 218 102 183 126 q 301 78 253 78 m 371 769 q 260 808 301 769 q 218 907 218 847 q 260 1004 218 965 q 371 1043 301 1043 q 482 1004 440 1043 q 524 907 524 965 q 482 808 524 847 q 371 769 440 769 m 371 821 q 427 844 404 821 q 450 907 450 868 q 427 969 450 946 q 371 992 404 992 q 315 969 338 992 q 292 907 292 946 q 315 844 292 868 q 371 821 338 821 z "},"ā":{"ha":700,"x_min":71,"x_max":601,"o":"m 269 -17 q 128 33 185 -17 q 71 175 71 83 q 171 347 71 289 q 488 429 271 406 q 475 510 488 472 q 433 572 463 547 q 347 596 403 596 q 238 574 289 596 q 146 526 186 551 l 101 604 q 217 664 149 636 q 367 692 286 692 q 546 616 490 692 q 601 414 601 540 l 601 0 l 507 0 l 497 81 l 493 81 q 388 12 443 40 q 269 -17 333 -17 m 301 78 q 394 100 350 78 q 488 165 439 122 l 488 347 q 307 313 374 335 q 212 258 240 290 q 183 182 183 226 q 218 102 183 126 q 301 78 253 78 m 186 835 l 186 914 l 556 914 l 556 835 l 186 835 z "},"ă":{"ha":700,"x_min":71,"x_max":601,"o":"m 269 -17 q 128 33 185 -17 q 71 175 71 83 q 171 347 71 289 q 488 429 271 406 q 475 510 488 472 q 433 572 463 547 q 347 596 403 596 q 238 574 289 596 q 146 526 186 551 l 101 604 q 217 664 149 636 q 367 692 286 692 q 546 616 490 692 q 601 414 601 540 l 601 0 l 507 0 l 497 81 l 493 81 q 388 12 443 40 q 269 -17 333 -17 m 301 78 q 394 100 350 78 q 488 165 439 122 l 488 347 q 307 313 374 335 q 212 258 240 290 q 183 182 183 226 q 218 102 183 126 q 301 78 253 78 m 371 790 q 251 822 297 790 q 181 901 204 853 q 154 1000 158 950 l 225 1013 q 268 913 233 958 q 371 868 303 868 q 474 913 439 868 q 517 1013 508 958 l 588 1000 q 562 901 585 950 q 492 822 539 853 q 371 790 446 790 z "},"ȧ":{"ha":700,"x_min":71,"x_max":601,"o":"m 269 -17 q 128 33 185 -17 q 71 175 71 83 q 171 347 71 289 q 488 429 271 406 q 475 510 488 472 q 433 572 463 547 q 347 596 403 596 q 238 574 289 596 q 146 526 186 551 l 101 604 q 217 664 149 636 q 367 692 286 692 q 546 616 490 692 q 601 414 601 540 l 601 0 l 507 0 l 497 81 l 493 81 q 388 12 443 40 q 269 -17 333 -17 m 301 78 q 394 100 350 78 q 488 165 439 122 l 488 347 q 307 313 374 335 q 212 258 240 290 q 183 182 183 226 q 218 102 183 126 q 301 78 253 78 m 371 814 q 316 834 338 814 q 294 889 294 854 q 316 943 294 922 q 371 964 338 964 q 426 943 404 964 q 447 889 447 922 q 426 834 447 854 q 371 814 404 814 z "},"ǎ":{"ha":700,"x_min":71,"x_max":610,"o":"m 269 -17 q 128 33 185 -17 q 71 175 71 83 q 171 347 71 289 q 488 429 271 406 q 475 510 488 472 q 433 572 463 547 q 347 596 403 596 q 238 574 289 596 q 146 526 186 551 l 101 604 q 217 664 149 636 q 367 692 286 692 q 546 616 490 692 q 601 414 601 540 l 601 0 l 507 0 l 497 81 l 493 81 q 388 12 443 40 q 269 -17 333 -17 m 301 78 q 394 100 350 78 q 488 165 439 122 l 488 347 q 307 313 374 335 q 212 258 240 290 q 183 182 183 226 q 218 102 183 126 q 301 78 253 78 m 321 792 l 132 1021 l 225 1021 l 368 878 l 374 878 l 517 1021 l 610 1021 l 421 792 l 321 792 z "},"ȁ":{"ha":700,"x_min":71,"x_max":601,"o":"m 269 -17 q 128 33 185 -17 q 71 175 71 83 q 171 347 71 289 q 488 429 271 406 q 475 510 488 472 q 433 572 463 547 q 347 596 403 596 q 238 574 289 596 q 146 526 186 551 l 101 604 q 217 664 149 636 q 367 692 286 692 q 546 616 490 692 q 601 414 601 540 l 601 0 l 507 0 l 497 81 l 493 81 q 388 12 443 40 q 269 -17 333 -17 m 301 78 q 394 100 350 78 q 488 165 439 122 l 488 347 q 307 313 374 335 q 212 258 240 290 q 183 182 183 226 q 218 102 183 126 q 301 78 253 78 m 233 793 l 82 1011 l 89 1024 l 183 1024 l 303 793 l 233 793 m 458 793 l 306 1011 l 313 1024 l 407 1024 l 526 793 l 458 793 z "},"ą":{"ha":700,"x_min":71,"x_max":661,"o":"m 539 -299 q 440 -267 481 -299 q 400 -169 400 -236 q 434 -68 400 -114 q 507 4 468 -22 l 497 81 l 493 81 q 388 12 443 40 q 269 -17 333 -17 q 128 33 185 -17 q 71 175 71 83 q 171 347 71 289 q 488 429 271 406 q 475 510 488 472 q 433 572 463 547 q 347 596 403 596 q 238 574 289 596 q 146 526 186 551 l 101 604 q 217 664 149 636 q 367 692 286 692 q 546 616 490 692 q 601 414 601 540 l 601 0 q 521 -65 551 -22 q 490 -147 490 -107 q 513 -199 490 -182 q 561 -215 535 -215 q 599 -209 582 -215 q 632 -192 615 -203 l 661 -256 q 606 -286 639 -274 q 539 -299 574 -299 m 301 78 q 394 100 350 78 q 488 165 439 122 l 488 347 q 307 313 374 335 q 212 258 240 290 q 183 182 183 226 q 218 102 183 126 q 301 78 253 78 z "},"ạ":{"ha":700,"x_min":71,"x_max":601,"o":"m 269 -17 q 128 33 185 -17 q 71 175 71 83 q 171 347 71 289 q 488 429 271 406 q 475 510 488 472 q 433 572 463 547 q 347 596 403 596 q 238 574 289 596 q 146 526 186 551 l 101 604 q 217 664 149 636 q 367 692 286 692 q 546 616 490 692 q 601 414 601 540 l 601 0 l 507 0 l 497 81 l 493 81 q 388 12 443 40 q 269 -17 333 -17 m 301 78 q 394 100 350 78 q 488 165 439 122 l 488 347 q 307 313 374 335 q 212 258 240 290 q 183 182 183 226 q 218 102 183 126 q 301 78 253 78 z "},"ả":{"ha":700,"x_min":71,"x_max":601,"o":"m 269 -17 q 128 33 185 -17 q 71 175 71 83 q 171 347 71 289 q 488 429 271 406 q 475 510 488 472 q 433 572 463 547 q 347 596 403 596 q 238 574 289 596 q 146 526 186 551 l 101 604 q 217 664 149 636 q 367 692 286 692 q 546 616 490 692 q 601 414 601 540 l 601 0 l 507 0 l 497 81 l 493 81 q 388 12 443 40 q 269 -17 333 -17 m 301 78 q 394 100 350 78 q 488 165 439 122 l 488 347 q 307 313 374 335 q 212 258 240 290 q 183 182 183 226 q 218 102 183 126 q 301 78 253 78 m 326 778 l 314 833 q 370 865 349 843 q 392 914 392 886 q 276 981 392 976 l 283 1051 q 430 1021 378 1050 q 482 931 482 992 q 435 827 482 865 q 326 778 389 789 z "},"ấ":{"ha":700,"x_min":71,"x_max":708,"o":"m 269 -17 q 128 33 185 -17 q 71 175 71 83 q 171 347 71 289 q 488 429 271 406 q 475 510 488 472 q 433 572 463 547 q 347 596 403 596 q 238 574 289 596 q 146 526 186 551 l 101 604 q 217 664 149 636 q 367 692 286 692 q 546 616 490 692 q 601 414 601 540 l 601 0 l 507 0 l 497 81 l 493 81 q 388 12 443 40 q 269 -17 333 -17 m 301 78 q 394 100 350 78 q 488 165 439 122 l 488 347 q 307 313 374 335 q 212 258 240 290 q 183 182 183 226 q 218 102 183 126 q 301 78 253 78 m 151 792 l 321 979 l 421 979 l 590 792 l 503 792 l 374 901 l 368 901 l 239 792 l 151 792 m 507 913 l 608 1078 l 701 1078 l 708 1065 l 574 913 l 507 913 z "},"ầ":{"ha":700,"x_min":33,"x_max":601,"o":"m 269 -17 q 128 33 185 -17 q 71 175 71 83 q 171 347 71 289 q 488 429 271 406 q 475 510 488 472 q 433 572 463 547 q 347 596 403 596 q 238 574 289 596 q 146 526 186 551 l 101 604 q 217 664 149 636 q 367 692 286 692 q 546 616 490 692 q 601 414 601 540 l 601 0 l 507 0 l 497 81 l 493 81 q 388 12 443 40 q 269 -17 333 -17 m 301 78 q 394 100 350 78 q 488 165 439 122 l 488 347 q 307 313 374 335 q 212 258 240 290 q 183 182 183 226 q 218 102 183 126 q 301 78 253 78 m 151 792 l 321 979 l 421 979 l 590 792 l 503 792 l 374 901 l 368 901 l 239 792 l 151 792 m 168 913 l 33 1065 l 40 1078 l 133 1078 l 235 913 l 168 913 z "},"ẩ":{"ha":700,"x_min":71,"x_max":669,"o":"m 269 -17 q 128 33 185 -17 q 71 175 71 83 q 171 347 71 289 q 488 429 271 406 q 475 510 488 472 q 433 572 463 547 q 347 596 403 596 q 238 574 289 596 q 146 526 186 551 l 101 604 q 217 664 149 636 q 367 692 286 692 q 546 616 490 692 q 601 414 601 540 l 601 0 l 507 0 l 497 81 l 493 81 q 388 12 443 40 q 269 -17 333 -17 m 301 78 q 394 100 350 78 q 488 165 439 122 l 488 347 q 307 313 374 335 q 212 258 240 290 q 183 182 183 226 q 218 102 183 126 q 301 78 253 78 m 151 792 l 321 979 l 421 979 l 590 792 l 503 792 l 374 901 l 368 901 l 239 792 l 151 792 m 540 901 l 528 950 q 570 969 554 957 q 586 1004 586 982 q 565 1046 586 1032 q 490 1063 543 1060 l 500 1129 q 626 1099 582 1126 q 669 1017 669 1071 q 629 937 669 961 q 540 901 589 913 z "},"ẫ":{"ha":700,"x_min":71,"x_max":601,"o":"m 269 -17 q 128 33 185 -17 q 71 175 71 83 q 171 347 71 289 q 488 429 271 406 q 475 510 488 472 q 433 572 463 547 q 347 596 403 596 q 238 574 289 596 q 146 526 186 551 l 101 604 q 217 664 149 636 q 367 692 286 692 q 546 616 490 692 q 601 414 601 540 l 601 0 l 507 0 l 497 81 l 493 81 q 388 12 443 40 q 269 -17 333 -17 m 301 78 q 394 100 350 78 q 488 165 439 122 l 488 347 q 307 313 374 335 q 212 258 240 290 q 183 182 183 226 q 218 102 183 126 q 301 78 253 78 m 151 792 l 321 968 l 421 968 l 590 792 l 503 792 l 374 890 l 368 890 l 239 792 l 151 792 m 467 1003 q 392 1017 424 1003 q 334 1047 360 1032 q 281 1061 308 1061 q 250 1047 260 1061 q 236 1003 240 1032 l 171 1008 q 199 1096 175 1061 q 275 1131 224 1131 q 350 1116 319 1131 q 407 1087 381 1101 q 461 1072 433 1072 q 492 1087 482 1072 q 506 1132 501 1101 l 571 1126 q 542 1038 567 1072 q 467 1003 518 1003 z "},"ậ":{"ha":700,"x_min":71,"x_max":610,"o":"m 269 -17 q 128 33 185 -17 q 71 175 71 83 q 171 347 71 289 q 488 429 271 406 q 475 510 488 472 q 433 572 463 547 q 347 596 403 596 q 238 574 289 596 q 146 526 186 551 l 101 604 q 217 664 149 636 q 367 692 286 692 q 546 616 490 692 q 601 414 601 540 l 601 0 l 507 0 l 497 81 l 493 81 q 388 12 443 40 q 269 -17 333 -17 m 301 78 q 394 100 350 78 q 488 165 439 122 l 488 347 q 307 313 374 335 q 212 258 240 290 q 183 182 183 226 q 218 102 183 126 q 301 78 253 78 m 132 792 l 321 1021 l 421 1021 l 610 792 l 517 792 l 374 935 l 368 935 l 225 792 l 132 792 z "},"ắ":{"ha":700,"x_min":71,"x_max":601,"o":"m 269 -17 q 128 33 185 -17 q 71 175 71 83 q 171 347 71 289 q 488 429 271 406 q 475 510 488 472 q 433 572 463 547 q 347 596 403 596 q 238 574 289 596 q 146 526 186 551 l 101 604 q 217 664 149 636 q 367 692 286 692 q 546 616 490 692 q 601 414 601 540 l 601 0 l 507 0 l 497 81 l 493 81 q 388 12 443 40 q 269 -17 333 -17 m 301 78 q 394 100 350 78 q 488 165 439 122 l 488 347 q 307 313 374 335 q 212 258 240 290 q 183 182 183 226 q 218 102 183 126 q 301 78 253 78 m 371 790 q 251 822 297 790 q 181 901 204 853 q 154 1000 158 950 l 221 1013 q 244 942 226 976 q 293 885 261 907 q 371 864 325 864 q 449 885 418 864 q 499 942 481 907 q 521 1013 517 976 l 588 1000 q 562 901 585 950 q 492 822 539 853 q 371 790 446 790 m 301 989 l 411 1156 l 504 1156 l 511 1142 l 367 989 l 301 989 z "},"ằ":{"ha":700,"x_min":71,"x_max":601,"o":"m 269 -17 q 128 33 185 -17 q 71 175 71 83 q 171 347 71 289 q 488 429 271 406 q 475 510 488 472 q 433 572 463 547 q 347 596 403 596 q 238 574 289 596 q 146 526 186 551 l 101 604 q 217 664 149 636 q 367 692 286 692 q 546 616 490 692 q 601 414 601 540 l 601 0 l 507 0 l 497 81 l 493 81 q 388 12 443 40 q 269 -17 333 -17 m 301 78 q 394 100 350 78 q 488 165 439 122 l 488 347 q 307 313 374 335 q 212 258 240 290 q 183 182 183 226 q 218 102 183 126 q 301 78 253 78 m 371 790 q 251 822 297 790 q 181 901 204 853 q 154 1000 158 950 l 221 1013 q 244 942 226 976 q 293 885 261 907 q 371 864 325 864 q 449 885 418 864 q 499 942 481 907 q 521 1013 517 976 l 588 1000 q 562 901 585 950 q 492 822 539 853 q 371 790 446 790 m 375 989 l 231 1142 l 238 1156 l 331 1156 l 440 989 l 375 989 z "},"ẳ":{"ha":700,"x_min":71,"x_max":601,"o":"m 269 -17 q 128 33 185 -17 q 71 175 71 83 q 171 347 71 289 q 488 429 271 406 q 475 510 488 472 q 433 572 463 547 q 347 596 403 596 q 238 574 289 596 q 146 526 186 551 l 101 604 q 217 664 149 636 q 367 692 286 692 q 546 616 490 692 q 601 414 601 540 l 601 0 l 507 0 l 497 81 l 493 81 q 388 12 443 40 q 269 -17 333 -17 m 301 78 q 394 100 350 78 q 488 165 439 122 l 488 347 q 307 313 374 335 q 212 258 240 290 q 183 182 183 226 q 218 102 183 126 q 301 78 253 78 m 371 790 q 251 822 297 790 q 181 901 204 853 q 154 1000 158 950 l 221 1013 q 244 942 226 976 q 293 885 261 907 q 371 864 325 864 q 449 885 418 864 q 499 942 481 907 q 521 1013 517 976 l 588 1000 q 562 901 585 950 q 492 822 539 853 q 371 790 446 790 m 333 971 l 322 1021 q 370 1040 351 1026 q 389 1075 389 1053 q 365 1116 389 1103 q 283 1132 340 1129 l 293 1201 q 425 1170 378 1199 q 472 1088 472 1142 q 429 1006 472 1032 q 333 971 386 979 z "},"ẵ":{"ha":700,"x_min":71,"x_max":601,"o":"m 269 -17 q 128 33 185 -17 q 71 175 71 83 q 171 347 71 289 q 488 429 271 406 q 475 510 488 472 q 433 572 463 547 q 347 596 403 596 q 238 574 289 596 q 146 526 186 551 l 101 604 q 217 664 149 636 q 367 692 286 692 q 546 616 490 692 q 601 414 601 540 l 601 0 l 507 0 l 497 81 l 493 81 q 388 12 443 40 q 269 -17 333 -17 m 301 78 q 394 100 350 78 q 488 165 439 122 l 488 347 q 307 313 374 335 q 212 258 240 290 q 183 182 183 226 q 218 102 183 126 q 301 78 253 78 m 371 790 q 257 814 301 790 q 190 875 213 838 q 164 954 168 913 l 228 965 q 269 896 235 928 q 371 864 304 864 q 472 896 438 864 q 514 965 507 928 l 578 954 q 551 875 574 913 q 485 814 529 838 q 371 790 442 790 m 467 997 q 405 1008 429 997 q 362 1032 381 1018 q 324 1056 343 1046 q 281 1067 306 1067 q 225 1003 235 1067 l 160 1008 q 192 1100 164 1064 q 275 1136 221 1136 q 337 1126 313 1136 q 380 1102 361 1115 q 417 1078 399 1089 q 461 1068 436 1068 q 517 1132 507 1068 l 582 1126 q 549 1034 578 1071 q 467 997 521 997 z "},"ặ":{"ha":700,"x_min":71,"x_max":601,"o":"m 269 -17 q 128 33 185 -17 q 71 175 71 83 q 171 347 71 289 q 488 429 271 406 q 475 510 488 472 q 433 572 463 547 q 347 596 403 596 q 238 574 289 596 q 146 526 186 551 l 101 604 q 217 664 149 636 q 367 692 286 692 q 546 616 490 692 q 601 414 601 540 l 601 0 l 507 0 l 497 81 l 493 81 q 388 12 443 40 q 269 -17 333 -17 m 301 78 q 394 100 350 78 q 488 165 439 122 l 488 347 q 307 313 374 335 q 212 258 240 290 q 183 182 183 226 q 218 102 183 126 q 301 78 253 78 m 371 790 q 251 822 297 790 q 181 901 204 853 q 154 1000 158 950 l 225 1013 q 268 913 233 958 q 371 868 303 868 q 474 913 439 868 q 517 1013 508 958 l 588 1000 q 562 901 585 950 q 492 822 539 853 q 371 790 446 790 z "},"ǻ":{"ha":700,"x_min":71,"x_max":601,"o":"m 269 -17 q 128 33 185 -17 q 71 175 71 83 q 171 347 71 289 q 488 429 271 406 q 475 510 488 472 q 433 572 463 547 q 347 596 403 596 q 238 574 289 596 q 146 526 186 551 l 101 604 q 217 664 149 636 q 367 692 286 692 q 546 616 490 692 q 601 414 601 540 l 601 0 l 507 0 l 497 81 l 493 81 q 388 12 443 40 q 269 -17 333 -17 m 301 78 q 394 100 350 78 q 488 165 439 122 l 488 347 q 307 313 374 335 q 212 258 240 290 q 183 182 183 226 q 218 102 183 126 q 301 78 253 78 m 374 769 q 263 808 304 769 q 221 901 221 846 q 242 971 221 944 q 303 1032 264 997 l 432 1157 l 542 1157 l 549 1144 l 389 1028 q 494 988 463 1026 q 526 901 526 949 q 485 808 526 846 q 374 769 443 769 m 374 821 q 430 843 407 821 q 453 901 453 865 q 430 961 453 939 q 374 983 407 983 q 317 961 340 983 q 294 901 294 939 q 317 843 294 865 q 374 821 340 821 z "},"æ":{"ha":1081,"x_min":71,"x_max":1029,"o":"m 269 -17 q 128 33 185 -17 q 71 175 71 83 q 171 347 71 289 q 481 429 271 406 q 469 510 481 472 q 427 572 457 549 q 342 596 397 596 q 237 574 288 596 q 146 526 186 551 l 101 604 q 215 664 149 636 q 356 692 282 692 q 481 653 431 692 q 550 549 531 614 q 644 653 588 614 q 771 692 701 692 q 964 605 899 692 q 1029 374 1029 518 q 1028 338 1029 356 q 1024 307 1026 321 l 588 307 q 651 140 592 203 q 797 76 710 76 q 886 90 846 76 q 963 128 926 103 l 1003 53 q 906 3 960 22 q 783 -17 853 -17 q 642 21 699 -17 q 544 110 585 58 q 406 15 476 47 q 269 -17 335 -17 m 301 78 q 405 103 350 78 q 506 178 460 129 q 489 242 494 206 q 481 317 483 279 l 479 347 q 253 288 319 328 q 186 182 186 249 q 219 102 186 126 q 301 78 253 78 m 589 394 l 925 394 q 883 547 925 496 q 768 599 842 599 q 650 543 700 599 q 589 394 600 488 z "},"ǽ":{"ha":1081,"x_min":71,"x_max":1029,"o":"m 269 -17 q 128 33 185 -17 q 71 175 71 83 q 171 347 71 289 q 481 429 271 406 q 469 510 481 472 q 427 572 457 549 q 342 596 397 596 q 237 574 288 596 q 146 526 186 551 l 101 604 q 215 664 149 636 q 356 692 282 692 q 481 653 431 692 q 550 549 531 614 q 644 653 588 614 q 771 692 701 692 q 964 605 899 692 q 1029 374 1029 518 q 1028 338 1029 356 q 1024 307 1026 321 l 588 307 q 651 140 592 203 q 797 76 710 76 q 886 90 846 76 q 963 128 926 103 l 1003 53 q 906 3 960 22 q 783 -17 853 -17 q 642 21 699 -17 q 544 110 585 58 q 406 15 476 47 q 269 -17 335 -17 m 301 78 q 405 103 350 78 q 506 178 460 129 q 489 242 494 206 q 481 317 483 279 l 479 347 q 253 288 319 328 q 186 182 186 249 q 219 102 186 126 q 301 78 253 78 m 589 394 l 925 394 q 883 547 925 496 q 768 599 842 599 q 650 543 700 599 q 589 394 600 488 m 467 792 l 646 1021 l 771 1021 l 778 1008 l 558 792 l 467 792 z "},"ǣ":{"ha":1081,"x_min":71,"x_max":1029,"o":"m 269 -17 q 128 33 185 -17 q 71 175 71 83 q 171 347 71 289 q 481 429 271 406 q 469 510 481 472 q 427 572 457 549 q 342 596 397 596 q 237 574 288 596 q 146 526 186 551 l 101 604 q 215 664 149 636 q 356 692 282 692 q 481 653 431 692 q 550 549 531 614 q 644 653 588 614 q 771 692 701 692 q 964 605 899 692 q 1029 374 1029 518 q 1028 338 1029 356 q 1024 307 1026 321 l 588 307 q 651 140 592 203 q 797 76 710 76 q 886 90 846 76 q 963 128 926 103 l 1003 53 q 906 3 960 22 q 783 -17 853 -17 q 642 21 699 -17 q 544 110 585 58 q 406 15 476 47 q 269 -17 335 -17 m 301 78 q 405 103 350 78 q 506 178 460 129 q 489 242 494 206 q 481 317 483 279 l 479 347 q 253 288 319 328 q 186 182 186 249 q 219 102 186 126 q 301 78 253 78 m 589 394 l 925 394 q 883 547 925 496 q 768 599 842 599 q 650 543 700 599 q 589 394 600 488 m 389 835 l 389 914 l 758 914 l 758 835 l 389 835 z "},"ⱥ":{"ha":700,"x_min":71,"x_max":601,"o":"m 265 -71 l 210 -54 l 224 -12 q 114 48 157 0 q 71 175 71 96 q 142 328 71 272 q 368 413 214 383 l 425 576 q 347 596 393 596 q 238 574 289 596 q 146 526 186 551 l 101 604 q 217 664 149 636 q 367 692 286 692 q 416 688 393 692 q 458 678 439 685 l 483 750 l 538 735 l 510 651 q 579 556 557 617 q 601 414 601 494 l 601 0 l 507 0 l 497 81 l 493 81 q 394 15 446 42 q 283 -17 343 -12 l 265 -71 m 488 347 q 444 341 465 344 q 403 335 422 338 l 315 78 q 401 103 360 81 q 488 165 442 125 l 488 347 m 183 182 q 204 115 183 139 q 257 83 225 92 l 338 321 q 218 265 253 299 q 183 182 183 231 m 488 429 q 483 481 488 456 q 468 528 479 506 l 432 422 q 460 426 446 425 q 488 429 474 428 z "},"ƀ":{"ha":788,"x_min":15,"x_max":724,"o":"m 431 -17 q 333 6 383 -17 q 238 69 282 29 l 233 69 l 222 0 l 132 0 l 132 774 l 15 774 l 15 857 l 132 864 l 132 989 l 246 989 l 246 864 l 499 864 l 499 774 l 246 774 l 246 667 l 240 544 q 343 611 289 585 q 453 638 397 638 q 654 551 585 638 q 724 321 724 465 q 683 140 724 215 q 575 24 642 64 q 431 -17 508 -17 m 410 79 q 549 145 493 79 q 604 321 604 211 q 563 480 604 418 q 426 542 521 542 q 339 518 383 542 q 246 450 294 494 l 246 150 q 333 95 290 111 q 410 79 376 79 z "},"ɓ":{"ha":768,"x_min":114,"x_max":704,"o":"m 413 -17 q 315 6 365 -17 q 219 67 264 28 l 215 67 l 206 0 l 114 0 l 114 746 q 172 933 114 861 q 349 1006 231 1006 q 410 999 379 1006 q 463 983 440 993 l 436 896 q 360 913 399 913 q 262 868 293 913 q 228 744 231 824 l 225 588 q 326 655 271 628 q 436 682 381 682 q 636 590 568 682 q 704 343 704 497 q 663 149 704 229 q 556 26 622 68 q 413 -17 490 -17 m 393 79 q 531 149 476 79 q 586 342 586 219 q 545 519 586 451 q 408 586 504 586 q 228 493 325 586 l 228 150 q 316 95 272 111 q 393 79 360 79 z "},"ḃ":{"ha":768,"x_min":114,"x_max":704,"o":"m 413 -17 q 315 6 365 -17 q 219 69 264 29 l 215 69 l 206 0 l 114 0 l 114 989 l 228 989 l 228 719 l 225 597 q 326 665 271 638 q 436 692 381 692 q 636 599 568 692 q 704 349 704 506 q 663 151 704 233 q 556 26 622 69 q 413 -17 490 -17 m 393 79 q 531 151 476 79 q 586 347 586 222 q 545 527 586 458 q 408 596 504 596 q 321 572 365 596 q 228 504 276 549 l 228 150 q 316 95 272 111 q 393 79 360 79 m 453 814 q 398 834 419 814 q 376 889 376 854 q 398 943 376 922 q 453 964 419 964 q 508 943 486 964 q 529 889 529 922 q 508 834 529 854 q 453 814 486 814 z "},"ḇ":{"ha":768,"x_min":114,"x_max":704,"o":"m 413 -17 q 315 6 365 -17 q 219 69 264 29 l 215 69 l 206 0 l 114 0 l 114 989 l 228 989 l 228 719 l 225 597 q 326 665 271 638 q 436 692 381 692 q 636 599 568 692 q 704 349 704 506 q 663 151 704 233 q 556 26 622 69 q 413 -17 490 -17 m 393 79 q 531 151 476 79 q 586 347 586 222 q 545 527 586 458 q 408 596 504 596 q 321 572 365 596 q 228 504 276 549 l 228 150 q 316 95 272 111 q 393 79 360 79 z "},"ç":{"ha":633,"x_min":64,"x_max":599,"o":"m 382 -17 q 219 25 292 -17 q 106 146 147 67 q 64 336 64 225 q 109 529 64 450 q 228 650 154 608 q 389 692 303 692 q 503 669 456 692 q 586 613 551 647 l 529 543 q 470 582 503 567 q 393 597 438 597 q 285 565 333 597 q 210 473 238 532 q 182 336 182 414 q 240 149 182 221 q 392 78 299 78 q 478 96 438 78 q 549 142 518 114 l 599 72 q 502 8 557 32 q 382 -17 447 -17 m 249 -314 l 238 -258 q 357 -235 325 -251 q 389 -189 389 -219 q 365 -146 389 -161 q 282 -122 342 -131 l 343 4 l 417 4 l 376 -89 q 451 -122 425 -100 q 478 -187 478 -144 q 419 -278 478 -247 q 249 -314 360 -308 z "},"ć":{"ha":633,"x_min":64,"x_max":599,"o":"m 382 -17 q 219 25 292 -17 q 106 146 147 67 q 64 336 64 225 q 109 529 64 450 q 228 650 154 608 q 389 692 303 692 q 503 669 456 692 q 586 613 551 647 l 529 543 q 470 582 503 567 q 393 597 438 597 q 285 565 333 597 q 210 473 238 532 q 182 336 182 414 q 240 149 182 221 q 392 78 299 78 q 478 96 438 78 q 549 142 518 114 l 599 72 q 502 8 557 32 q 382 -17 447 -17 m 274 792 l 453 1021 l 578 1021 l 585 1008 l 365 792 l 274 792 z "},"ĉ":{"ha":633,"x_min":64,"x_max":619,"o":"m 382 -17 q 219 25 292 -17 q 106 146 147 67 q 64 336 64 225 q 109 529 64 450 q 228 650 154 608 q 389 692 303 692 q 503 669 456 692 q 586 613 551 647 l 529 543 q 470 582 503 567 q 393 597 438 597 q 285 565 333 597 q 210 473 238 532 q 182 336 182 414 q 240 149 182 221 q 392 78 299 78 q 478 96 438 78 q 549 142 518 114 l 599 72 q 502 8 557 32 q 382 -17 447 -17 m 142 792 l 331 1021 l 431 1021 l 619 792 l 526 792 l 383 935 l 378 935 l 235 792 l 142 792 z "},"ċ":{"ha":633,"x_min":64,"x_max":599,"o":"m 382 -17 q 219 25 292 -17 q 106 146 147 67 q 64 336 64 225 q 109 529 64 450 q 228 650 154 608 q 389 692 303 692 q 503 669 456 692 q 586 613 551 647 l 529 543 q 470 582 503 567 q 393 597 438 597 q 285 565 333 597 q 210 473 238 532 q 182 336 182 414 q 240 149 182 221 q 392 78 299 78 q 478 96 438 78 q 549 142 518 114 l 599 72 q 502 8 557 32 q 382 -17 447 -17 m 381 814 q 326 834 347 814 q 304 889 304 854 q 326 943 304 922 q 381 964 347 964 q 435 943 414 964 q 457 889 457 922 q 435 834 457 854 q 381 814 414 814 z "},"č":{"ha":633,"x_min":64,"x_max":619,"o":"m 382 -17 q 219 25 292 -17 q 106 146 147 67 q 64 336 64 225 q 109 529 64 450 q 228 650 154 608 q 389 692 303 692 q 503 669 456 692 q 586 613 551 647 l 529 543 q 470 582 503 567 q 393 597 438 597 q 285 565 333 597 q 210 473 238 532 q 182 336 182 414 q 240 149 182 221 q 392 78 299 78 q 478 96 438 78 q 549 142 518 114 l 599 72 q 502 8 557 32 q 382 -17 447 -17 m 331 792 l 142 1021 l 235 1021 l 378 878 l 383 878 l 526 1021 l 619 1021 l 431 792 l 331 792 z "},"ȼ":{"ha":633,"x_min":64,"x_max":599,"o":"m 233 -71 l 181 -54 l 214 28 q 105 148 146 69 q 64 336 64 226 q 109 529 64 450 q 228 650 154 608 q 389 692 303 692 q 479 678 442 692 l 508 750 l 563 733 l 531 656 q 586 613 563 638 l 529 543 q 513 557 521 550 q 496 569 504 564 l 303 99 q 392 78 343 78 q 478 96 438 78 q 549 142 518 114 l 599 72 q 502 8 557 32 q 382 -17 447 -17 q 264 4 318 -17 l 233 -71 m 182 336 q 201 218 182 271 q 256 132 221 165 l 443 592 q 419 596 432 594 q 393 597 407 597 q 285 565 333 597 q 210 473 238 532 q 182 336 182 414 z "},"ḋ":{"ha":771,"x_min":65,"x_max":657,"o":"m 344 -17 q 142 76 218 -17 q 65 336 65 168 q 106 526 65 446 q 215 649 147 606 q 358 692 282 692 q 460 671 417 692 q 547 614 503 650 l 542 729 l 542 989 l 657 989 l 657 0 l 563 0 l 553 79 l 549 79 q 457 12 510 40 q 344 -17 404 -17 m 369 79 q 542 172 458 79 l 542 525 q 459 580 499 564 q 378 596 419 596 q 280 563 324 596 q 210 473 236 531 q 183 338 183 415 q 232 148 183 217 q 369 79 281 79 m 322 814 q 267 834 289 814 q 246 889 246 854 q 267 943 246 922 q 322 964 289 964 q 377 943 356 964 q 399 889 399 922 q 377 834 399 854 q 322 814 356 814 z "},"ď":{"ha":796,"x_min":65,"x_max":813,"o":"m 344 -17 q 142 76 218 -17 q 65 336 65 168 q 106 526 65 446 q 215 649 147 606 q 358 692 282 692 q 460 671 417 692 q 547 614 503 650 l 542 729 l 542 989 l 657 989 l 657 0 l 563 0 l 553 79 l 549 79 q 457 12 510 40 q 344 -17 404 -17 m 369 79 q 542 172 458 79 l 542 525 q 459 580 499 564 q 378 596 419 596 q 280 563 324 596 q 210 473 236 531 q 183 338 183 415 q 232 148 183 217 q 369 79 281 79 m 736 761 l 731 1056 l 813 1056 l 811 976 l 792 761 l 736 761 z "},"ḍ":{"ha":771,"x_min":65,"x_max":657,"o":"m 344 -17 q 142 76 218 -17 q 65 336 65 168 q 106 526 65 446 q 215 649 147 606 q 358 692 282 692 q 460 671 417 692 q 547 614 503 650 l 542 729 l 542 989 l 657 989 l 657 0 l 563 0 l 553 79 l 549 79 q 457 12 510 40 q 344 -17 404 -17 m 369 79 q 542 172 458 79 l 542 525 q 459 580 499 564 q 378 596 419 596 q 280 563 324 596 q 210 473 236 531 q 183 338 183 415 q 232 148 183 217 q 369 79 281 79 z "},"ḏ":{"ha":771,"x_min":65,"x_max":657,"o":"m 344 -17 q 142 76 218 -17 q 65 336 65 168 q 106 526 65 446 q 215 649 147 606 q 358 692 282 692 q 460 671 417 692 q 547 614 503 650 l 542 729 l 542 989 l 657 989 l 657 0 l 563 0 l 553 79 l 549 79 q 457 12 510 40 q 344 -17 404 -17 m 369 79 q 542 172 458 79 l 542 525 q 459 580 499 564 q 378 596 419 596 q 280 563 324 596 q 210 473 236 531 q 183 338 183 415 q 232 148 183 217 q 369 79 281 79 z "},"ḑ":{"ha":771,"x_min":65,"x_max":657,"o":"m 344 -17 q 142 76 218 -17 q 65 336 65 168 q 106 526 65 446 q 215 649 147 606 q 358 692 282 692 q 460 671 417 692 q 547 614 503 650 l 542 729 l 542 989 l 657 989 l 657 0 l 563 0 l 553 79 l 549 79 q 457 12 510 40 q 344 -17 404 -17 m 369 79 q 542 172 458 79 l 542 525 q 459 580 499 564 q 378 596 419 596 q 280 563 324 596 q 210 473 236 531 q 183 338 183 415 q 232 148 183 217 q 369 79 281 79 m 240 -314 l 229 -258 q 349 -235 317 -251 q 381 -189 381 -219 q 357 -146 381 -161 q 274 -122 333 -131 l 335 4 l 408 4 l 368 -89 q 443 -122 417 -100 q 469 -187 469 -144 q 410 -278 469 -247 q 240 -314 351 -308 z "},"đ":{"ha":781,"x_min":65,"x_max":768,"o":"m 344 -17 q 142 69 218 -17 q 65 310 65 156 q 106 483 65 410 q 215 597 147 557 q 358 638 282 638 q 460 617 417 638 q 547 560 503 596 l 543 676 l 543 774 l 290 774 l 290 864 l 543 864 l 543 989 l 657 989 l 657 864 l 768 864 l 768 781 l 657 774 l 657 0 l 560 0 l 551 76 l 547 76 q 457 10 508 38 q 344 -17 406 -17 m 369 79 q 458 102 417 79 q 543 171 500 125 l 543 469 q 460 526 500 510 q 378 542 419 542 q 281 512 325 542 q 210 431 236 482 q 185 311 185 379 q 233 142 185 206 q 369 79 281 79 z "},"è":{"ha":689,"x_min":63,"x_max":636,"o":"m 369 599 q 288 578 328 599 q 220 514 249 558 q 182 397 192 469 l 533 397 q 490 547 533 496 q 369 599 447 599 m 388 -17 q 223 25 297 -17 q 106 147 149 67 q 63 338 63 226 q 106 526 63 447 q 220 649 150 606 q 368 692 290 692 q 567 606 499 692 q 636 375 636 519 q 635 340 636 357 q 631 307 633 324 l 179 307 q 252 135 188 193 q 401 76 317 76 q 492 90 450 76 q 569 128 535 104 l 611 53 q 512 3 567 22 q 388 -17 457 -17 m 382 792 l 163 1008 l 169 1021 l 294 1021 l 474 792 l 382 792 z "},"é":{"ha":689,"x_min":63,"x_max":636,"o":"m 369 599 q 288 578 328 599 q 220 514 249 558 q 182 397 192 469 l 533 397 q 490 547 533 496 q 369 599 447 599 m 388 -17 q 223 25 297 -17 q 106 147 149 67 q 63 338 63 226 q 106 526 63 447 q 220 649 150 606 q 368 692 290 692 q 567 606 499 692 q 636 375 636 519 q 635 340 636 357 q 631 307 633 324 l 179 307 q 252 135 188 193 q 401 76 317 76 q 492 90 450 76 q 569 128 535 104 l 611 53 q 512 3 567 22 q 388 -17 457 -17 m 260 792 l 439 1021 l 564 1021 l 571 1008 l 351 792 l 260 792 z "},"ê":{"ha":689,"x_min":63,"x_max":636,"o":"m 369 599 q 288 578 328 599 q 220 514 249 558 q 182 397 192 469 l 533 397 q 490 547 533 496 q 369 599 447 599 m 388 -17 q 223 25 297 -17 q 106 147 149 67 q 63 338 63 226 q 106 526 63 447 q 220 649 150 606 q 368 692 290 692 q 567 606 499 692 q 636 375 636 519 q 635 340 636 357 q 631 307 633 324 l 179 307 q 252 135 188 193 q 401 76 317 76 q 492 90 450 76 q 569 128 535 104 l 611 53 q 512 3 567 22 q 388 -17 457 -17 m 128 792 l 317 1021 l 417 1021 l 606 792 l 513 792 l 369 935 l 364 935 l 221 792 l 128 792 z "},"ẽ":{"ha":689,"x_min":63,"x_max":636,"o":"m 369 599 q 288 578 328 599 q 220 514 249 558 q 182 397 192 469 l 533 397 q 490 547 533 496 q 369 599 447 599 m 388 -17 q 223 25 297 -17 q 106 147 149 67 q 63 338 63 226 q 106 526 63 447 q 220 649 150 606 q 368 692 290 692 q 567 606 499 692 q 636 375 636 519 q 635 340 636 357 q 631 307 633 324 l 179 307 q 252 135 188 193 q 401 76 317 76 q 492 90 450 76 q 569 128 535 104 l 611 53 q 512 3 567 22 q 388 -17 457 -17 m 467 801 q 403 819 429 801 q 355 860 376 836 q 313 901 333 883 q 268 918 292 918 q 222 888 238 918 q 203 808 206 857 l 126 813 q 162 948 129 894 q 267 1001 194 1001 q 331 984 304 1001 q 379 943 357 967 q 422 902 401 919 q 467 885 442 885 q 513 916 497 885 q 531 994 528 947 l 607 989 q 572 855 604 908 q 467 801 539 801 z "},"ë":{"ha":689,"x_min":63,"x_max":636,"o":"m 369 599 q 288 578 328 599 q 220 514 249 558 q 182 397 192 469 l 533 397 q 490 547 533 496 q 369 599 447 599 m 388 -17 q 223 25 297 -17 q 106 147 149 67 q 63 338 63 226 q 106 526 63 447 q 220 649 150 606 q 368 692 290 692 q 567 606 499 692 q 636 375 636 519 q 635 340 636 357 q 631 307 633 324 l 179 307 q 252 135 188 193 q 401 76 317 76 q 492 90 450 76 q 569 128 535 104 l 611 53 q 512 3 567 22 q 388 -17 457 -17 m 233 815 q 183 835 203 815 q 164 885 164 856 q 183 934 164 914 q 233 954 203 954 q 282 934 263 954 q 301 885 301 914 q 282 835 301 856 q 233 815 263 815 m 500 815 q 451 835 471 815 q 432 885 432 856 q 451 934 432 914 q 500 954 471 954 q 550 934 531 954 q 569 885 569 914 q 550 835 569 856 q 500 815 531 815 z "},"ē":{"ha":689,"x_min":63,"x_max":636,"o":"m 369 599 q 288 578 328 599 q 220 514 249 558 q 182 397 192 469 l 533 397 q 490 547 533 496 q 369 599 447 599 m 388 -17 q 223 25 297 -17 q 106 147 149 67 q 63 338 63 226 q 106 526 63 447 q 220 649 150 606 q 368 692 290 692 q 567 606 499 692 q 636 375 636 519 q 635 340 636 357 q 631 307 633 324 l 179 307 q 252 135 188 193 q 401 76 317 76 q 492 90 450 76 q 569 128 535 104 l 611 53 q 512 3 567 22 q 388 -17 457 -17 m 182 835 l 182 914 l 551 914 l 551 835 l 182 835 z "},"ĕ":{"ha":689,"x_min":63,"x_max":636,"o":"m 369 599 q 288 578 328 599 q 220 514 249 558 q 182 397 192 469 l 533 397 q 490 547 533 496 q 369 599 447 599 m 388 -17 q 223 25 297 -17 q 106 147 149 67 q 63 338 63 226 q 106 526 63 447 q 220 649 150 606 q 368 692 290 692 q 567 606 499 692 q 636 375 636 519 q 635 340 636 357 q 631 307 633 324 l 179 307 q 252 135 188 193 q 401 76 317 76 q 492 90 450 76 q 569 128 535 104 l 611 53 q 512 3 567 22 q 388 -17 457 -17 m 367 790 q 247 822 293 790 q 177 901 200 853 q 150 1000 154 950 l 221 1013 q 264 913 229 958 q 367 868 299 868 q 469 913 435 868 q 513 1013 504 958 l 583 1000 q 558 901 581 950 q 488 822 535 853 q 367 790 442 790 z "},"ė":{"ha":689,"x_min":63,"x_max":636,"o":"m 369 599 q 288 578 328 599 q 220 514 249 558 q 182 397 192 469 l 533 397 q 490 547 533 496 q 369 599 447 599 m 388 -17 q 223 25 297 -17 q 106 147 149 67 q 63 338 63 226 q 106 526 63 447 q 220 649 150 606 q 368 692 290 692 q 567 606 499 692 q 636 375 636 519 q 635 340 636 357 q 631 307 633 324 l 179 307 q 252 135 188 193 q 401 76 317 76 q 492 90 450 76 q 569 128 535 104 l 611 53 q 512 3 567 22 q 388 -17 457 -17 m 367 814 q 312 834 333 814 q 290 889 290 854 q 312 943 290 922 q 367 964 333 964 q 422 943 400 964 q 443 889 443 922 q 422 834 443 854 q 367 814 400 814 z "},"ě":{"ha":689,"x_min":63,"x_max":636,"o":"m 369 599 q 288 578 328 599 q 220 514 249 558 q 182 397 192 469 l 533 397 q 490 547 533 496 q 369 599 447 599 m 388 -17 q 223 25 297 -17 q 106 147 149 67 q 63 338 63 226 q 106 526 63 447 q 220 649 150 606 q 368 692 290 692 q 567 606 499 692 q 636 375 636 519 q 635 340 636 357 q 631 307 633 324 l 179 307 q 252 135 188 193 q 401 76 317 76 q 492 90 450 76 q 569 128 535 104 l 611 53 q 512 3 567 22 q 388 -17 457 -17 m 317 792 l 128 1021 l 221 1021 l 364 878 l 369 878 l 513 1021 l 606 1021 l 417 792 l 317 792 z "},"ȅ":{"ha":689,"x_min":63,"x_max":636,"o":"m 369 599 q 288 578 328 599 q 220 514 249 558 q 182 397 192 469 l 533 397 q 490 547 533 496 q 369 599 447 599 m 388 -17 q 223 25 297 -17 q 106 147 149 67 q 63 338 63 226 q 106 526 63 447 q 220 649 150 606 q 368 692 290 692 q 567 606 499 692 q 636 375 636 519 q 635 340 636 357 q 631 307 633 324 l 179 307 q 252 135 188 193 q 401 76 317 76 q 492 90 450 76 q 569 128 535 104 l 611 53 q 512 3 567 22 q 388 -17 457 -17 m 229 793 l 78 1011 l 85 1024 l 179 1024 l 299 793 l 229 793 m 454 793 l 301 1011 l 308 1024 l 403 1024 l 522 793 l 454 793 z "},"ę":{"ha":689,"x_min":63,"x_max":636,"o":"m 369 599 q 288 578 328 599 q 220 514 249 558 q 182 397 192 469 l 533 397 q 490 547 533 496 q 369 599 447 599 m 500 -297 q 401 -267 442 -297 q 360 -169 360 -236 q 385 -84 360 -125 q 454 -8 411 -43 q 388 -17 421 -17 q 223 25 297 -17 q 106 147 149 67 q 63 338 63 226 q 106 526 63 447 q 220 649 150 606 q 368 692 290 692 q 567 606 499 692 q 636 375 636 519 q 635 340 636 357 q 631 307 633 324 l 179 307 q 252 135 188 193 q 401 76 317 76 q 492 90 450 76 q 569 128 535 104 l 611 53 q 490 -49 528 1 q 451 -147 451 -100 q 473 -199 451 -183 q 521 -215 494 -215 q 593 -192 561 -215 l 622 -256 q 567 -285 600 -274 q 500 -297 535 -297 z "},"ẹ":{"ha":689,"x_min":63,"x_max":636,"o":"m 369 599 q 288 578 328 599 q 220 514 249 558 q 182 397 192 469 l 533 397 q 490 547 533 496 q 369 599 447 599 m 388 -17 q 223 25 297 -17 q 106 147 149 67 q 63 338 63 226 q 106 526 63 447 q 220 649 150 606 q 368 692 290 692 q 567 606 499 692 q 636 375 636 519 q 635 340 636 357 q 631 307 633 324 l 179 307 q 252 135 188 193 q 401 76 317 76 q 492 90 450 76 q 569 128 535 104 l 611 53 q 512 3 567 22 q 388 -17 457 -17 z "},"ẻ":{"ha":689,"x_min":63,"x_max":636,"o":"m 369 599 q 288 578 328 599 q 220 514 249 558 q 182 397 192 469 l 533 397 q 490 547 533 496 q 369 599 447 599 m 388 -17 q 223 25 297 -17 q 106 147 149 67 q 63 338 63 226 q 106 526 63 447 q 220 649 150 606 q 368 692 290 692 q 567 606 499 692 q 636 375 636 519 q 635 340 636 357 q 631 307 633 324 l 179 307 q 252 135 188 193 q 401 76 317 76 q 492 90 450 76 q 569 128 535 104 l 611 53 q 512 3 567 22 q 388 -17 457 -17 m 322 778 l 310 833 q 366 865 344 843 q 388 914 388 886 q 272 981 388 976 l 279 1051 q 426 1021 374 1050 q 478 931 478 992 q 431 827 478 865 q 322 778 385 789 z "},"ế":{"ha":689,"x_min":63,"x_max":704,"o":"m 369 599 q 288 578 328 599 q 220 514 249 558 q 182 397 192 469 l 533 397 q 490 547 533 496 q 369 599 447 599 m 388 -17 q 223 25 297 -17 q 106 147 149 67 q 63 338 63 226 q 106 526 63 447 q 220 649 150 606 q 368 692 290 692 q 567 606 499 692 q 636 375 636 519 q 635 340 636 357 q 631 307 633 324 l 179 307 q 252 135 188 193 q 401 76 317 76 q 492 90 450 76 q 569 128 535 104 l 611 53 q 512 3 567 22 q 388 -17 457 -17 m 147 792 l 317 979 l 417 979 l 586 792 l 499 792 l 369 901 l 364 901 l 235 792 l 147 792 m 503 913 l 604 1078 l 697 1078 l 704 1065 l 569 913 l 503 913 z "},"ề":{"ha":689,"x_min":29,"x_max":636,"o":"m 369 599 q 288 578 328 599 q 220 514 249 558 q 182 397 192 469 l 533 397 q 490 547 533 496 q 369 599 447 599 m 388 -17 q 223 25 297 -17 q 106 147 149 67 q 63 338 63 226 q 106 526 63 447 q 220 649 150 606 q 368 692 290 692 q 567 606 499 692 q 636 375 636 519 q 635 340 636 357 q 631 307 633 324 l 179 307 q 252 135 188 193 q 401 76 317 76 q 492 90 450 76 q 569 128 535 104 l 611 53 q 512 3 567 22 q 388 -17 457 -17 m 147 792 l 317 979 l 417 979 l 586 792 l 499 792 l 369 901 l 364 901 l 235 792 l 147 792 m 164 913 l 29 1065 l 36 1078 l 129 1078 l 231 913 l 164 913 z "},"ể":{"ha":689,"x_min":63,"x_max":665,"o":"m 369 599 q 288 578 328 599 q 220 514 249 558 q 182 397 192 469 l 533 397 q 490 547 533 496 q 369 599 447 599 m 388 -17 q 223 25 297 -17 q 106 147 149 67 q 63 338 63 226 q 106 526 63 447 q 220 649 150 606 q 368 692 290 692 q 567 606 499 692 q 636 375 636 519 q 635 340 636 357 q 631 307 633 324 l 179 307 q 252 135 188 193 q 401 76 317 76 q 492 90 450 76 q 569 128 535 104 l 611 53 q 512 3 567 22 q 388 -17 457 -17 m 147 792 l 317 979 l 417 979 l 586 792 l 499 792 l 369 901 l 364 901 l 235 792 l 147 792 m 536 901 l 524 950 q 566 969 550 957 q 582 1004 582 982 q 560 1046 582 1032 q 486 1063 539 1060 l 496 1129 q 622 1099 578 1126 q 665 1017 665 1071 q 625 937 665 961 q 536 901 585 913 z "},"ễ":{"ha":689,"x_min":63,"x_max":636,"o":"m 369 599 q 288 578 328 599 q 220 514 249 558 q 182 397 192 469 l 533 397 q 490 547 533 496 q 369 599 447 599 m 388 -17 q 223 25 297 -17 q 106 147 149 67 q 63 338 63 226 q 106 526 63 447 q 220 649 150 606 q 368 692 290 692 q 567 606 499 692 q 636 375 636 519 q 635 340 636 357 q 631 307 633 324 l 179 307 q 252 135 188 193 q 401 76 317 76 q 492 90 450 76 q 569 128 535 104 l 611 53 q 512 3 567 22 q 388 -17 457 -17 m 147 792 l 317 968 l 417 968 l 586 792 l 499 792 l 369 890 l 364 890 l 235 792 l 147 792 m 463 1003 q 388 1017 419 1003 q 330 1047 356 1032 q 276 1061 304 1061 q 246 1047 256 1061 q 232 1003 236 1032 l 167 1008 q 195 1096 171 1061 q 271 1131 219 1131 q 346 1116 315 1131 q 403 1087 376 1101 q 457 1072 429 1072 q 488 1087 478 1072 q 501 1132 497 1101 l 567 1126 q 538 1038 563 1072 q 463 1003 514 1003 z "},"ệ":{"ha":689,"x_min":63,"x_max":636,"o":"m 369 599 q 288 578 328 599 q 220 514 249 558 q 182 397 192 469 l 533 397 q 490 547 533 496 q 369 599 447 599 m 388 -17 q 223 25 297 -17 q 106 147 149 67 q 63 338 63 226 q 106 526 63 447 q 220 649 150 606 q 368 692 290 692 q 567 606 499 692 q 636 375 636 519 q 635 340 636 357 q 631 307 633 324 l 179 307 q 252 135 188 193 q 401 76 317 76 q 492 90 450 76 q 569 128 535 104 l 611 53 q 512 3 567 22 q 388 -17 457 -17 m 128 792 l 317 1021 l 417 1021 l 606 792 l 513 792 l 369 935 l 364 935 l 221 792 l 128 792 z "},"ḗ":{"ha":689,"x_min":63,"x_max":636,"o":"m 369 599 q 288 578 328 599 q 220 514 249 558 q 182 397 192 469 l 533 397 q 490 547 533 496 q 369 599 447 599 m 388 -17 q 223 25 297 -17 q 106 147 149 67 q 63 338 63 226 q 106 526 63 447 q 220 649 150 606 q 368 692 290 692 q 567 606 499 692 q 636 375 636 519 q 635 340 636 357 q 631 307 633 324 l 179 307 q 252 135 188 193 q 401 76 317 76 q 492 90 450 76 q 569 128 535 104 l 611 53 q 512 3 567 22 q 388 -17 457 -17 m 182 835 l 182 914 l 551 914 l 551 835 l 182 835 m 274 989 l 408 1157 l 521 1157 l 528 1144 l 357 989 l 274 989 z "},"ǝ":{"ha":689,"x_min":51,"x_max":625,"o":"m 333 -17 q 180 25 243 -17 q 84 140 117 67 q 51 311 51 214 q 53 346 51 329 q 57 379 54 363 l 508 379 q 442 542 499 488 q 307 597 386 597 q 215 584 257 597 q 136 547 172 571 l 94 622 q 195 673 139 654 q 321 692 251 692 q 477 650 408 692 q 585 529 546 608 q 625 338 625 450 q 584 148 625 228 q 477 26 543 68 q 333 -17 411 -17 m 332 76 q 447 126 394 76 q 508 289 499 175 l 154 289 q 201 133 154 190 q 332 76 249 76 z "},"ḟ":{"ha":406,"x_min":33,"x_max":443,"o":"m 133 0 l 133 582 l 33 582 l 33 668 l 133 675 l 133 782 q 181 945 133 885 q 331 1006 229 1006 q 392 999 363 1006 q 443 983 421 993 l 418 900 q 342 913 376 913 q 247 782 247 913 l 247 675 l 390 675 l 390 582 l 247 582 l 247 0 l 133 0 m 303 1061 q 247 1082 269 1061 q 224 1136 224 1103 q 247 1189 224 1168 q 303 1210 269 1210 q 359 1189 336 1210 q 382 1136 382 1168 q 359 1082 382 1103 q 303 1061 336 1061 z "},"ǵ":{"ha":700,"x_min":63,"x_max":683,"o":"m 342 -311 q 140 -264 218 -311 q 63 -129 63 -217 q 89 -47 63 -86 q 161 24 115 -7 l 161 29 q 119 72 136 44 q 101 139 101 100 q 125 214 101 182 q 175 264 149 246 l 175 269 q 115 344 142 297 q 88 451 88 392 q 122 579 88 525 q 215 663 157 633 q 342 692 274 692 q 394 687 369 692 q 438 675 419 682 l 672 675 l 672 588 l 532 588 l 532 582 q 572 526 556 560 q 589 447 589 493 q 556 324 589 376 q 467 242 522 271 q 342 214 411 214 q 240 238 288 214 q 210 203 222 222 q 197 157 197 185 q 223 104 197 125 q 317 83 249 83 l 447 83 q 624 45 565 83 q 683 -78 683 7 q 642 -193 683 -140 q 524 -278 600 -246 q 342 -311 447 -311 m 342 290 q 442 334 400 290 q 485 451 485 378 q 443 567 485 525 q 342 608 401 608 q 240 567 282 608 q 199 451 199 525 q 241 334 199 378 q 342 290 283 290 m 358 -232 q 514 -190 456 -232 q 572 -94 572 -147 q 537 -29 572 -47 q 436 -11 501 -11 l 319 -11 q 277 -8 300 -11 q 232 0 254 -6 q 179 -56 196 -26 q 163 -114 163 -85 q 215 -200 163 -168 q 358 -232 267 -232 m 254 792 l 433 1021 l 558 1021 l 565 1008 l 346 792 l 254 792 z "},"ĝ":{"ha":700,"x_min":63,"x_max":683,"o":"m 342 -311 q 140 -264 218 -311 q 63 -129 63 -217 q 89 -47 63 -86 q 161 24 115 -7 l 161 29 q 119 72 136 44 q 101 139 101 100 q 125 214 101 182 q 175 264 149 246 l 175 269 q 115 344 142 297 q 88 451 88 392 q 122 579 88 525 q 215 663 157 633 q 342 692 274 692 q 394 687 369 692 q 438 675 419 682 l 672 675 l 672 588 l 532 588 l 532 582 q 572 526 556 560 q 589 447 589 493 q 556 324 589 376 q 467 242 522 271 q 342 214 411 214 q 240 238 288 214 q 210 203 222 222 q 197 157 197 185 q 223 104 197 125 q 317 83 249 83 l 447 83 q 624 45 565 83 q 683 -78 683 7 q 642 -193 683 -140 q 524 -278 600 -246 q 342 -311 447 -311 m 342 290 q 442 334 400 290 q 485 451 485 378 q 443 567 485 525 q 342 608 401 608 q 240 567 282 608 q 199 451 199 525 q 241 334 199 378 q 342 290 283 290 m 358 -232 q 514 -190 456 -232 q 572 -94 572 -147 q 537 -29 572 -47 q 436 -11 501 -11 l 319 -11 q 277 -8 300 -11 q 232 0 254 -6 q 179 -56 196 -26 q 163 -114 163 -85 q 215 -200 163 -168 q 358 -232 267 -232 m 122 792 l 311 1021 l 411 1021 l 600 792 l 507 792 l 364 935 l 358 935 l 215 792 l 122 792 z "},"ḡ":{"ha":700,"x_min":63,"x_max":683,"o":"m 342 -311 q 140 -264 218 -311 q 63 -129 63 -217 q 89 -47 63 -86 q 161 24 115 -7 l 161 29 q 119 72 136 44 q 101 139 101 100 q 125 214 101 182 q 175 264 149 246 l 175 269 q 115 344 142 297 q 88 451 88 392 q 122 579 88 525 q 215 663 157 633 q 342 692 274 692 q 394 687 369 692 q 438 675 419 682 l 672 675 l 672 588 l 532 588 l 532 582 q 572 526 556 560 q 589 447 589 493 q 556 324 589 376 q 467 242 522 271 q 342 214 411 214 q 240 238 288 214 q 210 203 222 222 q 197 157 197 185 q 223 104 197 125 q 317 83 249 83 l 447 83 q 624 45 565 83 q 683 -78 683 7 q 642 -193 683 -140 q 524 -278 600 -246 q 342 -311 447 -311 m 342 290 q 442 334 400 290 q 485 451 485 378 q 443 567 485 525 q 342 608 401 608 q 240 567 282 608 q 199 451 199 525 q 241 334 199 378 q 342 290 283 290 m 358 -232 q 514 -190 456 -232 q 572 -94 572 -147 q 537 -29 572 -47 q 436 -11 501 -11 l 319 -11 q 277 -8 300 -11 q 232 0 254 -6 q 179 -56 196 -26 q 163 -114 163 -85 q 215 -200 163 -168 q 358 -232 267 -232 m 176 835 l 176 914 l 546 914 l 546 835 l 176 835 z "},"ğ":{"ha":700,"x_min":63,"x_max":683,"o":"m 342 -311 q 140 -264 218 -311 q 63 -129 63 -217 q 89 -47 63 -86 q 161 24 115 -7 l 161 29 q 119 72 136 44 q 101 139 101 100 q 125 214 101 182 q 175 264 149 246 l 175 269 q 115 344 142 297 q 88 451 88 392 q 122 579 88 525 q 215 663 157 633 q 342 692 274 692 q 394 687 369 692 q 438 675 419 682 l 672 675 l 672 588 l 532 588 l 532 582 q 572 526 556 560 q 589 447 589 493 q 556 324 589 376 q 467 242 522 271 q 342 214 411 214 q 240 238 288 214 q 210 203 222 222 q 197 157 197 185 q 223 104 197 125 q 317 83 249 83 l 447 83 q 624 45 565 83 q 683 -78 683 7 q 642 -193 683 -140 q 524 -278 600 -246 q 342 -311 447 -311 m 342 290 q 442 334 400 290 q 485 451 485 378 q 443 567 485 525 q 342 608 401 608 q 240 567 282 608 q 199 451 199 525 q 241 334 199 378 q 342 290 283 290 m 358 -232 q 514 -190 456 -232 q 572 -94 572 -147 q 537 -29 572 -47 q 436 -11 501 -11 l 319 -11 q 277 -8 300 -11 q 232 0 254 -6 q 179 -56 196 -26 q 163 -114 163 -85 q 215 -200 163 -168 q 358 -232 267 -232 m 361 790 q 241 822 288 790 q 172 901 194 853 q 144 1000 149 950 l 215 1013 q 258 913 224 958 q 361 868 293 868 q 464 913 429 868 q 507 1013 499 958 l 578 1000 q 552 901 575 950 q 483 822 529 853 q 361 790 436 790 z "},"ġ":{"ha":700,"x_min":63,"x_max":683,"o":"m 342 -311 q 140 -264 218 -311 q 63 -129 63 -217 q 89 -47 63 -86 q 161 24 115 -7 l 161 29 q 119 72 136 44 q 101 139 101 100 q 125 214 101 182 q 175 264 149 246 l 175 269 q 115 344 142 297 q 88 451 88 392 q 122 579 88 525 q 215 663 157 633 q 342 692 274 692 q 394 687 369 692 q 438 675 419 682 l 672 675 l 672 588 l 532 588 l 532 582 q 572 526 556 560 q 589 447 589 493 q 556 324 589 376 q 467 242 522 271 q 342 214 411 214 q 240 238 288 214 q 210 203 222 222 q 197 157 197 185 q 223 104 197 125 q 317 83 249 83 l 447 83 q 624 45 565 83 q 683 -78 683 7 q 642 -193 683 -140 q 524 -278 600 -246 q 342 -311 447 -311 m 342 290 q 442 334 400 290 q 485 451 485 378 q 443 567 485 525 q 342 608 401 608 q 240 567 282 608 q 199 451 199 525 q 241 334 199 378 q 342 290 283 290 m 358 -232 q 514 -190 456 -232 q 572 -94 572 -147 q 537 -29 572 -47 q 436 -11 501 -11 l 319 -11 q 277 -8 300 -11 q 232 0 254 -6 q 179 -56 196 -26 q 163 -114 163 -85 q 215 -200 163 -168 q 358 -232 267 -232 m 361 814 q 306 834 328 814 q 285 889 285 854 q 306 943 285 922 q 361 964 328 964 q 416 943 394 964 q 438 889 438 922 q 416 834 438 854 q 361 814 394 814 z "},"ǧ":{"ha":700,"x_min":63,"x_max":683,"o":"m 342 -311 q 140 -264 218 -311 q 63 -129 63 -217 q 89 -47 63 -86 q 161 24 115 -7 l 161 29 q 119 72 136 44 q 101 139 101 100 q 125 214 101 182 q 175 264 149 246 l 175 269 q 115 344 142 297 q 88 451 88 392 q 122 579 88 525 q 215 663 157 633 q 342 692 274 692 q 394 687 369 692 q 438 675 419 682 l 672 675 l 672 588 l 532 588 l 532 582 q 572 526 556 560 q 589 447 589 493 q 556 324 589 376 q 467 242 522 271 q 342 214 411 214 q 240 238 288 214 q 210 203 222 222 q 197 157 197 185 q 223 104 197 125 q 317 83 249 83 l 447 83 q 624 45 565 83 q 683 -78 683 7 q 642 -193 683 -140 q 524 -278 600 -246 q 342 -311 447 -311 m 342 290 q 442 334 400 290 q 485 451 485 378 q 443 567 485 525 q 342 608 401 608 q 240 567 282 608 q 199 451 199 525 q 241 334 199 378 q 342 290 283 290 m 358 -232 q 514 -190 456 -232 q 572 -94 572 -147 q 537 -29 572 -47 q 436 -11 501 -11 l 319 -11 q 277 -8 300 -11 q 232 0 254 -6 q 179 -56 196 -26 q 163 -114 163 -85 q 215 -200 163 -168 q 358 -232 267 -232 m 311 792 l 122 1021 l 215 1021 l 358 878 l 364 878 l 507 1021 l 600 1021 l 411 792 l 311 792 z "},"ģ":{"ha":700,"x_min":63,"x_max":683,"o":"m 342 -311 q 140 -264 218 -311 q 63 -129 63 -217 q 89 -47 63 -86 q 161 24 115 -7 l 161 29 q 119 72 136 44 q 101 139 101 100 q 125 214 101 182 q 175 264 149 246 l 175 269 q 115 344 142 297 q 88 451 88 392 q 122 579 88 525 q 215 663 157 633 q 342 692 274 692 q 394 687 369 692 q 438 675 419 682 l 672 675 l 672 588 l 532 588 l 532 582 q 572 526 556 560 q 589 447 589 493 q 556 324 589 376 q 467 242 522 271 q 342 214 411 214 q 240 238 288 214 q 210 203 222 222 q 197 157 197 185 q 223 104 197 125 q 317 83 249 83 l 447 83 q 624 45 565 83 q 683 -78 683 7 q 642 -193 683 -140 q 524 -278 600 -246 q 342 -311 447 -311 m 342 290 q 442 334 400 290 q 485 451 485 378 q 443 567 485 525 q 342 608 401 608 q 240 567 282 608 q 199 451 199 525 q 241 334 199 378 q 342 290 283 290 m 358 -232 q 514 -190 456 -232 q 572 -94 572 -147 q 537 -29 572 -47 q 436 -11 501 -11 l 319 -11 q 277 -8 300 -11 q 232 0 254 -6 q 179 -56 196 -26 q 163 -114 163 -85 q 215 -200 163 -168 q 358 -232 267 -232 m 415 799 q 289 834 325 810 q 253 906 253 858 q 313 997 253 967 q 482 1033 372 1028 l 493 976 q 374 955 406 971 q 342 910 342 939 q 367 869 342 883 q 440 851 393 856 l 415 799 z "},"ǥ":{"ha":803,"x_min":65,"x_max":769,"o":"m 357 -306 q 114 -232 226 -306 l 157 -151 q 257 -199 206 -183 q 357 -214 308 -214 q 495 -164 450 -214 q 542 -31 540 -114 l 544 97 q 455 33 506 60 q 344 7 404 7 q 142 97 218 7 q 65 347 65 188 q 107 530 65 453 q 216 649 149 607 q 360 692 283 692 q 461 672 417 692 q 549 613 506 651 l 551 613 l 561 675 l 657 675 l 657 404 l 769 404 l 769 314 l 657 314 l 657 -29 q 578 -232 657 -158 q 357 -306 500 -306 m 369 101 q 458 124 417 101 q 542 194 499 147 l 542 314 l 385 314 l 385 396 l 542 404 l 542 525 q 459 580 499 564 q 378 596 419 596 q 279 564 324 596 q 209 476 235 532 q 183 349 183 421 q 232 168 183 235 q 369 101 281 101 z "},"ɠ":{"ha":771,"x_min":65,"x_max":804,"o":"m 357 -306 q 114 -232 226 -306 l 157 -151 q 257 -199 206 -183 q 357 -214 308 -214 q 495 -164 450 -214 q 542 -31 540 -114 l 544 97 q 455 33 506 60 q 344 7 404 7 q 142 97 218 7 q 65 347 65 188 q 107 530 65 453 q 216 649 149 607 q 360 692 283 692 q 460 671 417 692 q 546 614 503 650 l 544 803 q 589 949 544 893 q 726 1006 633 1006 q 769 1001 749 1006 q 804 990 789 997 l 782 903 q 760 910 772 907 q 731 913 747 913 q 673 866 689 913 q 657 763 657 819 l 657 -29 q 578 -232 657 -158 q 357 -306 500 -306 m 369 101 q 458 124 417 101 q 542 194 499 147 l 542 525 q 459 580 499 564 q 378 596 419 596 q 279 564 324 596 q 209 476 235 532 q 183 349 183 421 q 232 168 183 235 q 369 101 281 101 z "},"ĥ":{"ha":756,"x_min":114,"x_max":654,"o":"m 114 0 l 114 989 l 228 989 l 228 719 l 224 581 q 326 659 272 626 q 449 692 379 692 q 605 624 556 692 q 654 428 654 557 l 654 0 l 540 0 l 540 413 q 510 550 540 507 q 413 593 479 593 q 320 567 361 593 q 228 489 279 540 l 228 0 l 114 0 m 165 1050 l 356 1238 l 464 1238 l 654 1050 l 557 1050 l 413 1163 l 407 1163 l 263 1050 l 165 1050 z "},"ḧ":{"ha":756,"x_min":114,"x_max":654,"o":"m 114 0 l 114 989 l 228 989 l 228 719 l 224 581 q 326 659 272 626 q 449 692 379 692 q 605 624 556 692 q 654 428 654 557 l 654 0 l 540 0 l 540 413 q 510 550 540 507 q 413 593 479 593 q 320 567 361 593 q 228 489 279 540 l 228 0 l 114 0 m 267 1063 q 218 1082 238 1063 q 199 1131 199 1101 q 218 1180 199 1161 q 267 1199 238 1199 q 316 1180 297 1199 q 335 1131 335 1161 q 316 1082 335 1101 q 267 1063 297 1063 m 553 1063 q 503 1082 522 1063 q 485 1131 485 1101 q 503 1180 485 1161 q 553 1199 522 1199 q 601 1180 582 1199 q 621 1131 621 1161 q 601 1082 621 1101 q 553 1063 582 1063 z "},"ḣ":{"ha":756,"x_min":114,"x_max":654,"o":"m 114 0 l 114 989 l 228 989 l 228 719 l 224 581 q 326 659 272 626 q 449 692 379 692 q 605 624 556 692 q 654 428 654 557 l 654 0 l 540 0 l 540 413 q 510 550 540 507 q 413 593 479 593 q 320 567 361 593 q 228 489 279 540 l 228 0 l 114 0 m 410 1061 q 353 1082 376 1061 q 331 1136 331 1103 q 353 1189 331 1168 q 410 1210 376 1210 q 466 1189 443 1210 q 489 1136 489 1168 q 466 1082 489 1103 q 410 1061 443 1061 z "},"ȟ":{"ha":756,"x_min":114,"x_max":654,"o":"m 114 0 l 114 989 l 228 989 l 228 719 l 224 581 q 326 659 272 626 q 449 692 379 692 q 605 624 556 692 q 654 428 654 557 l 654 0 l 540 0 l 540 413 q 510 550 540 507 q 413 593 479 593 q 320 567 361 593 q 228 489 279 540 l 228 0 l 114 0 m 356 1053 l 165 1238 l 263 1238 l 407 1129 l 413 1129 l 557 1238 l 654 1238 l 464 1053 l 356 1053 z "},"ḥ":{"ha":756,"x_min":114,"x_max":654,"o":"m 114 0 l 114 989 l 228 989 l 228 719 l 224 581 q 326 659 272 626 q 449 692 379 692 q 605 624 556 692 q 654 428 654 557 l 654 0 l 540 0 l 540 413 q 510 550 540 507 q 413 593 479 593 q 320 567 361 593 q 228 489 279 540 l 228 0 l 114 0 z "},"ḩ":{"ha":756,"x_min":32,"x_max":654,"o":"m 114 0 l 114 989 l 228 989 l 228 719 l 224 581 q 326 659 272 626 q 449 692 379 692 q 605 624 556 692 q 654 428 654 557 l 654 0 l 540 0 l 540 413 q 510 550 540 507 q 413 593 479 593 q 320 567 361 593 q 228 489 279 540 l 228 0 l 114 0 m 43 -314 l 32 -258 q 151 -235 119 -251 q 183 -189 183 -219 q 160 -146 183 -161 q 76 -122 136 -131 l 138 4 l 211 4 l 171 -89 q 246 -122 219 -100 q 272 -187 272 -144 q 213 -278 272 -247 q 43 -314 154 -308 z "},"ḫ":{"ha":756,"x_min":114,"x_max":654,"o":"m 114 0 l 114 989 l 228 989 l 228 719 l 224 581 q 326 659 272 626 q 449 692 379 692 q 605 624 556 692 q 654 428 654 557 l 654 0 l 540 0 l 540 413 q 510 550 540 507 q 413 593 479 593 q 320 567 361 593 q 228 489 279 540 l 228 0 l 114 0 z "},"ẖ":{"ha":756,"x_min":114,"x_max":654,"o":"m 114 0 l 114 989 l 228 989 l 228 719 l 224 581 q 326 659 272 626 q 449 692 379 692 q 605 624 556 692 q 654 428 654 557 l 654 0 l 540 0 l 540 413 q 510 550 540 507 q 413 593 479 593 q 320 567 361 593 q 228 489 279 540 l 228 0 l 114 0 z "},"ħ":{"ha":774,"x_min":15,"x_max":672,"o":"m 132 0 l 132 774 l 15 774 l 15 857 l 132 864 l 132 989 l 246 989 l 246 864 l 499 864 l 499 774 l 246 774 l 246 667 l 242 526 q 344 606 290 574 q 465 638 397 638 q 622 571 572 638 q 672 375 672 504 l 672 0 l 558 0 l 558 360 q 528 497 558 454 q 431 539 497 539 q 338 513 379 539 q 246 435 296 486 l 246 0 l 132 0 z "},"ì":{"ha":342,"x_min":-33,"x_max":278,"o":"m 114 0 l 114 675 l 228 675 l 228 0 l 114 0 m 186 792 l -33 1008 l -26 1021 l 99 1021 l 278 792 l 186 792 z "},"í":{"ha":342,"x_min":64,"x_max":375,"o":"m 114 0 l 114 675 l 228 675 l 228 0 l 114 0 m 64 792 l 243 1021 l 368 1021 l 375 1008 l 156 792 l 64 792 z "},"î":{"ha":342,"x_min":-68,"x_max":410,"o":"m 114 0 l 114 675 l 228 675 l 228 0 l 114 0 m -68 792 l 121 1021 l 221 1021 l 410 792 l 317 792 l 174 935 l 168 935 l 25 792 l -68 792 z "},"ĩ":{"ha":342,"x_min":-69,"x_max":411,"o":"m 114 0 l 114 675 l 228 675 l 228 0 l 114 0 m 271 801 q 207 819 233 801 q 159 860 181 836 q 117 901 138 883 q 72 918 96 918 q 26 888 42 918 q 7 808 10 857 l -69 813 q -34 948 -67 894 q 71 1001 -1 1001 q 135 984 108 1001 q 183 943 161 967 q 226 902 206 919 q 271 885 246 885 q 317 916 301 885 q 335 994 332 947 l 411 989 q 376 855 408 908 q 271 801 343 801 z "},"ï":{"ha":342,"x_min":-32,"x_max":374,"o":"m 114 0 l 114 675 l 228 675 l 228 0 l 114 0 m 38 815 q -12 835 7 815 q -32 885 -32 856 q -12 934 -32 914 q 38 954 7 954 q 86 934 67 954 q 106 885 106 914 q 86 835 106 856 q 38 815 67 815 m 304 815 q 256 835 275 815 q 236 885 236 856 q 256 934 236 914 q 304 954 275 954 q 354 934 335 954 q 374 885 374 914 q 354 835 374 856 q 304 815 335 815 z "},"ī":{"ha":342,"x_min":-14,"x_max":356,"o":"m 114 0 l 114 675 l 228 675 l 228 0 l 114 0 m -14 835 l -14 914 l 356 914 l 356 835 l -14 835 z "},"ĭ":{"ha":342,"x_min":-46,"x_max":388,"o":"m 114 0 l 114 675 l 228 675 l 228 0 l 114 0 m 171 790 q 51 822 97 790 q -19 901 4 853 q -46 1000 -42 950 l 25 1013 q 68 913 33 958 q 171 868 103 868 q 274 913 239 868 q 317 1013 308 958 l 388 1000 q 362 901 385 950 q 292 822 339 853 q 171 790 246 790 z "},"ị":{"ha":342,"x_min":94,"x_max":247,"o":"m 114 0 l 114 675 l 228 675 l 228 0 l 114 0 m 171 814 q 116 834 138 814 q 94 889 94 854 q 116 943 94 922 q 171 964 138 964 q 226 943 204 964 q 247 889 247 922 q 226 834 247 854 q 171 814 204 814 z "},"ǐ":{"ha":342,"x_min":-68,"x_max":410,"o":"m 114 0 l 114 675 l 228 675 l 228 0 l 114 0 m 121 792 l -68 1021 l 25 1021 l 168 878 l 174 878 l 317 1021 l 410 1021 l 221 792 l 121 792 z "},"ȉ":{"ha":342,"x_min":-118,"x_max":326,"o":"m 114 0 l 114 675 l 228 675 l 228 0 l 114 0 m 33 793 l -118 1011 l -111 1024 l -17 1024 l 103 793 l 33 793 m 258 793 l 106 1011 l 113 1024 l 207 1024 l 326 793 l 258 793 z "},"į":{"ha":342,"x_min":43,"x_max":303,"o":"m 182 -299 q 83 -267 124 -299 q 43 -169 43 -236 q 73 -72 43 -114 q 136 0 103 -31 l 114 0 l 114 675 l 228 675 l 228 0 q 158 -69 183 -31 q 132 -147 132 -107 q 154 -200 132 -183 q 203 -217 176 -217 q 240 -210 224 -217 q 274 -193 257 -204 l 303 -256 q 249 -286 281 -274 q 182 -299 217 -299 m 172 814 q 117 834 139 814 q 96 889 96 854 q 117 943 96 922 q 172 964 139 964 q 227 943 206 964 q 249 889 249 922 q 227 834 249 854 q 172 814 206 814 z "},"ỉ":{"ha":342,"x_min":76,"x_max":282,"o":"m 114 0 l 114 675 l 228 675 l 228 0 l 114 0 m 126 778 l 114 833 q 170 865 149 843 q 192 914 192 886 q 76 981 192 976 l 83 1051 q 230 1021 178 1050 q 282 931 282 992 q 235 827 282 865 q 126 778 189 789 z "},"ɨ":{"ha":408,"x_min":31,"x_max":374,"o":"m 147 0 l 147 307 l 31 307 l 31 389 l 147 397 l 147 675 l 261 675 l 261 397 l 374 397 l 374 307 l 261 307 l 261 0 l 147 0 m 203 814 q 148 834 169 814 q 126 889 126 854 q 148 943 126 922 q 203 964 169 964 q 258 943 236 964 q 279 889 279 922 q 258 834 279 854 q 203 814 236 814 z "},"ı":{"ha":342,"x_min":114,"x_max":228,"o":"m 114 0 l 114 675 l 228 675 l 228 0 l 114 0 z "},"ĳ":{"ha":685,"x_min":94,"x_max":589,"o":"m 114 0 l 114 675 l 228 675 l 228 0 l 114 0 m 171 814 q 116 834 138 814 q 94 889 94 854 q 116 943 94 922 q 171 964 138 964 q 226 943 204 964 q 247 889 247 922 q 226 834 247 854 q 171 814 204 814 m 386 -301 q 330 -296 356 -301 q 286 -282 304 -290 l 310 -197 q 340 -205 322 -201 q 374 -208 357 -208 q 440 -173 424 -208 q 457 -76 457 -137 l 457 675 l 571 675 l 571 -76 q 529 -240 571 -179 q 386 -301 488 -301 m 513 814 q 458 834 479 814 q 436 889 436 854 q 458 943 436 922 q 513 964 479 964 q 567 943 546 964 q 589 889 589 922 q 567 834 589 854 q 513 814 546 814 z "},"ĵ":{"ha":343,"x_min":-65,"x_max":413,"o":"m 44 -301 q -12 -296 14 -301 q -56 -282 -37 -290 l -32 -197 q -2 -205 -19 -201 q 32 -208 15 -208 q 99 -173 82 -208 q 115 -76 115 -137 l 115 675 l 229 675 l 229 -76 q 188 -240 229 -179 q 44 -301 146 -301 m -65 792 l 124 1021 l 224 1021 l 413 792 l 319 792 l 176 935 l 171 935 l 28 792 l -65 792 z "},"ǰ":{"ha":343,"x_min":-65,"x_max":413,"o":"m 44 -301 q -12 -296 14 -301 q -56 -282 -37 -290 l -32 -197 q -2 -205 -19 -201 q 32 -208 15 -208 q 99 -173 82 -208 q 115 -76 115 -137 l 115 675 l 229 675 l 229 -76 q 188 -240 229 -179 q 44 -301 146 -301 m 124 792 l -65 1021 l 28 1021 l 171 878 l 176 878 l 319 1021 l 413 1021 l 224 792 l 124 792 z "},"ɉ":{"ha":408,"x_min":-22,"x_max":375,"o":"m 78 -301 q 22 -296 47 -301 q -22 -282 -4 -290 l 1 -197 q 31 -205 14 -201 q 65 -208 49 -208 q 132 -173 115 -208 q 149 -76 149 -137 l 149 307 l 31 307 l 31 389 l 147 397 l 149 397 l 149 675 l 263 675 l 263 397 l 375 397 l 375 307 l 263 307 l 263 -76 q 221 -240 263 -179 q 78 -301 179 -301 m 204 814 q 149 834 171 814 q 128 889 128 854 q 149 943 128 922 q 204 964 171 964 q 259 943 238 964 q 281 889 281 922 q 259 834 281 854 q 204 814 238 814 z "},"ȷ":{"ha":343,"x_min":-56,"x_max":229,"o":"m 44 -301 q -12 -296 14 -301 q -56 -282 -37 -290 l -32 -197 q -2 -205 -19 -201 q 32 -208 15 -208 q 99 -173 82 -208 q 115 -76 115 -137 l 115 675 l 229 675 l 229 -76 q 188 -240 229 -179 q 44 -301 146 -301 z "},"ķ":{"ha":688,"x_min":114,"x_max":675,"o":"m 114 0 l 114 989 l 228 989 l 228 321 l 231 321 l 517 675 l 644 675 l 419 403 l 675 0 l 550 0 l 353 325 l 228 178 l 228 0 l 114 0 m 261 -314 l 250 -258 q 369 -235 338 -251 q 401 -192 401 -219 q 376 -151 401 -164 q 303 -133 351 -137 l 328 -81 q 454 -115 418 -90 q 490 -187 490 -140 q 431 -278 490 -247 q 261 -314 372 -308 z "},"ḳ":{"ha":688,"x_min":114,"x_max":675,"o":"m 114 0 l 114 989 l 228 989 l 228 321 l 231 321 l 517 675 l 644 675 l 419 403 l 675 0 l 550 0 l 353 325 l 228 178 l 228 0 l 114 0 z "},"ḵ":{"ha":688,"x_min":114,"x_max":675,"o":"m 114 0 l 114 989 l 228 989 l 228 321 l 231 321 l 517 675 l 644 675 l 419 403 l 675 0 l 550 0 l 353 325 l 228 178 l 228 0 l 114 0 z "},"ĸ":{"ha":688,"x_min":114,"x_max":675,"o":"m 114 0 l 114 675 l 228 675 l 228 317 l 232 317 l 518 675 l 644 675 l 421 404 l 675 0 l 550 0 l 353 321 l 228 174 l 228 0 l 114 0 z "},"ĺ":{"ha":354,"x_min":67,"x_max":396,"o":"m 235 -12 q 142 27 171 -12 q 114 139 114 67 l 114 989 l 228 989 l 228 131 q 238 93 228 104 q 261 82 247 82 q 272 83 267 82 q 285 85 276 83 l 300 -1 q 235 -12 275 -12 m 67 1050 l 250 1238 l 390 1238 l 396 1225 l 169 1050 l 67 1050 z "},"ľ":{"ha":368,"x_min":114,"x_max":383,"o":"m 235 -12 q 142 27 171 -12 q 114 139 114 67 l 114 989 l 228 989 l 228 131 q 238 93 228 104 q 261 82 247 82 q 272 83 267 82 q 285 85 276 83 l 300 -1 q 235 -12 275 -12 m 307 761 l 301 1056 l 383 1056 l 382 976 l 363 761 l 307 761 z "},"ļ":{"ha":354,"x_min":69,"x_max":310,"o":"m 235 -12 q 142 27 171 -12 q 114 139 114 67 l 114 989 l 228 989 l 228 131 q 238 93 228 104 q 261 82 247 82 q 272 83 267 82 q 285 85 276 83 l 300 -1 q 235 -12 275 -12 m 81 -314 l 69 -258 q 189 -235 157 -251 q 221 -192 221 -219 q 196 -151 221 -164 q 122 -133 171 -137 l 147 -81 q 274 -115 238 -90 q 310 -187 310 -140 q 251 -278 310 -247 q 81 -314 192 -308 z "},"ḷ":{"ha":354,"x_min":114,"x_max":300,"o":"m 235 -12 q 142 27 171 -12 q 114 139 114 67 l 114 989 l 228 989 l 228 131 q 238 93 228 104 q 261 82 247 82 q 272 83 267 82 q 285 85 276 83 l 300 -1 q 235 -12 275 -12 z "},"ḹ":{"ha":354,"x_min":-14,"x_max":361,"o":"m 235 -12 q 142 27 171 -12 q 114 139 114 67 l 114 989 l 228 989 l 228 131 q 238 93 228 104 q 261 82 247 82 q 272 83 267 82 q 285 85 276 83 l 300 -1 q 235 -12 275 -12 m -14 1090 l -14 1169 l 361 1169 l 361 1090 l -14 1090 z "},"ḻ":{"ha":354,"x_min":17,"x_max":386,"o":"m 235 -12 q 142 27 171 -12 q 114 139 114 67 l 114 989 l 228 989 l 228 131 q 238 93 228 104 q 261 82 247 82 q 272 83 267 82 q 285 85 276 83 l 300 -1 q 235 -12 275 -12 z "},"ł":{"ha":414,"x_min":-12,"x_max":415,"o":"m 264 -12 q 172 27 200 -12 q 143 139 143 67 l 143 488 l 32 433 l -12 519 l 143 592 l 143 989 l 257 989 l 257 643 l 371 699 l 415 613 l 257 540 l 257 131 q 267 93 257 104 q 290 82 276 82 q 301 83 296 82 q 314 85 306 83 l 329 -1 q 264 -12 304 -12 z "},"ƚ":{"ha":407,"x_min":31,"x_max":371,"o":"m 268 -12 q 176 27 204 -12 q 147 139 147 67 l 147 496 l 31 496 l 31 578 l 147 585 l 147 989 l 261 989 l 261 585 l 371 585 l 371 496 l 261 496 l 261 131 q 271 93 261 104 q 294 82 281 82 q 305 83 300 82 q 318 85 310 83 l 333 -1 q 268 -12 308 -12 z "},"ⱡ":{"ha":407,"x_min":31,"x_max":379,"o":"m 268 -12 q 176 27 204 -12 q 147 139 147 67 l 147 421 l 31 421 l 31 486 l 147 493 l 147 588 l 31 588 l 31 653 l 147 660 l 147 989 l 261 989 l 261 660 l 379 660 l 379 588 l 261 588 l 261 493 l 379 493 l 379 421 l 261 421 l 261 131 q 271 93 261 104 q 294 82 281 82 q 305 83 300 82 q 318 85 310 83 l 333 -1 q 268 -12 308 -12 z "},"ɫ":{"ha":489,"x_min":-18,"x_max":507,"o":"m 306 -12 q 213 27 242 -12 q 185 139 185 67 l 185 989 l 299 989 l 299 131 q 308 93 299 104 q 332 82 318 82 q 342 83 338 82 q 356 85 347 83 l 371 -1 q 306 -12 346 -12 m 375 435 q 295 452 329 435 q 233 493 261 469 q 179 534 206 517 q 122 551 153 551 q 76 522 92 551 q 58 444 61 493 l -18 457 q 16 583 -14 532 q 114 635 46 635 q 194 617 160 635 q 256 576 228 600 q 310 535 283 553 q 367 518 336 518 q 413 549 397 518 q 431 625 428 579 l 507 613 q 473 487 503 539 q 375 435 443 435 z "},"ɬ":{"ha":465,"x_min":-4,"x_max":457,"o":"m 163 529 l 192 529 l 192 539 q 173 603 192 579 q 122 626 154 626 q 88 614 99 626 q 76 582 76 601 q 97 544 76 560 q 163 529 118 529 m 192 0 l 192 439 l 175 439 q 39 479 82 439 q -4 578 -4 519 q 28 660 -4 628 q 111 693 60 693 q 156 685 136 693 q 192 664 176 678 l 192 989 l 306 989 l 306 529 l 457 529 l 457 439 l 306 439 l 306 0 l 192 0 z "},"ŀ":{"ha":503,"x_min":114,"x_max":504,"o":"m 235 -12 q 142 27 171 -12 q 114 139 114 67 l 114 989 l 228 989 l 228 131 q 238 93 228 104 q 261 82 247 82 q 272 83 267 82 q 285 85 276 83 l 300 -1 q 235 -12 275 -12 m 422 365 q 363 390 388 365 q 339 451 339 414 q 363 516 339 492 q 422 540 388 540 q 480 516 456 540 q 504 451 504 492 q 480 390 504 414 q 422 365 456 365 z "},"ḿ":{"ha":1151,"x_min":114,"x_max":1046,"o":"m 114 0 l 114 675 l 208 675 l 218 578 l 222 578 q 319 659 267 626 q 432 692 372 692 q 553 658 510 692 q 618 563 597 624 q 725 656 671 619 q 840 692 779 692 q 995 624 944 692 q 1046 428 1046 557 l 1046 0 l 932 0 l 932 413 q 901 550 932 507 q 807 593 871 593 q 638 489 732 593 l 638 0 l 524 0 l 524 413 q 493 550 524 507 q 397 593 463 593 q 228 489 322 593 l 228 0 l 114 0 m 483 792 l 663 1021 l 788 1021 l 794 1008 l 575 792 l 483 792 z "},"ṁ":{"ha":1151,"x_min":114,"x_max":1046,"o":"m 114 0 l 114 675 l 208 675 l 218 578 l 222 578 q 319 659 267 626 q 432 692 372 692 q 553 658 510 692 q 618 563 597 624 q 725 656 671 619 q 840 692 779 692 q 995 624 944 692 q 1046 428 1046 557 l 1046 0 l 932 0 l 932 413 q 901 550 932 507 q 807 593 871 593 q 638 489 732 593 l 638 0 l 524 0 l 524 413 q 493 550 524 507 q 397 593 463 593 q 228 489 322 593 l 228 0 l 114 0 m 590 814 q 535 834 557 814 q 514 889 514 854 q 535 943 514 922 q 590 964 557 964 q 645 943 624 964 q 667 889 667 922 q 645 834 667 854 q 590 814 624 814 z "},"ṃ":{"ha":1151,"x_min":114,"x_max":1046,"o":"m 114 0 l 114 675 l 208 675 l 218 578 l 222 578 q 319 659 267 626 q 432 692 372 692 q 553 658 510 692 q 618 563 597 624 q 725 656 671 619 q 840 692 779 692 q 995 624 944 692 q 1046 428 1046 557 l 1046 0 l 932 0 l 932 413 q 901 550 932 507 q 807 593 871 593 q 638 489 732 593 l 638 0 l 524 0 l 524 413 q 493 550 524 507 q 397 593 463 593 q 228 489 322 593 l 228 0 l 114 0 z "},"ǹ":{"ha":760,"x_min":114,"x_max":654,"o":"m 114 0 l 114 675 l 208 675 l 218 578 l 222 578 q 325 659 271 626 q 449 692 379 692 q 605 624 556 692 q 654 428 654 557 l 654 0 l 540 0 l 540 413 q 510 550 540 507 q 413 593 479 593 q 320 567 361 593 q 228 489 279 540 l 228 0 l 114 0 m 425 792 l 206 1008 l 213 1021 l 338 1021 l 517 792 l 425 792 z "},"ń":{"ha":760,"x_min":114,"x_max":654,"o":"m 114 0 l 114 675 l 208 675 l 218 578 l 222 578 q 325 659 271 626 q 449 692 379 692 q 605 624 556 692 q 654 428 654 557 l 654 0 l 540 0 l 540 413 q 510 550 540 507 q 413 593 479 593 q 320 567 361 593 q 228 489 279 540 l 228 0 l 114 0 m 303 792 l 482 1021 l 607 1021 l 614 1008 l 394 792 l 303 792 z "}}}
